<?xml version="1.0" encoding="utf-8"?>
<!DOCTYPE svg PUBLIC "-//W3C//DTD SVG 1.0//EN" "http://www.w3.org/TR/2001/REC-SVG-20010904/DTD/svg10.dtd">
<svg version="1.0" xmlns="http://www.w3.org/2000/svg" width="240px" height="240px" viewBox="0 0 240 240" preserveAspectRatio="xMidYMid meet">
 <g fill="#ffffff">
  <path d="M0 120 l0 -120 120 0 120 0 0 120 0 120 -120 0 -120 0 0 -120z"/>
 </g>
 <g fill="#172447">
  <path d="M41 203.5 l-15 -15 0 -66.5 0 -66.5 14.8 -14.8 14.8 -14.7 66.9 0 66.9 0 14.8 14.7 14.8 14.8 0 66.5 0 66.5 -14.8 14.8 -14.8 14.7 -66.7 0.3 -66.7 0.2 -15 -15z m143 10.5 c0 -0.6 -1.5 -3.3 -3.2 -6 l-3.3 -5 -54.7 0 -54.6 0 -3.6 4.9 c-2 2.7 -3.6 5.4 -3.6 6 0 0.8 16.9 1.1 61.5 1.1 40.8 0 61.5 -0.3 61.5 -1z m-123.2 -6.9 l4 -5.8 -10.8 -10.8 -10.8 -10.7 -6.2 4.2 -6.2 4.2 12.3 12.4 c6.8 6.8 12.7 12.4 13 12.4 0.4 0 2.5 -2.6 4.7 -5.9z m141.1 -6.5 l12.3 -12.4 -6.2 -4.2 -6.2 -4.2 -10.4 10.3 c-5.7 5.7 -10.4 10.8 -10.4 11.3 0 1.2 7.1 11.6 7.9 11.6 0.4 0 6.2 -5.6 13 -12.4z m-28.5 -2.8 c-0.4 -0.7 -2.3 -3.4 -4.1 -6 l-3.5 -4.8 -43.3 0 -43.4 0 -4.1 6 -4.1 6 51.6 0 c41 0 51.5 -0.3 50.9 -1.2z m-102.1 -5.4 c2 -3 3.7 -5.8 3.7 -6.2 0 -0.4 -3.7 -4.5 -8.3 -9 l-8.3 -8.3 -5.7 4.1 c-3.1 2.3 -5.7 4.4 -5.7 4.8 0 0.8 19.2 20.2 20 20.2 0.3 -0.1 2.2 -2.6 4.3 -5.6z m126.7 -14.6 c0 -0.4 -2.6 -2.5 -5.7 -4.8 l-5.7 -4.1 -8.5 8.5 -8.4 8.4 1.8 2.9 c1 1.5 2.9 4.3 4.3 6.2 l2.5 3.3 9.8 -9.8 c5.5 -5.4 9.9 -10.2 9.9 -10.6z m-161.5 2.2 l5.5 -4.1 0 -53.8 0 -53.9 -4.7 -3.5 c-2.7 -1.8 -5.4 -3.7 -6.1 -4.1 -0.9 -0.6 -1.2 12 -1.2 61.3 0 34.2 0.2 62.1 0.5 62.1 0.3 0 3 -1.8 6 -4z m126.5 3.5 c0 -0.3 -1.6 -3 -3.6 -6 l-3.7 -5.5 -33.1 0 -33.1 0.1 -3.7 5.4 c-2.1 2.9 -3.8 5.6 -3.8 5.9 0 0.3 18.2 0.6 40.5 0.6 22.3 0 40.5 -0.2 40.5 -0.5z m52 -61.6 c0 -49.3 -0.3 -61.9 -1.2 -61.3 -0.7 0.4 -3.4 2.3 -6 4.1 l-4.8 3.5 0 53.9 0 53.8 5.3 4 c2.8 2.2 5.5 4 6 4 0.4 0.1 0.7 -27.8 0.7 -62z m-132.7 54.7 c2 -3 3.7 -5.8 3.7 -6.3 0 -0.5 -2.6 -3.5 -5.9 -6.7 l-5.8 -5.8 -5.4 3.8 c-3 2.1 -5.8 4.1 -6.4 4.6 -1 0.9 13.1 15.8 15 15.8 0.5 0 2.7 -2.5 4.8 -5.4z m93.7 -2.1 c4.5 -4.6 7.1 -7.8 6.5 -8.4 -0.6 -0.4 -3.5 -2.5 -6.5 -4.5 l-5.5 -3.6 -5.7 5.7 c-3.2 3.2 -5.8 6.1 -5.8 6.6 0 1.4 7.4 11.6 8.5 11.7 0.6 0 4.4 -3.4 8.5 -7.5z m-124.3 -5.1 l5.3 -3.6 0 -43.8 0 -43.7 -5.3 -3.6 c-3 -2.1 -5.7 -3.7 -6 -3.7 -0.4 0 -0.7 23 -0.7 51 0 28.1 0.3 51 0.7 51 0.4 0 3.1 -1.6 6 -3.6z m148.3 -47.4 c0 -28 -0.2 -51 -0.5 -51 -0.3 0 -3 1.6 -6 3.6 l-5.5 3.7 0 43.8 0 43.8 5.2 3.6 c2.9 1.9 5.6 3.5 6 3.5 0.5 0 0.8 -22.9 0.8 -51z m-37.8 39.3 l6.8 -6.7 0 -32.5 0 -32.5 -6.7 -6.8 -6.7 -6.8 -33 0 -33 0 -6.8 6.7 -6.8 6.7 0 32.5 0 32.5 6.7 6.8 6.7 6.8 33 0 33 0 6.8 -6.7z m-89.2 -39.2 l0 -32.6 -5.4 -3.7 c-3 -2.1 -5.7 -3.8 -6 -3.8 -0.3 0 -0.6 18.2 -0.6 40.4 l0 40.5 6 -4.1 6 -4.2 0 -32.5z m110.6 -39.9 c-0.3 -0.2 -3 1.3 -6 3.4 l-5.6 3.9 0 32.6 0 32.5 5.8 4 5.7 3.9 0.3 -39.9 c0.1 -21.9 0 -40.1 -0.2 -40.4z m-103.4 -1.9 c3.2 -3.2 5.8 -6.1 5.8 -6.6 0 -1.1 -7.3 -11.7 -8.1 -11.7 -0.9 0 -15.1 14.6 -15.1 15.5 0 0.7 10.2 8.4 11.2 8.5 0.2 0 3 -2.6 6.2 -5.7z m96.9 1.5 l5.9 -4.1 -2.2 -2.5 c-5.8 -6.2 -13 -13.2 -13.6 -13.2 -0.6 0 -7.1 9.1 -8.1 11.3 -0.3 0.8 10.7 12.7 11.7 12.7 0.2 0 3.1 -1.9 6.3 -4.2z m-109.9 -14.5 c4.3 -4.3 7.8 -8.2 7.8 -8.8 0 -0.8 -5.9 -10.4 -7.7 -12.4 -0.5 -0.7 -20.3 19.2 -20.3 20.4 0.1 1.1 9.8 8.3 11.5 8.4 0.5 0.1 4.5 -3.4 8.7 -7.6z m125.6 3.5 l6.3 -4.1 -10.3 -10.4 -10.3 -10.3 -2.7 3.2 c-1.5 1.8 -3.5 4.8 -4.5 6.6 l-1.8 3.2 8 8 c4.4 4.3 8.2 7.9 8.4 7.9 0.3 0.1 3.3 -1.8 6.9 -4.1z m-33.4 -4.3 c2 -3 3.6 -5.7 3.6 -6 0 -0.3 -18.2 -0.5 -40.5 -0.5 -22.3 0 -40.5 0.3 -40.5 0.6 0 0.3 1.7 3 3.8 6 l3.7 5.4 33.1 0 33.1 0 3.7 -5.5z m-105.3 -13.1 l10.7 -10.7 -4 -5.8 c-2.2 -3.3 -4.3 -5.9 -4.7 -5.9 -0.3 0 -6.2 5.6 -13 12.4 l-12.3 12.3 5.9 4.2 c3.2 2.2 6 4.1 6.3 4.1 0.2 0 5.3 -4.8 11.1 -10.6z m154.9 6 l5.2 -3.7 -12.4 -12.4 c-6.7 -6.7 -12.6 -12.2 -13 -12.1 -0.4 0.2 -2.5 2.8 -4.7 5.8 l-4 5.5 10.7 10.8 c5.9 5.9 11.2 10.5 11.8 10.3 0.7 -0.3 3.5 -2.1 6.4 -4.2z m-39 -8.1 l4.1 -5.8 -25.5 -0.3 c-14 -0.1 -37.2 -0.1 -51.5 0 l-26.1 0.3 4.1 5.8 4.1 5.7 43.3 0 43.4 0 4.1 -5.7z m10.8 -15.3 c1.7 -2.7 3.2 -5.4 3.2 -6 0 -0.7 -20.7 -1 -61.5 -1 -48.5 0 -61.5 0.3 -61.5 1.3 0 0.6 1.6 3.3 3.5 6 l3.5 4.7 54.8 0 54.7 0 3.3 -5z"/>
 </g>
</svg>