<?xml version="1.0" encoding="utf-8"?>
<svg id="Layer_1" width="30" height="30" data-name="Layer 1" xmlns="http://www.w3.org/2000/svg" viewBox="0 0 30 30">
  <title>cushion-b</title>
  <g id="cushion-b">
    <path class="cls-1" d="M30,15c0,1.58,0,3.17,0,4.75,0,4.94-3.74,9-9.28,10a11.07,11.07,0,0,1-2,.2c-2.47,0-4.94,0-7.41,0C5.43,29.88.5,25.83.08,20.72,0,19.11,0,17.48,0,15.86c0-1.9,0-3.81,0-5.71C.06,5.3,3.8,1.28,9.25.24A11.75,11.75,0,0,1,11.34,0c2.57,0,5.14-.07,7.71,0,5.06.18,9.51,3.45,10.6,7.75A11.82,11.82,0,0,1,30,10.31C30,11.87,30,13.43,30,15Zm-6.84,7.09V7.86H6.79V22.08ZM7.34,3.91,7.57,4c2.37,1,4.73,2,7.11,3a.86.86,0,0,0,.57,0C17,6.33,18.67,5.6,20.39,4.87l2.21-.94-.37-.18C20.1,2.83,18,1.95,15.86,1A2,2,0,0,0,14,1C11.83,2,9.61,2.93,7.34,3.91ZM7.54,26l.2.11c2.31,1,4.63,2.09,7,3.12a.76.76,0,0,0,.53,0q3.4-1.52,6.79-3.07l.3-.16-.37-.17C19.84,24.92,17.72,24,15.63,23a1.46,1.46,0,0,0-1.38,0C12,24.05,9.81,25,7.54,26ZM26.59,8.64c-.05.1-.08.14-.1.19-.84,2-1.68,4-2.51,6a.62.62,0,0,0,0,.45q1.27,2.94,2.57,5.87a3.24,3.24,0,0,0,.17.28c.83-2.09,1.63-4.12,2.42-6.15a.62.62,0,0,0,0-.42c-.24-.63-.5-1.25-.76-1.87Zm-23.15,0a1.57,1.57,0,0,0-.12.18c-.83,2-1.66,4-2.47,6a.66.66,0,0,0,0,.45c.39,1,.8,2.07,1.2,3.1l1.17,3a.81.81,0,0,0,.1-.13q1.31-3,2.62-6.1a.44.44,0,0,0,0-.31C5.13,12.82,4.29,10.76,3.44,8.65ZM15.54,22.5l0,.07L23.13,26V22.5Zm-1.15.07,0-.06H6.79v3.42Zm1.1-15.21,0,.06h7.63V4.11Zm-8.7.06h7.61V7.35L6.78,4.1Zm8.81,22.12,0,.06c1.16,0,2.33,0,3.49,0a11.39,11.39,0,0,0,3.76-.81c.12,0,.29-.17.3-.25,0-.78,0-1.56,0-2.41Zm-8.83-3.4c0,.83,0,1.6,0,2.36,0,.08.15.21.26.24.73.23,1.45.47,2.2.64a22.23,22.23,0,0,0,4.67.24l.35,0v-.07ZM23.17,3.76c0-.66,0-1.23,0-1.81s0-.62-.64-.84l-.08,0A18.25,18.25,0,0,0,15.69.41s0,0-.08.07ZM14.26.48l0-.09H11.66a12.79,12.79,0,0,0-4.6.86c-.23.09-.32.2-.31.41,0,.43,0,.86,0,1.29,0,.25,0,.49,0,.79Zm9.38,22V25.8h2.87V22.51ZM6.32,25.84c0-.89,0-1.73,0-2.57s0-.78-.91-.78H3.49v3.36Zm0-3.76V15.71H6.22L3.47,22.08ZM26.72,7.84l2.74,6.71c.09-.06.1-.1.1-.14,0-1.45,0-2.89,0-4.34a15.06,15.06,0,0,0-.25-1.93c0-.11-.15-.28-.23-.28C28.31,7.83,27.55,7.84,26.72,7.84ZM6.22,14.39l.07,0V7.86H3.57Zm-3-6.56c-.82,0-1.56,0-2.31,0a.36.36,0,0,0-.24.23A5.76,5.76,0,0,0,.51,9.23c0,1.64-.05,3.29-.07,4.93,0,.1,0,.2,0,.3h.1ZM26.51,22.08l-2.8-6.35-.08,0v6.33ZM23.64,7.85v6.47h.07l2.72-6.48Zm0-3.8V7.42h2.68V4.06Zm-20,0V7.42H6.29V4.06ZM29.49,15.64,26.93,22.1h1c1.43,0,1.47,0,1.51-1.26C29.52,19.13,29.49,17.43,29.49,15.64ZM3,22.1.53,15.64a.2.2,0,0,0-.09.17c0,1.34,0,2.67,0,4a16.79,16.79,0,0,0,.24,2,.38.38,0,0,0,.26.25C1.62,22.11,2.3,22.1,3,22.1ZM29,7.43A7.35,7.35,0,0,0,26.83,3.9V7.43ZM.9,7.42H3.17V3.79A9.35,9.35,0,0,0,.9,7.42ZM3,26V22.51H.87A9.39,9.39,0,0,0,3,26ZM27,22.5V26a9.15,9.15,0,0,0,2.09-3.52ZM6.3,26.25H3.21A10.47,10.47,0,0,0,6.3,28.43Zm20.51,0H23.65v2.23A11.12,11.12,0,0,0,26.81,26.23ZM6.3,1.58a10.84,10.84,0,0,0-3,2h3ZM26.69,3.65a11.1,11.1,0,0,0-3-2.07V3.65Z" transform="translate(0)"></path>
  </g>
</svg>