<?xml version="1.0" encoding="utf-8"?>
<!DOCTYPE svg PUBLIC "-//W3C//DTD SVG 1.0//EN" "http://www.w3.org/TR/2001/REC-SVG-20010904/DTD/svg10.dtd">
<svg version="1.0" xmlns="http://www.w3.org/2000/svg" width="512px" height="512px" viewBox="0 0 512 512" preserveAspectRatio="xMidYMid meet">
 <g fill="#4f4941">
  <path d="M238.5 497.4 c-39.4 -3.3 -77.6 -14.5 -99.1 -29.1 -29.6 -20.2 -47.7 -66.7 -56 -144.3 -2.1 -19.8 -3 -75.8 -1.5 -98 5.2 -78.3 22.4 -141.5 46.6 -171 37.8 -46.1 170 -58 232.9 -20.9 9.7 5.8 21 17.4 27.1 27.8 32.5 55.9 47.6 183.8 33.9 287.1 -7 53 -22.7 95.2 -42.4 114.8 -16.1 15.9 -41.6 26.2 -78.5 31.8 -9.7 1.5 -52.1 2.7 -63 1.8z m11.6 -8.1 c-2.8 -5.1 -36 -54.8 -36.7 -55 -1.5 -0.5 -20.4 48.1 -19 48.8 3.1 1.7 32.2 6.1 48.6 7.2 2.5 0.2 5.3 0.4 6.3 0.5 1.4 0.2 1.6 -0.2 0.8 -1.5z m38.4 0.7 c9.8 -0.9 29.6 -3.8 30.3 -4.5 0.4 -0.4 -21 -51.5 -21.7 -51.5 -0.6 0 -35.9 53.3 -36.8 55.7 -0.6 1.6 12.1 1.8 28.2 0.3z m-14.1 -34.9 l18.6 -28.5 -19 -11.2 -19 -11.3 -18.5 11.1 c-10.2 6 -18.5 11.4 -18.5 11.8 0 1.2 37 57.3 37.5 56.9 0.1 -0.2 8.7 -13.2 18.9 -28.8z m68.4 23.3 c10.2 -3.8 26.3 -12.7 25.1 -13.8 -0.2 -0.2 -14.5 -7.4 -31.6 -16 l-31.3 -15.6 1.9 4.8 c1.8 4.5 14.2 34.5 17.5 42.4 l1.6 3.7 5.2 -1.6 c2.9 -0.8 8.1 -2.6 11.6 -3.9z m-154.6 2.4 c-0.7 -0.9 1.5 -7.7 8 -24.1 4.9 -12.6 8.8 -23 8.5 -23.3 -0.4 -0.4 -60.4 27 -61.6 28.1 -1.6 1.6 19.8 12.3 33.9 16.9 11.8 3.9 12.7 4.1 11.2 2.4z m191.1 -26.3 c5.9 -7.2 13.9 -21.7 18.7 -34 3.7 -9.6 10.5 -33.2 11.5 -39.6 l0.7 -4.6 -4.4 -1.5 c-2.3 -0.9 -14.1 -5 -26.1 -9.2 -11.9 -4.3 -22.1 -7.6 -22.5 -7.4 -1 0.4 15 102.8 16 102.8 0.4 0 3.2 -2.9 6.1 -6.5z m-238.3 4.3 c0 -0.7 3 -23.5 6.6 -50.6 3.6 -27.2 6.3 -49.6 6 -49.9 -0.3 -0.3 -12.6 3.7 -27.3 8.9 -19.8 7 -26.9 9.9 -27.1 11.2 -0.6 2.7 6.7 27 11.8 39.7 6.2 15.4 13.1 26.8 21.2 35.1 6.6 6.6 8.8 8.1 8.8 5.6z m223 -6 c0 -3 -14.8 -94 -15.4 -94.5 -0.6 -0.7 -37.3 16.3 -39.2 18.1 -1 1 -7.9 46.4 -7.2 47.1 0.7 0.6 60.4 30.4 61.1 30.4 0.4 0.1 0.7 -0.5 0.7 -1.1z m-183.7 -16.3 c23.7 -11.1 27.7 -13.2 27.7 -15.1 0 -2.1 -6 -44.7 -6.3 -45 -0.8 -0.8 -39 -18.4 -39.7 -18.4 -0.6 0 -1 0.6 -1 1.3 0 1.4 -10.6 82.1 -11.6 88 -0.6 3.5 -0.4 3.8 1.2 3 1.1 -0.5 14.4 -6.8 29.7 -13.8z m51.3 -26.6 c8.5 -5 15.4 -9.4 15.4 -9.8 -0.1 -0.9 -36.2 -19.3 -36.8 -18.6 -0.3 0.3 0.5 7.8 1.7 16.7 2.4 17.3 3 20.8 3.8 20.8 0.2 0 7.4 -4.1 15.9 -9.1z m66.5 -10 c1.5 -10.1 2.5 -18.6 2.3 -18.8 -0.5 -0.6 -36.5 18.4 -36.5 19.3 -0.2 1.2 29.2 18.6 30.6 18.2 0.5 -0.1 2.2 -8.5 3.6 -18.7z m-20 -15.5 c12.3 -6.4 22.8 -11.9 23.2 -12.4 0.4 -0.4 4.2 -29.7 8.3 -65.1 l7.5 -64.4 -7.1 -51 c-3.9 -28 -7.3 -52 -7.5 -53.1 -0.4 -1.6 -6.2 -5.1 -23.8 -14.2 l-23.4 -12.1 -23.5 12.1 -23.4 12.2 -7.2 51.5 c-4 28.4 -7.2 53.3 -7.2 55.3 0 3.5 13.7 126.4 14.3 128.2 0.3 0.9 44.5 24.3 46.3 24.5 0.6 0 11.2 -5.1 23.5 -11.5z m-155.9 -23 c13.4 -4.8 25.8 -9.2 27.6 -9.8 l3.3 -1.2 -32.1 -42.7 c-17.6 -23.5 -32.3 -42.7 -32.7 -42.7 -1 0 0.5 45.4 2.1 60.5 1.4 12.6 3.9 31.2 5.1 37.2 1.3 6.5 1.6 7.3 2 7.3 0.2 0 11.3 -3.9 24.7 -8.6z m290.2 4.9 c1.3 -6.4 3.7 -23.8 5.1 -37.3 1.6 -14.5 3.3 -61 2.3 -61 -1.2 0 -62.2 82.4 -61.3 82.7 8.1 3.2 50.4 18.1 51.7 18.2 1 0.1 1.8 -0.9 2.2 -2.6z m-212 -1.5 c-0.2 -1.3 -2.9 -24.6 -6 -51.8 -3.1 -27.2 -5.8 -49.7 -6 -49.9 -0.2 -0.2 -0.5 -0.2 -0.7 0 -1.2 1.5 -24.7 87.4 -24.1 87.6 0.5 0.2 8.8 4.1 18.4 8.7 9.6 4.6 17.8 8.2 18.1 8 0.4 -0.2 0.5 -1.4 0.3 -2.6z m146.6 -15.3 c0 -2.5 -24.9 -87.8 -25.4 -86.5 -0.5 1.7 -11.6 99.4 -11.6 102.7 0 2 1.4 1.5 18.5 -6.5 10.1 -4.8 18.4 -9.1 18.5 -9.7z m-175.1 -56.4 l14.4 -50.9 -13.8 -37.8 c-7.6 -20.9 -14.1 -38.5 -14.5 -39.2 -0.8 -1.5 -67.3 86.1 -67.4 88.8 -0.1 1.4 65.2 89.9 66.4 89.9 0.3 0.1 7 -22.8 14.9 -50.8z m215.1 6.5 c17.9 -23.9 32.5 -44.1 32.5 -45 0 -1.4 -65.4 -90.5 -66.5 -90.5 -0.3 -0.1 -6.9 17.6 -14.7 39.2 l-14.2 39.2 14 49 c16 56 14.6 51.5 15.6 51.4 0.4 0 15.4 -19.5 33.3 -43.3z m-266.5 -98.2 c17.1 -22.9 31.1 -42.1 31.3 -42.8 0.2 -1 -50.4 -19.4 -51.2 -18.5 -0.5 0.6 -5.4 27.3 -7 38.4 -2.9 19.8 -6.3 64.5 -4.9 64.5 0.4 0 14.7 -18.8 31.8 -41.6z m299.1 27.9 c-1.5 -25.9 -5.5 -59.4 -9.4 -79.8 -1.4 -7.2 -2.1 -8.9 -3.4 -8.7 -2.8 0.4 -47.3 16.3 -48.1 17.1 -0.7 0.7 59.8 83.1 61 83.1 0.3 0 0.2 -5.3 -0.1 -11.7z m-225 -45.5 c3.2 -23 5.5 -42 5.2 -42.4 -0.6 -0.5 -34.5 14.9 -36 16.4 -0.3 0.4 4.5 14.9 10.8 32.2 12.1 33.5 13.3 36.5 13.8 35.9 0.2 -0.2 3 -19.2 6.2 -42.1z m140.1 8.5 c6.7 -18.5 12.1 -33.9 11.8 -34.2 -0.7 -1.2 -35.5 -17.4 -36.1 -16.8 -0.7 0.6 10.8 84.7 11.6 84.7 0.3 0 6 -15.2 12.7 -33.7z m-187.2 -90.4 c-3.6 -26.6 -6.8 -48.6 -7.1 -48.9 -0.8 -0.7 -6.6 6 -11.6 13.4 -4.8 6.9 -14.4 26.9 -18.1 37.6 -2.8 7.9 -8.8 28.3 -8.4 28.6 0.9 0.6 51.3 18.1 51.5 17.9 0.2 -0.2 -2.6 -22 -6.3 -48.6z m34.5 39.6 c10.2 -4.8 18.8 -9 19.2 -9.4 1.2 -1.1 7.2 -46.1 6.2 -47 -1.2 -1.2 -55.9 -24.1 -57.5 -24.1 -0.6 0 -0.9 0.9 -0.6 2.3 0.3 1.2 3.1 21.4 6.3 45 3.7 27.2 6.2 42.6 6.9 42.3 0.5 -0.2 9.3 -4.3 19.5 -9.1z m173.1 -35.1 c3.3 -24.2 5.8 -44.4 5.7 -45.1 -0.3 -1 -56.1 21.6 -58.1 23.6 -0.8 0.8 4.9 43.7 6.2 46 0.7 1.3 39.2 20.2 39.9 19.6 0.2 -0.1 3 -20 6.3 -44.1z m25.7 35.7 c12.5 -4.4 23.4 -8.3 24.3 -8.6 1.9 -0.7 1.8 -1.5 -3.8 -21.5 -4.5 -16.2 -11.2 -33.2 -17.4 -44.5 -5.2 -9.4 -12.2 -18.5 -13.4 -17.3 -0.4 0.4 -3.6 21.5 -7.1 47 -3.5 25.5 -6.6 47.8 -6.9 49.6 -0.4 2 -0.2 3.2 0.5 3.2 0.6 0 11.3 -3.6 23.8 -7.9z m-151.7 -24.3 c9.9 -5.1 17.9 -9.5 17.9 -9.8 0 -0.8 -31.2 -19.1 -31.7 -18.6 -0.5 0.5 -5.2 32.1 -5.3 35.4 0 1.2 0.3 2.2 0.6 2.2 0.4 0 8.7 -4.2 18.5 -9.2z m70.3 0 c-0.7 -5.1 -1.8 -13.6 -2.5 -18.8 -0.7 -5.2 -1.4 -9.7 -1.5 -9.9 -0.4 -0.4 -32.4 18.2 -32.4 18.9 0.1 0.7 35.2 18.9 36.6 19 0.8 0 0.7 -2.7 -0.2 -9.2z m-25.1 -24.9 c9.4 -5.5 17.5 -10.4 17.9 -10.8 0.8 -0.7 -35.3 -56.3 -36.8 -56.8 -0.9 -0.3 -36.5 53.1 -37.1 55.7 -0.4 1.7 35.4 23.3 37.5 22.5 0.7 -0.2 9 -5 18.5 -10.6z m-70.2 -21.6 c-7 -17.8 -16.4 -40.9 -16.7 -41.5 -0.6 -0.9 -15.8 4.4 -24.9 8.7 -7 3.4 -18.5 10.5 -18.5 11.5 0 0.5 59.7 25.8 61.2 25.9 0.4 0.1 -0.1 -2 -1.1 -4.6z m133.7 -8.8 c17.1 -7.1 31.2 -13.3 31.2 -13.7 0 -1.3 -9.1 -7.6 -17.1 -11.7 -8.9 -4.7 -25.8 -10.6 -26.9 -9.4 -0.9 0.8 -20 46.7 -20 47.8 0 0.4 0.4 0.5 0.8 0.3 0.5 -0.1 14.9 -6.1 32 -13.3z m-29.9 -12.5 c6.4 -15.5 9.6 -24.7 9 -25.1 -3.1 -1.8 -37.2 -5.9 -50.3 -5.9 -4.3 0 -5.7 0.3 -5.3 1.3 0.8 2.1 35.8 54.9 36.1 54.6 0.2 -0.2 4.9 -11.4 10.5 -24.9z m-76.4 -2.6 c9.6 -14.6 17.5 -26.9 17.5 -27.4 0 -0.9 -1.7 -0.8 -20 1.1 -10.4 1 -29.3 4.3 -32.9 5.7 -1.7 0.6 -1.1 2.7 7.3 23.9 5 12.8 9.4 23.3 9.8 23.3 0.5 0 8.7 -12 18.3 -26.6z"/>
 </g>
<g opacity="0.5" transform="rotate(-45, 256.0, 256.0)">
  <text x="50%" y="50%" font-size="20" text-anchor="middle" fill="lightgray" dominant-baseline="middle">
    generated by vectorizer.io
  </text>
</g>
</svg>