<?xml version="1.0" encoding="utf-8"?>
<!DOCTYPE svg PUBLIC "-//W3C//DTD SVG 1.0//EN" "http://www.w3.org/TR/2001/REC-SVG-20010904/DTD/svg10.dtd">
<svg version="1.0" xmlns="http://www.w3.org/2000/svg" width="512px" height="512px" viewBox="0 0 512 512" preserveAspectRatio="xMidYMid meet">
 <g fill="#4f4941">
  <path d="M243.5 460.4 c-35.4 -27.4 -87.9 -77.2 -115 -108.9 -49.8 -58.4 -79.1 -111.5 -90.2 -163.2 -2.4 -11.4 -2.7 -14.9 -2.8 -32.3 0 -18.3 0.2 -20.1 2.8 -29.4 10.3 -37.1 38.1 -66 74.8 -78 37.7 -12.2 76.5 -4 114.6 24.2 10 7.5 22.8 19.9 27.4 26.9 l3.5 5.3 4.6 -6.3 c11.4 -15.4 32.5 -32.8 51.3 -42.2 20.8 -10.3 37.1 -14.1 57 -13.2 66.1 3.1 114.6 62.1 105.1 127.7 -8.2 55.8 -32.1 108.1 -74.5 163 -27.6 35.7 -65.8 73.8 -105.6 105.7 -17.6 14 -38.7 29.3 -40.5 29.3 -0.8 0 -6.4 -3.9 -12.5 -8.6z m31.5 -11.4 c13.6 -10.1 33.2 -26 42 -33.8 5.2 -4.7 5.4 -5.1 3.9 -6.8 -0.9 -1.1 -8.5 -10.4 -17 -20.7 -8.4 -10.4 -15.5 -18.5 -15.6 -18 -2.4 8 -27.6 87.9 -28 89.1 -0.5 1.4 -0.4 1.5 0.8 0.6 0.8 -0.6 7 -5.3 13.9 -10.4z m-36.1 -33.5 l-12.4 -42.7 -10.3 10.8 c-5.7 6 -13.3 14.2 -16.9 18.2 l-6.6 7.3 2.4 2.5 c6.6 7.2 54.9 47.7 55.7 46.9 0.3 -0.2 -5.1 -19.6 -11.9 -43z m31 -6.3 c7.3 -23.5 13.5 -43.2 13.8 -43.8 0.4 -1.1 -22.7 -17.4 -24.8 -17.4 -2.1 0 -28.1 20.1 -27.6 21.3 0.2 0.7 5.8 19.5 12.3 42 6.5 22.4 12.1 40.7 12.4 40.7 0.3 0 6.5 -19.2 13.9 -42.8z m76.4 -21.4 c15.7 -15.6 38.1 -39.8 37.4 -40.4 -0.1 -0.1 -20.5 3.9 -45.4 8.8 l-45.2 9.1 1.7 2.1 c11.9 14.9 31.8 38.6 32.3 38.6 0.4 0 9 -8.2 19.2 -18.2z m-140.7 -1.2 c9.1 -9.8 16.2 -18.1 15.7 -18.5 -1.1 -1.1 -86.5 -20.2 -87.1 -19.6 -1.2 1.1 52.3 56.9 54 56.3 0.4 -0.2 8.2 -8.3 17.4 -18.2z m16.8 -27.1 c-0.4 -1.5 -4.5 -15.9 -9.3 -32.2 l-8.6 -29.6 -34.4 -11.9 c-18.9 -6.5 -34.5 -11.7 -34.6 -11.6 -0.7 0.8 -3.3 66.4 -2.7 67 0.6 0.5 86.5 20.4 89.5 20.7 0.4 0.1 0.5 -1 0.1 -2.4z m22.5 -9.1 l9.4 -6.8 -20.4 -19.7 c-11.2 -10.9 -20.5 -19.4 -20.7 -18.9 -0.2 0.5 3.4 13.5 7.9 28.9 l8.2 28.1 3.1 -2.3 c1.7 -1.3 7.3 -5.5 12.5 -9.3z m95.4 -0.5 l45.7 -9.2 0 -3.1 c0 -5.5 -3.1 -63 -3.4 -63.3 -0.2 -0.3 -70.8 22.6 -71.4 23.1 -0.3 0.3 -19.2 60.3 -19.2 61.1 0 1 2.3 0.5 48.3 -8.6z m-52.4 1.9 c4.2 -13 14.1 -44.9 14.1 -45.4 0 -0.3 -8.6 7.6 -19 17.7 -10.5 10 -18.9 18.7 -18.7 19.2 0.3 0.9 19.7 14.6 20.9 14.7 0.3 0 1.6 -2.8 2.7 -6.2z m-159.9 -46.9 c1 -22.9 1.2 -33.3 0.5 -33.9 -2 -1.7 -71 -41.9 -71.3 -41.6 -0.2 0.2 1.8 5 4.3 10.7 8.7 19.6 24.5 46.5 39.9 67.9 10.1 14 23.9 31.1 24.5 30.5 0.3 -0.3 1.2 -15.4 2.1 -33.6z m155.2 11 l23.3 -22.6 23.1 -33.9 23.1 -33.9 0.7 -42.1 0.7 -42.1 -18.8 -4.6 c-10.3 -2.5 -31.4 -7.5 -46.9 -11.2 l-28 -6.8 -47.8 11.6 c-26.3 6.4 -48 11.8 -48.3 12.1 -0.3 0.2 -0.1 18.7 0.3 41.1 l0.7 40.6 21.8 33.7 21.9 33.7 24.2 23.7 c13.4 13.1 24.8 23.7 25.5 23.5 0.7 -0.1 11.7 -10.4 24.5 -22.8z m119.1 8.4 c17.1 -23.1 29.2 -42.5 39.7 -63.3 5.1 -10.1 13.2 -29.1 12.7 -29.6 -0.1 -0.2 -15 8.7 -33 19.8 l-32.7 20 0 4.1 c0 2.3 0.7 16.8 1.5 32.2 0.8 15.4 1.5 28.3 1.5 28.8 0 1.5 1.1 0.3 10.3 -12z m-201.9 -35.5 c-0.8 -1.3 -37.5 -58 -37.9 -58.6 -0.4 -0.4 -24.5 36.6 -24.5 37.6 0 0.7 59.8 22 62.3 22.1 0.5 0.1 0.5 -0.5 0.1 -1.1z m148.1 -9.8 c16.5 -5.5 30.6 -10.2 31.3 -10.5 0.8 -0.3 -3 -6.9 -11 -18.9 -6.8 -10.2 -12.5 -18.5 -12.8 -18.5 -0.5 0 -38.2 55.4 -38.8 57 -0.2 0.5 0 0.9 0.5 0.9 0.5 0 14.3 -4.5 30.8 -10z m-203 -33.8 c6.9 -10.7 12.5 -19.7 12.3 -20.1 -0.5 -1.4 -62.8 -64.5 -63.1 -64 -2.8 3.3 -34.7 62.3 -34.1 62.9 2.3 2.3 71 41.8 71.6 41.2 0.3 -0.4 6.3 -9.4 13.3 -20z m278.5 -2.1 c17.3 -10.7 31.6 -19.4 31.7 -19.5 0.2 -0.2 -7 -14.5 -16 -32 l-16.2 -31.7 -14 14.5 c-7.7 7.9 -22.1 22.8 -31.9 33.1 l-17.9 18.6 13.4 19.9 13.4 19.8 3 -1.7 c1.7 -1 17.2 -10.4 34.5 -21z m-352 -53.3 c9.6 -17.1 17.6 -31.5 17.8 -31.8 0.4 -1 -46.7 -21.4 -47.5 -20.6 -0.4 0.3 -1 4.8 -1.4 9.9 -1.3 16.6 1.8 38.8 8.6 61.2 1.9 6.3 3.5 11.7 3.5 12 0 2.5 3.9 -3.8 19 -30.7z m336.9 -23 c6.4 -6.6 9 -9.9 8 -10.3 -4.7 -1.7 -56.2 -13.5 -56.7 -13 -0.4 0.3 -0.8 17.4 -1 37.8 l-0.4 37.2 20.3 -21 c11.2 -11.5 24.6 -25.4 29.8 -30.7z m-250.3 14 c-0.3 -19.9 -0.8 -36.4 -1.1 -36.6 -0.7 -0.7 -56.6 13.1 -56.3 14 0.4 1.1 56.8 58.8 57.5 58.8 0.4 0 0.3 -16.3 -0.1 -36.2z m305.8 21.2 c5.5 -21.3 7 -31.7 7.1 -48.7 0 -8.3 -0.3 -15.4 -0.6 -15.7 -0.4 -0.4 -40.8 17.4 -42.6 18.8 -0.1 0.1 6.8 13.8 15.4 30.5 8.5 16.6 15.9 29.9 16.3 29.4 0.5 -0.4 2.5 -6.9 4.4 -14.3z m-336.6 -57.1 c22.7 -5.4 30.2 -7.6 31.9 -9.3 3.2 -3.1 27.3 -34 26.8 -34.4 -0.4 -0.5 -101.9 -25 -102.3 -24.7 -0.6 0.5 12.4 75.5 13.1 75.5 0.5 0 14.2 -3.2 30.5 -7.1z m-43.8 -32 c-3.3 -20 -6.2 -36.8 -6.4 -37.4 -0.5 -1.6 -14.3 13.2 -19.1 20.5 -2.3 3.6 -5.7 9.3 -7.4 12.7 -3.7 7.5 -8.5 21.7 -7.4 22.1 0.4 0.1 10.9 4.7 23.3 10.1 12.4 5.4 22.6 9.5 22.8 9.1 0.1 -0.4 -2.5 -17.1 -5.8 -37.1z m338 36.9 c0 -0.7 1.8 -17 4.1 -36.1 2.3 -19.1 3.9 -35 3.6 -35.4 -1.1 -1 -98.8 23.1 -98.3 24.3 0.2 0.6 6.2 8.3 13.2 17 7 8.7 12.9 16 13 16.2 0.4 0.6 59.8 15 62.2 15.1 1.2 0.1 2.2 -0.5 2.2 -1.1z m28 -9.8 c9.6 -4.4 17.9 -8.5 18.4 -9 2.8 -2.8 -7.9 -27.2 -17.3 -39.7 -5.9 -7.8 -13.7 -16.1 -14.4 -15.2 -0.4 0.4 -8.7 70.2 -8.7 72.6 0 1.6 0.1 1.5 22 -8.7z m-242 -14.5 c38.4 -9.3 38.5 -9.3 37.9 -10 -0.5 -0.5 -50.2 -12.5 -51.7 -12.5 -0.6 0 -5.2 5.3 -10.3 11.8 -5.1 6.4 -10.9 13.7 -12.8 16.1 -3.5 4.3 -3.5 4.4 -1.1 3.8 1.4 -0.4 18.5 -4.5 38 -9.2z m128.1 -7.4 c-6.7 -8.3 -12.7 -14.8 -13.4 -14.6 -0.6 0.2 -11.7 3 -24.5 6.1 -12.8 3.1 -23 5.9 -22.7 6.3 0.7 0.7 71.8 18 72.3 17.5 0.2 -0.1 -5.1 -7 -11.7 -15.3z m-44.2 -13 c15.6 -3.8 28.7 -7.3 29.1 -7.8 1.1 -1.1 18.1 -43.6 17.6 -44 -0.2 -0.2 -3.6 0.8 -7.7 2.3 -19 6.8 -35.1 17.4 -51.4 33.8 -7.1 7.2 -13.1 14.2 -14.8 17.4 -1.6 2.8 -2.5 5.2 -2 5.2 0.4 0 13.6 -3.1 29.2 -6.9z m-36.9 5.3 c0 -1.7 -8.3 -12.6 -13.9 -18.3 -14.8 -14.9 -33.6 -27.4 -52.4 -34.9 -5.9 -2.4 -11.2 -4.2 -11.6 -4 -0.7 0.2 17 42.2 18.3 43.6 0.6 0.5 55.6 14 57.9 14.1 0.9 0.1 1.7 -0.2 1.7 -0.5z m123.8 -26.4 c27.3 -6.6 50.3 -12.3 51.1 -12.6 2.1 -0.7 -6.5 -6.6 -17.5 -12 -14.6 -7.1 -26 -9.7 -43.9 -9.8 -8.2 -0.1 -16.6 0.2 -18.7 0.7 l-3.6 0.8 -9 22.4 c-5 12.4 -8.8 22.5 -8.5 22.5 0.2 0 22.8 -5.4 50.1 -12z m-191.5 9.3 c-0.4 -1 -4.6 -10.8 -9.4 -21.8 -6.7 -15.2 -9.3 -20.1 -11.1 -20.9 -1.3 -0.5 -9.5 -1 -18.3 -1 -17.9 0 -24.4 1.1 -39.3 6.7 -9.2 3.4 -25.7 12.6 -24.6 13.6 0.5 0.6 99.7 24.9 102.1 25 0.8 0.1 1 -0.6 0.6 -1.6z"/>
 </g>
</svg>