<?xml version="1.0" encoding="utf-8"?>
<!DOCTYPE svg PUBLIC "-//W3C//DTD SVG 1.0//EN" "http://www.w3.org/TR/2001/REC-SVG-20010904/DTD/svg10.dtd">
<svg version="1.0" xmlns="http://www.w3.org/2000/svg" width="512px" height="512px" viewBox="0 0 512 512" preserveAspectRatio="xMidYMid meet">
 <g fill="#4f4941">
  <path d="M249 472.2 c-33.4 -29.9 -70.5 -82.6 -90.5 -128.6 -19.9 -45.7 -25.8 -86.6 -18 -125.2 11 -54.5 47.5 -115.9 101.7 -170.9 l13.8 -14 14.8 15 c51.1 52.1 87.1 111.1 99.2 162.9 10 42.4 4.6 84.3 -17.5 134.4 -16.6 37.6 -46.3 82.1 -74.9 112.2 -8.2 8.5 -20.5 20 -21.6 20 -0.3 0 -3.5 -2.6 -7 -5.8z m-4.1 -29.4 c-3.3 -12.8 -6.1 -23.7 -6.2 -24.2 -0.2 -0.5 -3.8 3.3 -8 8.4 l-7.7 9.2 3.2 4.1 c3 3.8 23.7 25.7 24.4 25.7 0.1 0 -2.4 -10.5 -5.7 -23.2z m42 -4.1 c1.3 -2.5 1.1 -2.9 -5.9 -11.2 -4 -4.7 -7.5 -8.4 -7.7 -8.2 -0.3 0.4 -7.6 28.1 -11.9 45.2 -0.6 2.4 23.5 -22 25.5 -25.8z m-24.5 -1.3 c3.1 -12.1 5.6 -22.8 5.6 -23.8 0 -1.6 -10.2 -14.7 -12 -15.4 -1.2 -0.4 -13.1 14 -12.7 15.3 0.2 0.5 3 11.4 6.3 24.2 3.2 12.8 6.2 22.9 6.5 22.5 0.4 -0.4 3.2 -10.6 6.3 -22.8z m43.8 -23.4 c8.8 -12.3 23.8 -35.7 23.8 -37.2 0 -0.7 -49.8 32.2 -53.2 35.1 -0.5 0.4 2.9 5.1 7.4 10.5 l8.2 9.8 2.8 -3.3 c1.5 -1.9 6.5 -8.6 11 -14.9z m-78.8 8.1 c4.2 -4.9 7.6 -9.4 7.6 -9.9 0 -0.7 -35.5 -25.4 -51.4 -35.7 l-3.1 -2 3.4 6 c8 14.3 33.3 50.5 35.2 50.5 0.3 0 4.1 -4 8.3 -8.9z m20.5 -24.5 l4 -4.9 -6.2 -7.5 c-3.4 -4.1 -7.9 -9.3 -9.9 -11.6 l-3.7 -4.1 4.4 17.2 c2.5 9.5 4.5 17.6 4.5 18 0 0.9 1.8 -0.9 6.9 -7.1z m27.4 -10.7 c2.5 -10.3 4 -17.6 3.2 -16.8 -3.5 3.8 -18.5 22 -18.5 22.5 0 0.9 9.4 12.4 10.1 12.4 0.4 0 2.7 -8.2 5.2 -18.1z m-45.8 -4 c-2.9 -11.3 -5.6 -21.6 -6 -22.8 -0.8 -2.6 -34.5 -43.5 -35.2 -42.7 -0.5 0.5 -12.3 46.9 -12 47.2 1.3 1.2 58.1 39.3 58.3 39.1 0.1 -0.1 -2.1 -9.5 -5.1 -20.8z m77.2 1.9 c15.7 -10.5 28.7 -19.7 29 -20.4 0.3 -0.9 -8.5 -37.3 -11.3 -46.6 -0.4 -1.3 -4.8 3.3 -17.1 17.9 -9 10.8 -17.1 20.6 -17.8 21.7 -0.7 1.2 -3.6 11.3 -6.5 22.6 -2.8 11.3 -5.3 21.3 -5.6 22.3 -0.3 0.9 -0.2 1.7 0.1 1.7 0.4 0 13.5 -8.6 29.2 -19.2z m-36.2 -14.1 l12.9 -15.5 12.7 -49.5 12.7 -49.6 -12.6 -49.6 -12.7 -49.7 -13.2 -15.6 c-7.3 -8.7 -13.8 -15.7 -14.5 -15.7 -0.6 0 -7 6.9 -14.1 15.3 l-12.9 15.3 -12.8 50.4 -12.8 50.3 12.7 49.4 12.6 49.4 13.5 16.2 c8.9 10.8 13.8 15.8 14.5 15.2 0.6 -0.5 6.9 -7.8 14 -16.3z m-93.1 -35.4 c3.1 -12.2 5.6 -22.9 5.6 -23.8 0 -1.3 -39 -48.8 -39.6 -48.2 -0.5 0.5 1.8 17.9 3.6 26.8 2.9 14.1 10.3 36.2 17.7 53.2 3.6 8.1 6.7 14.6 6.9 14.5 0.1 -0.2 2.8 -10.3 5.8 -22.5z m171.5 4.3 c7 -16.7 13.4 -36.2 16.1 -49.5 1.8 -9 4.1 -26.3 3.6 -26.8 -0.1 -0.2 -9.2 10.4 -20.1 23.4 l-19.9 23.7 6 23.3 c4.9 19.4 6.1 23 7.1 21.7 0.7 -0.9 3.9 -8 7.2 -15.8z m-138.5 -31.3 c-5.1 -20.3 -9.4 -37.2 -9.5 -37.8 -0.1 -2.3 -2.1 4.1 -6.4 20.8 -3.9 15 -4.4 18 -3.3 19.5 1.4 2 28.2 34.2 28.5 34.2 0 0 -4.1 -16.5 -9.3 -36.7z m95.3 20.5 c7 -8.4 13.6 -16.3 14.7 -17.6 1.8 -2.3 1.8 -2.5 -1.8 -17 -2.1 -8.1 -4.4 -17.2 -5.3 -20.2 l-1.6 -5.5 -2.8 11 c-1.6 6.1 -6 23 -9.7 37.8 -3.8 14.7 -6.8 26.7 -6.6 26.7 0.2 0 6.1 -6.8 13.1 -15.2z m-114.3 -48.8 l5.9 -23 -5.8 -22.8 c-3.2 -12.5 -6.1 -23.3 -6.5 -24 -0.4 -0.9 -7.3 6.5 -20.3 21.8 -17 20.1 -19.5 23.5 -18.4 25 2.8 3.9 38.2 46 38.7 46 0.3 0 3.2 -10.4 6.4 -23z m156 -0.9 c10.8 -12.9 19.5 -23.8 19.4 -24.3 -0.2 -0.4 -9.1 -11.1 -19.8 -23.7 -15.4 -18.1 -19.6 -22.5 -20.2 -21.1 -0.4 1 -3.2 11.9 -6.3 24.2 l-5.7 22.4 5.7 21.9 c6.2 24.2 6.4 25 6.9 24.4 0.2 -0.2 9.2 -10.9 20 -23.8z m-185.4 -52.8 c10.1 -12 18.9 -22.5 19.7 -23.4 1.1 -1.3 0.4 -5.2 -4.9 -25.8 l-6.2 -24.3 -3.4 6.8 c-9.6 18.9 -17.4 41.4 -21.1 60.8 -2.1 10.8 -3.8 27.6 -2.9 27.6 0.3 0 8.8 -9.8 18.8 -21.7z m206.6 12.5 c-2.1 -24.3 -11 -53.9 -23.8 -79.2 l-3.4 -6.8 -6.3 24.2 -6.2 24.1 4.9 5.7 c2.7 3.1 11.5 13.5 19.6 23 8.1 9.4 15 17.2 15.3 17.2 0.3 0 0.2 -3.7 -0.1 -8.2z m-158.2 -33.7 c5.3 -20.6 9.4 -37.6 9.3 -37.7 -0.7 -0.7 -29.7 34.9 -29.7 36.4 0 1.5 7.9 33 9.7 38.7 0.3 1.1 0.8 1.6 0.9 1 0.2 -0.5 4.6 -17.9 9.8 -38.4z m107 17.9 c2.5 -10.2 4.6 -19.1 4.6 -19.8 0 -0.8 -6 -8.4 -13.2 -16.9 -7.3 -8.5 -14.1 -16.5 -15 -17.6 -1.2 -1.5 1.4 10.2 8 36 5.3 21.1 9.9 37.9 10.3 37.5 0.3 -0.4 2.7 -9 5.3 -19.2z m-111.5 -48.6 l17.4 -20.7 5.8 -22.5 c3.2 -12.4 5.7 -22.7 5.6 -22.8 -0.7 -0.7 -58.7 39.3 -58.7 40.5 0 2.5 11.3 46.1 11.9 46.1 0.4 0 8.5 -9.3 18 -20.6z m124.4 -2.1 c3.2 -12.6 5.8 -23.3 5.7 -24 0 -1 -58 -40.7 -58.6 -40 -0.1 0.1 2.5 10.4 5.6 23 l5.8 22.8 5.6 6.5 c3.1 3.7 10.9 12.9 17.4 20.5 6.4 7.6 11.9 13.9 12.2 13.9 0.3 0 3.1 -10.2 6.3 -22.7z m-87.9 -41.2 c9.6 -11.3 9.7 -11.4 7.8 -13.5 -1 -1.2 -3.4 -4 -5.4 -6.2 l-3.6 -4.2 -4.5 18 c-2.5 9.8 -4.4 17.8 -4.2 17.6 0.1 -0.2 4.6 -5.4 9.9 -11.7z m33.1 -6 c-2.4 -9.6 -4.6 -17.6 -4.8 -17.8 -0.6 -0.6 -10.8 11.8 -10.5 12.8 0.5 1.2 19.1 22.9 19.4 22.6 0.2 -0.2 -1.7 -8.1 -4.1 -17.6z m-67.9 -5.7 c15.1 -10.2 27.4 -19 27.2 -19.4 -0.6 -1.6 -14.9 -18 -15.7 -18 -1.8 0 -24.7 30.9 -33.9 45.8 -6.5 10.3 -6.4 10.2 -5.8 10.2 0.3 0 13 -8.4 28.2 -18.6z m123.3 14.9 c-8 -13.4 -26 -38.7 -35.6 -50.2 l-2.9 -3.3 -7.8 9.1 c-4.2 5 -7.6 9.5 -7.4 10.1 0.3 0.8 54.7 38 55.6 38 0.2 0 -0.6 -1.7 -1.9 -3.7z m-64.4 -31.8 l2.4 -3.1 -6.1 -24.2 c-3.4 -13.3 -6.4 -24.2 -6.7 -24.2 -0.4 0 -3.5 11 -6.9 24.5 l-6.3 24.6 6.3 7.5 6.3 7.5 4.3 -4.8 c2.4 -2.6 5.4 -6.2 6.7 -7.8z m-22.2 -31.1 c3.2 -12.5 5.6 -22.8 5.4 -23.1 -0.5 -0.4 -16.6 16.4 -22.7 23.7 l-4 4.8 7.2 8.6 c4 4.7 7.5 8.6 7.8 8.6 0.3 0 3.1 -10.2 6.3 -22.6z m36.6 14.2 c3.9 -4.7 7.1 -8.9 7.1 -9.4 0 -1 -17.8 -20.9 -23 -25.7 -2 -1.9 -3.1 -2.4 -2.9 -1.4 1 4.1 11.4 44.9 11.5 44.9 0.1 0 3.4 -3.8 7.3 -8.4z"/>
 </g>
<g opacity="0.5" transform="rotate(-45, 256.0, 256.0)">
  <text x="50%" y="50%" font-size="20" text-anchor="middle" fill="lightgray" dominant-baseline="middle">
    generated by vectorizer.io
  </text>
</g>
</svg>