<?xml version="1.0" encoding="utf-8"?>
<svg width="26" height="30" viewBox="0 0 26 30" fill="none" xmlns="http://www.w3.org/2000/svg">
                        <path d="M1 22.0135C1 22.0677 1.0537 22.0677 1 22.0135L12.975 29C13.0287 29 13.0287 29 13.0824 29L25.0574 22.0135C25.0574 22.0135 25.1111 21.9594 25.1111 21.9052V8.04062C25.1111 7.98646 25.1111 7.98646 25.0574 7.9323L13.0824 1H12.975L1.0537 7.98646C1 7.98646 1 8.04062 1 8.04062V22.0135ZM13.0824 1.27079L14.9619 4.62863L16.8951 7.98646H9.21603L11.1492 4.62863L13.0824 1.27079ZM13.0824 28.7834L11.1492 25.4255L9.21603 22.0677H16.8414L14.9619 25.4255L13.0824 28.7834ZM1.1611 8.41973L2.39619 10.5861L4.97377 15.0271L2.02029 20.2263L1.2148 21.6344V8.41973H1.1611ZM24.95 8.41973V21.6344L21.7817 16.0561L21.191 15.0271L21.7817 13.9981L24.95 8.41973ZM9.05494 8.25725L12.8676 14.9188H5.24227L8.14204 9.82785L9.05494 8.25725ZM8.14204 20.2263L5.24227 15.1354H12.8676L9.05494 21.7969L8.14204 20.2263ZM17.0562 21.7969L13.2435 15.1354H20.8688L17.9691 20.2263L17.0562 21.7969ZM17.9691 9.82785L20.8688 14.9188H13.2435L17.0562 8.25725L17.9691 9.82785ZM13.0824 15.1896L16.8951 21.8511H9.21603L13.0824 15.1896ZM13.0824 14.8104L9.26973 8.14894H16.8951L13.0824 14.8104ZM3.14798 18.5474L5.08117 15.1896L7.01435 18.5474L8.94754 21.9052H1.2685L3.14798 18.5474ZM19.1505 18.5474L21.0836 15.1896L23.0168 18.5474L24.95 21.9052H17.2173L19.1505 18.5474ZM22.9631 11.5068L21.0299 14.8646L18.9357 11.1818L17.2173 8.14894H24.8426L22.9631 11.5068ZM7.01435 11.5068L5.08117 14.8646L3.14798 11.5068L1.2148 8.14894H8.84014L7.01435 11.5068ZM1.4296 22.0677H9.00124L9.59193 23.0967L12.8139 28.675L1.4296 22.0677ZM13.2972 28.675L16.4655 23.0967L17.0562 22.0677H24.6278L13.2972 28.675ZM24.6815 7.9323H17.1099L16.5192 6.90329L13.2972 1.32495L24.6815 7.9323ZM12.8139 1.32495L9.59193 6.90329L9.00124 7.9323H1.4296L12.8139 1.32495Z" fill="#555" stroke="#555" stroke-width="0.4" stroke-linecap="round" stroke-linejoin="round"></path>
                      </svg>