<?xml version="1.0" encoding="utf-8"?>
<!DOCTYPE svg PUBLIC "-//W3C//DTD SVG 1.0//EN" "http://www.w3.org/TR/2001/REC-SVG-20010904/DTD/svg10.dtd">
<svg version="1.0" xmlns="http://www.w3.org/2000/svg" width="512px" height="512px" viewBox="0 0 512 512" preserveAspectRatio="xMidYMid meet">
 <g fill="#4f4941">
  <path d="M236.5 505.6 c-30.6 -5 -59.1 -20.3 -84 -45.1 -40 -39.9 -66.1 -98.3 -74.1 -166.5 -2.4 -19.7 -2.4 -56.3 0 -76 16.1 -136.3 105.4 -229.2 202.3 -210.5 60.6 11.6 114 67.2 139.2 144.8 11.2 34.5 16.1 66.2 16.1 104.4 0 124.2 -64.8 228.5 -154 247.9 -10 2.2 -35.1 2.7 -45.5 1z m38.5 -7.1 c12.2 -2 24.3 -5.7 35 -10.6 8.9 -4.2 25 -13.9 25 -15.1 0 -1.6 -39.3 -51.8 -40 -51.1 -0.5 0.6 -28.4 66.1 -32.7 77.1 -0.7 1.6 1.1 1.5 12.7 -0.3z m-28.3 -0.7 c-6.5 -16 -32 -75.5 -32.6 -76 -0.4 -0.5 -9.4 10.5 -20 24.3 -10.7 13.8 -19 25.4 -18.5 25.8 16.6 12.1 38.4 22 56.3 25.6 8.9 1.8 15.5 1.9 14.8 0.3z m26.2 -41.7 c9.4 -22.3 16.9 -40.6 16.8 -40.8 -0.9 -0.9 -34.1 -16.3 -35.1 -16.3 -0.7 0 -8.8 3.6 -18.1 8 -13.3 6.5 -16.6 8.4 -16.3 9.8 1.4 5.2 34.3 81.1 34.9 80.5 0.4 -0.5 8.4 -19 17.8 -41.2z m81.9 0.2 c6.5 -6.5 15.4 -16.6 19.7 -22.5 8.1 -10.8 15.1 -21.6 14.4 -22.2 -0.6 -0.5 -85.9 5 -86.4 5.6 -0.8 0.8 37.8 50.8 39.3 50.8 0.7 0 6.5 -5.3 13 -11.7z m-165.3 -15.1 c9.7 -12.8 17.4 -23.6 17.1 -23.9 -0.9 -1 -81.4 -5.8 -82.2 -5 -0.9 0.9 10.3 17.7 18.3 27.7 3.4 4.1 10.7 11.9 16.3 17.4 8.5 8.2 10.4 9.6 11.4 8.5 0.7 -0.8 9.3 -11.9 19.1 -24.7z m20.4 -33.9 c0 -1.6 -1.9 -13.8 -4.3 -27.3 l-4.2 -24.5 -21.9 -15.3 c-12.1 -8.3 -22.4 -15.1 -22.8 -14.9 -1.2 0.4 -31.8 77.9 -31.1 78.7 0.3 0.3 18.9 1.7 41.2 3.1 22.4 1.4 41.3 2.7 42 2.8 0.7 0 1.2 -1 1.1 -2.6z m134.9 -0.5 c23.1 -1.3 39.2 -2.6 39.2 -3.2 0 -2 -30.5 -78.6 -31.3 -78.6 -0.5 0 -10.7 6.8 -22.8 15.1 -14.5 10 -22.1 15.9 -22.4 17.3 -0.9 3.9 -8.5 50 -8.5 51.3 0 1 0.9 1.2 3.3 0.9 1.7 -0.3 20.9 -1.5 42.5 -2.8z m-113.5 -5 c7.3 -3.4 13.6 -6.5 14 -6.9 0.9 -0.7 -33 -30.9 -34.6 -30.9 -0.5 0 -0.7 1 -0.4 2.3 0.3 1.2 2 11.1 3.8 22 1.8 10.8 3.4 19.7 3.6 19.7 0.3 0 6.4 -2.8 13.6 -6.2z m60.7 5.5 c0 -0.4 1.6 -10.1 3.6 -21.6 1.9 -11.5 3.3 -21.2 3 -21.5 -0.4 -0.3 -1.9 0.6 -3.4 1.9 -1.5 1.4 -9.4 8.4 -17.6 15.5 l-14.9 12.9 13.9 6.7 c14.2 6.8 15.4 7.3 15.4 6.1z m107.5 -14.5 c3.2 -6.8 7.5 -16.9 9.6 -22.5 4.9 -13 10.9 -33.6 10.1 -34.4 -1 -0.9 -59.3 -16.1 -59.8 -15.7 -0.2 0.3 5.7 16 13.2 34.9 7.4 18.9 14.9 37.9 16.5 42.2 1.7 4.2 3.4 7.7 3.8 7.7 0.5 0 3.4 -5.5 6.6 -12.2z m-265 -31.8 c8.6 -22.1 15.5 -40.4 15.1 -40.7 -0.7 -0.7 -54.6 13.5 -56 14.7 -1.1 1.1 5.2 23.1 10.7 37.3 5.4 13.6 12.5 28.7 13.6 28.7 0.4 0 7.9 -18 16.6 -40z m145.9 8.8 l20.9 -18.3 14.2 -51.8 14.2 -51.7 -14.1 -43.5 -14.2 -43.5 -22.9 -20 c-12.7 -11 -23.5 -19.9 -24.2 -19.8 -0.6 0.2 -10.5 8.4 -21.9 18.3 -11.4 9.9 -21.6 18.7 -22.6 19.5 -2 1.6 -29.8 85.4 -29.8 89.5 0.1 1.1 6.3 24.7 13.9 52.5 l13.8 50.5 23.3 20.2 23.3 20.2 2.6 -1.9 c1.4 -1.1 12 -10.2 23.5 -20.2z m-82.4 -26.8 c0 -0.9 -15.7 -58.9 -20.6 -75.9 -0.8 -2.9 -1.7 -5.1 -2 -4.9 -0.2 0.3 -4.1 12.8 -8.5 27.9 -7.7 26 -8 27.4 -6.2 28.6 1 0.7 9.5 6.6 18.8 13.2 9.4 6.6 17.3 12 17.8 12 0.4 0.1 0.7 -0.4 0.7 -0.9z m133.1 -12.1 c10.4 -7.3 18.9 -13.6 18.9 -14.1 0 -1.3 -15.1 -52.1 -16 -53.8 -0.6 -1 -1.2 -0.1 -2 3 -0.6 2.5 -5.6 20.7 -11.1 40.6 -10.3 37.7 -10.3 37.4 -9.3 37.4 0.3 0 9.1 -5.9 19.5 -13.1z m92.2 -11.1 c3 -15.9 4.6 -29.8 5.3 -44.2 0.6 -11.8 0.5 -13.8 -0.7 -13.1 -4.2 2.6 -61 50.8 -60.4 51.3 0.4 0.5 49.3 14.2 53.6 15.1 0.3 0 1.3 -4.1 2.2 -9.1z m-305.6 1.1 c13.4 -3.5 24.3 -6.8 24.2 -7.4 0 -1 -56 -47.7 -57.9 -48.3 -2.2 -0.8 2.6 45.5 6.1 59.1 0.6 2.3 1.5 3.7 2.2 3.4 0.7 -0.2 12.1 -3.3 25.4 -6.8z m45 -41.2 l9.5 -31.7 -9.4 -24 c-5.1 -13.2 -9.6 -23.9 -10 -23.7 -1.9 0.6 -67.7 56.1 -67.2 56.6 3.8 3.9 66.1 54.9 66.8 54.7 0.5 -0.1 5.1 -14.5 10.3 -31.9z m228.4 4.4 c31.6 -26.3 32.9 -27.5 31.2 -29.2 -6.9 -6.7 -65.8 -54.7 -66.4 -54.1 -0.4 0.4 -4.8 11.2 -9.8 24 l-9.1 23.3 8.6 28.7 c10.8 36.6 10.4 35.4 11.5 35 0.5 -0.2 15.8 -12.6 34 -27.7z m36.9 -57.1 c-1.1 -12.4 -5.5 -41.8 -6.4 -42.7 -0.2 -0.2 -12.3 2.8 -26.9 6.6 -14.7 3.9 -26.9 7.1 -27.2 7.1 -1.9 0 2.7 4.1 30.5 27.4 l30.5 25.5 0.3 -5.2 c0.2 -2.9 -0.1 -11.3 -0.8 -18.7z m-311.6 -5.9 c21.3 -17.9 26.4 -22.6 24.9 -23.2 -5.4 -2 -49.4 -13.1 -49.9 -12.6 -2 1.9 -6.3 31.6 -7.1 49.2 l-0.6 14 2.9 -2.5 c1.6 -1.4 15 -12.6 29.8 -24.9z m68.7 -12.9 c4.4 -13.6 9 -28 10.4 -32 1.8 -5.5 2.1 -7.2 1 -6.9 -1.6 0.7 -34.4 23.3 -36.2 25 -0.9 0.9 0.5 5.4 6.1 19.7 3.9 10.2 7.5 19.4 8 20.5 0.7 1.9 0.8 1.9 1.7 0.2 0.6 -0.9 4.6 -12.8 9 -26.5z m157.4 6.5 c4.2 -10.9 7.6 -20 7.4 -20.1 -2.9 -2.6 -37.2 -25.6 -37.6 -25.3 -0.3 0.3 0.2 2.7 1 5.4 14.7 45.6 20 61.4 20.7 60.7 0.4 -0.5 4.2 -9.8 8.5 -20.7z m-192.8 -23.8 c-1.1 -4.3 -31.2 -79.9 -31.8 -79.9 -1 0 -10.5 20.8 -14.7 32.2 -4.6 12.4 -10.8 33.5 -10 34.3 0.5 0.5 53.7 15 56.2 15.4 0.4 0 0.6 -0.9 0.3 -2z m241 -6.4 c15.4 -4.1 28.3 -7.5 28.6 -7.5 2 0 -10.2 -36.4 -18 -53.8 -9.1 -20.1 -6.4 -22.8 -25.1 25 -8.9 22.7 -16.4 42.1 -16.8 43.2 -0.6 1.5 -0.3 1.7 1.2 1.3 1 -0.4 14.6 -4 30.1 -8.2z m-210.7 -12.7 l21.6 -14.9 4.3 -26.5 c2.4 -14.5 4.1 -26.7 3.8 -27 -0.6 -0.7 -83.7 4.2 -84.4 4.9 -0.2 0.2 5.8 15.9 13.3 34.8 7.5 18.9 14.5 36.8 15.6 39.7 1.2 3.4 2.4 5 3.1 4.6 0.7 -0.4 10.9 -7.4 22.7 -15.6z m188.9 -24.1 c8.4 -21.4 15.1 -39 14.8 -39.3 -0.7 -0.7 -83.7 -5.7 -84.4 -5.1 -1.1 1.1 7.8 51.1 9.5 53.4 2.3 3 43.5 31.5 44.2 30.5 0.4 -0.4 7.5 -18.2 15.9 -39.5z m-140 -14 c9.4 -8.2 17.1 -15.2 17.1 -15.5 -0.1 -0.8 -26.1 -13.2 -27.6 -13.2 -0.5 0 -2.4 8.9 -4.2 19.8 -1.8 10.8 -3.5 20.8 -3.9 22.1 -0.4 1.5 -0.2 2.2 0.5 2 0.5 -0.2 8.7 -7.1 18.1 -15.2z m66.6 -7.8 c-2 -11.7 -3.7 -21.4 -3.8 -21.5 -0.4 -0.5 -28.6 13.1 -28.4 13.7 0.5 1.5 35.2 30.9 35.5 30.1 0.1 -0.5 -1.3 -10.5 -3.3 -22.3z m-23.3 -20.1 c9.5 -4.5 17.4 -8.2 17.6 -8.4 0.3 -0.2 -33.7 -81.4 -34.5 -82.3 -0.2 -0.2 -0.5 -0.2 -0.8 0.1 -0.9 0.9 -34.5 80.2 -34.5 81.4 0 0.9 31.9 17.1 34.2 17.3 0.4 0.1 8.5 -3.6 18 -8.1z m-106.2 -7.4 c22.2 -1.4 40.7 -2.7 40.9 -2.9 0.2 -0.3 -0.1 -1 -0.6 -1.7 -0.5 -0.7 -8.9 -11.8 -18.7 -24.5 -9.7 -12.8 -18.1 -23.3 -18.7 -23.3 -1.5 0 -16.3 14.6 -23.8 23.4 -6.4 7.6 -18.4 24.4 -21 29.4 -0.9 1.7 -0.9 2.2 0.1 2.2 0.7 0 19.5 -1.2 41.8 -2.6z m223 1.9 c0 -0.5 -2.3 -4.4 -5.1 -8.8 -9.7 -15.2 -22.8 -30.7 -34.8 -41.2 l-7.5 -6.6 -2.8 3.4 c-6.6 7.8 -37 48 -36.6 48.4 0.4 0.4 71.2 5.1 80.6 5.4 3.4 0 6.2 -0.2 6.2 -0.6z m-158.8 -46.6 c8.6 -20.4 16 -38 16.3 -38.9 0.6 -1.5 0.1 -1.8 -2.8 -1.8 -9.9 0 -29.2 5.4 -43.3 12.1 -7.7 3.6 -25.4 14.7 -25.4 15.9 0 0.9 38.1 50 38.8 50 0.4 0 7.8 -16.8 16.4 -37.3z m85 12.5 c10 -13 18.6 -24.3 19.1 -24.9 1.5 -2 -0.7 -3.9 -11.7 -10.4 -12.5 -7.4 -27.1 -13.1 -40.1 -15.7 -11 -2.3 -20.5 -3.4 -20.5 -2.5 0 0.4 23.6 56.6 30.9 73.6 1.1 2.7 2.5 4.6 3.1 4.2 0.5 -0.3 9.2 -11.3 19.2 -24.3z"/>
 </g>

</svg>