<?xml version="1.0" encoding="utf-8"?>
<!DOCTYPE svg PUBLIC "-//W3C//DTD SVG 1.0//EN" "http://www.w3.org/TR/2001/REC-SVG-20010904/DTD/svg10.dtd">
<svg version="1.0" xmlns="http://www.w3.org/2000/svg" width="512px" height="512px" viewBox="0 0 512 512" preserveAspectRatio="xMidYMid meet">
 <g fill="#4f4941">
  <path d="M234.9 475.5 c-27 -4.4 -50.4 -15.1 -70.9 -32.3 -15.6 -13.1 -26.7 -27.4 -36.1 -46.7 -6.4 -13.2 -9.8 -23.9 -13.1 -41.5 -3 -15.4 -3.2 -49.5 -0.4 -66.8 8.2 -52.5 32.2 -108.2 72.6 -168.7 17.7 -26.5 41.4 -56.7 62 -79.2 l5.8 -6.4 9 9.8 c13.4 14.5 25.9 29.7 40.7 49.5 72.1 96 104.7 186.8 93 258.7 -2.9 17.9 -12 39.1 -25 58.6 -23.6 35.5 -52.9 56.3 -90 64 -11 2.3 -36.5 2.9 -47.6 1z m14.1 -4.9 c0 -0.6 -23.2 -41.1 -24.1 -42.1 -1 -1 -30.1 27.3 -29.4 28.6 0.9 1.3 18 7.7 26.5 9.8 11.6 2.9 27 5 27 3.7z m27 -1.1 c13.1 -2 34 -8.4 34 -10.5 0 -0.4 -5.7 -7.6 -12.6 -16 -10.4 -12.5 -12.8 -15 -13.9 -13.9 -1.2 1.4 -24.5 40.7 -24.5 41.5 0 0.8 7.7 0.4 17 -1.1z m-10.3 -21.8 l11.2 -19.2 -22.1 -0.3 c-12.1 -0.1 -22.3 -0.1 -22.5 0.1 -0.4 0.5 21 38.6 21.7 38.6 0.3 0 5.5 -8.6 11.7 -19.2z m58.7 3.8 c11.3 -7.4 29.9 -23.6 28.5 -24.9 -0.2 -0.2 -14 -0.1 -30.6 0.3 l-30.2 0.6 11.7 14.3 c6.4 7.8 12.1 14.2 12.7 14.2 0.6 0 4.2 -2 7.9 -4.5z m-121.9 -10.5 l13 -13 -29.3 0 c-16.2 0 -29.2 0.4 -29.2 0.9 0 2 29.3 25 32 25.1 0.3 0 6.4 -5.8 13.5 -13z m18.5 -19.7 c0 -0.5 -3.9 -10.3 -8.7 -22 l-8.8 -21.2 -16.8 -7.2 c-9.2 -3.9 -17 -6.9 -17.3 -6.6 -0.7 0.7 -15.4 54.6 -15.4 56.4 0 1 7.4 1.3 33.5 1.3 18.4 0 33.5 -0.3 33.5 -0.7z m56.9 0 c0 -0.5 -5.5 -5.4 -12.1 -11 l-12.1 -10.3 -9.6 8.7 c-5.3 4.8 -10.7 9.7 -12.1 11 l-2.5 2.3 24.3 0 c13.3 0 24.2 -0.3 24.1 -0.7z m73.2 -1.1 l3.6 -0.7 -7.3 -27.9 c-4 -15.3 -7.4 -28 -7.6 -28.1 -0.2 -0.2 -8.4 3.1 -18.3 7.3 l-17.9 7.7 -7.8 20.5 c-4.3 11.3 -7.8 20.8 -7.8 21.3 0 0.9 58.2 0.8 63.1 -0.1z m-195.2 -30 c4.1 -15.2 7.4 -28 7.5 -28.3 0.1 -0.4 -10 -7.9 -22.4 -16.7 -15.7 -11.1 -22.6 -15.5 -22.8 -14.5 -0.6 2.4 1.8 21.1 3.9 31 2.6 12.2 6.7 24 11.8 34.2 4.3 8.5 12.9 22.1 14 22.1 0.3 0 3.9 -12.5 8 -27.8z m211.4 18 c12.4 -18.6 21.6 -40 24 -55.7 2 -13 3.1 -23.5 2.4 -23.5 -0.3 0 -11.2 7 -24.1 15.5 -14.3 9.5 -23.6 16.2 -23.6 17.1 0 3.4 14.4 56.4 15.1 55.7 0.4 -0.4 3.2 -4.5 6.2 -9.1z m-126.5 -4.1 c4 -3.5 6.9 -6.8 6.5 -7.2 -1.5 -1.2 -34.6 -14.9 -35.1 -14.4 -0.4 0.4 2.9 8.7 12 30.3 l1.8 4.4 3.8 -3.3 c2 -1.8 7 -6.2 11 -9.8z m48.7 -4.7 c3.6 -9.2 6.3 -16.9 6.1 -17.1 -0.5 -0.5 -33.8 13.5 -34.9 14.6 -0.5 0.5 4.2 5.2 10.4 10.5 6.2 5.3 11.4 9.4 11.6 9.2 0.2 -0.2 3.3 -7.9 6.8 -17.2z m-13.7 -15.5 c11.9 -5 22.2 -9.6 22.8 -10.3 0.7 -0.6 6.9 -16.1 13.8 -34.4 l12.5 -33.3 -11.5 -43.6 c-6.3 -24 -12.1 -45 -12.9 -46.7 -1.5 -3.4 -44.4 -54.8 -46 -55.2 -1 -0.3 -40.5 47.2 -43.6 52.4 -0.9 1.5 -7.6 24.7 -14.9 51.6 l-13.2 48.8 12.5 30.2 12.5 30.1 22.3 9.7 c12.3 5.3 22.8 9.7 23.2 9.7 0.4 0.1 10.6 -4 22.5 -9z m-77.1 -17.1 c-14.7 -35.6 -18.1 -43.7 -18.4 -43.4 -1 0.9 -9.3 33.9 -8.8 34.5 0.7 0.7 26.5 11.9 27.8 12 0.4 0.1 0.1 -1.4 -0.6 -3.1z m124.5 -3 c8.2 -3.4 14.8 -6.7 14.8 -7.3 0 -0.8 -9.1 -36.1 -10.3 -39.9 -0.2 -0.5 -4.6 10.5 -9.9 24.5 -5.3 14 -10 26.2 -10.3 27.2 -0.4 0.9 -0.3 1.7 0.1 1.7 0.5 0 7.5 -2.8 15.6 -6.2z m-152.4 -28.6 c2.9 -10.8 5.2 -20.6 5.2 -21.7 -0.1 -2.2 -9.6 -45.5 -10.2 -46 -0.3 -0.3 -45.1 53.9 -45.5 55.2 -0.2 0.7 43.4 32.2 44.7 32.3 0.3 0 2.9 -8.9 5.8 -19.8z m197.6 3.3 c12.4 -8.2 22.6 -15.2 22.6 -15.5 0 -0.3 -11.3 -13.9 -25 -30.2 -18.2 -21.9 -25 -29.3 -25.4 -28 -0.3 0.9 -2.6 10.7 -5.1 21.6 l-4.5 20 6.3 23.8 c3.8 14.7 6.6 23.7 7.3 23.6 0.7 -0.2 11.3 -7 23.8 -15.3z m24.7 -35 c-3.5 -35.6 -13.5 -69 -32.8 -109.5 -6.3 -13.3 -6.8 -14.1 -7.5 -11.4 -1 3.7 -9.8 67.6 -9.8 71 0 1.9 6.8 10.7 25.3 32.9 13.8 16.7 25.4 29.9 25.5 29.4 0.2 -0.6 -0.1 -6.1 -0.7 -12.4z m-251.7 -16 l22.7 -27.4 -3.4 -39.8 -3.4 -39.8 -6.1 12.8 c-14.8 30.7 -25.3 62.4 -30.1 90.9 -2 11.6 -3.8 30.8 -2.9 30.8 0.3 0 10.7 -12.4 23.2 -27.5z m46.9 -16.5 c4.2 -15.7 8.8 -32.5 10.1 -37.4 2.9 -10.5 4 -11.3 -12.9 9.4 -6.5 8 -12.5 15.3 -13.3 16.2 -1.3 1.6 -1 3.9 2.8 21.8 2.4 11 4.7 19.7 5 19.3 0.4 -0.5 4.1 -13.6 8.3 -29.3z m144.2 2.8 l3.7 -16.8 -12.8 -15.4 c-7.1 -8.4 -13 -15.3 -13.1 -15.2 -0.2 0.2 3.6 15.2 8.4 33.4 4.8 18.2 9.1 32.6 9.4 31.9 0.4 -0.7 2.3 -8.7 4.4 -17.9z m-143.7 -43.7 l16 -19.5 10.6 -38.4 c5.9 -21.1 10.5 -38.6 10.3 -38.8 -0.4 -0.4 -60.1 35.9 -62.1 37.7 -0.5 0.5 0.5 17.4 2.4 41.4 3.2 38.6 3.5 40.5 5.1 38.8 1 -1 8.9 -10.5 17.7 -21.2z m154.1 -20.5 c2.8 -20.8 5 -38 4.9 -38.1 -2.9 -2.2 -63.2 -38.5 -63.5 -38.2 -0.2 0.2 4.6 18 10.6 39.5 l10.9 39 15.4 18.5 c8.4 10.1 15.6 18.2 15.9 17.8 0.3 -0.3 2.9 -17.6 5.8 -38.5z m-110 -32.9 c9.4 -11.5 17.1 -21.3 17.1 -21.8 0 -0.9 -17.2 -22 -17.6 -21.6 -0.1 0.1 -4.1 14.3 -8.9 31.6 -4.8 17.3 -8.9 32.1 -9.2 33 -0.9 2.3 -0.3 1.7 18.6 -21.2z m54.1 -10.8 c-5 -17.8 -9.2 -32.8 -9.4 -33.4 -0.3 -1 -17.9 20 -18.4 22 -0.3 1.3 35.7 44.9 36.5 44.2 0.2 -0.2 -3.7 -15 -8.7 -32.8z m48.9 -16.5 c-12.8 -21.1 -31.3 -47.9 -32.9 -47.9 -1.7 0 -19.9 23 -19 23.9 1.4 1.4 58.4 36.4 58.8 36.1 0.2 -0.2 -2.9 -5.6 -6.9 -12.1z m-138.1 -6.2 c18.7 -11.5 28 -17.7 27.5 -18.5 -2.2 -3.7 -18.7 -22.6 -19.3 -22.2 -1.2 0.7 -24 34.8 -29.5 44 -2.6 4.4 -5.7 9.5 -6.8 11.4 -1.1 1.9 -1.6 3.2 -1 3 0.5 -0.2 13.6 -8.2 29.1 -17.7z m69.8 -8.8 c4.1 -5 7.4 -9.5 7.4 -10 0.1 -2 -19.4 -70.4 -20 -70.4 -0.8 0 -20 68.7 -20 71.4 0 0.9 4.4 6.9 9.7 13.3 l9.7 11.6 2.9 -3.4 c1.6 -1.9 6.2 -7.5 10.3 -12.5z m-27.5 -50.6 c5.3 -19.4 9.6 -35.4 9.5 -35.6 -0.4 -0.4 -24.3 28.4 -32.8 39.5 l-7 9.2 9.7 11.6 c5.4 6.4 10 11.3 10.3 11.1 0.2 -0.3 4.9 -16.4 10.3 -35.8z m49.4 24.2 c4.7 -5.8 8.9 -11 9.2 -11.7 0.7 -1.7 -35.7 -47.1 -37.9 -47.2 -0.4 -0.1 -0.1 2 0.7 4.7 0.8 2.6 5 17.8 9.5 33.7 8.9 32.1 8.9 31.9 9.4 31.4 0.2 -0.2 4.3 -5.1 9.1 -10.9z"/>
 </g>
</svg>