<?xml version="1.0" encoding="utf-8"?>
<!DOCTYPE svg PUBLIC "-//W3C//DTD SVG 1.0//EN" "http://www.w3.org/TR/2001/REC-SVG-20010904/DTD/svg10.dtd">
<svg version="1.0" xmlns="http://www.w3.org/2000/svg" width="512px" height="512px" viewBox="0 0 512 512" preserveAspectRatio="xMidYMid meet">
 <g fill="#4f4941">
  <path d="M31 257 l0 -224 224 0 224 0 0 224 0 224 -224 0 -224 0 0 -224z m415.5 210 c-1.1 -0.4 -24.2 -10.1 -51.2 -21.4 l-49.3 -20.6 -89 0 -89 0 -48.8 20.6 c-26.8 11.3 -49.4 21 -50.2 21.5 -0.8 0.5 82 0.8 189 0.8 104.8 0 189.6 -0.4 188.5 -0.9z m-341.1 -31.4 l51.6 -21.9 0 -30.4 0 -30.3 -31.2 0.2 -31.1 0.3 -20.9 50.5 c-22.7 55.1 -22.4 54.4 -21 53.9 0.5 -0.2 24.2 -10.3 52.6 -22.3z m349 12.7 c-1.3 -3.8 -10 -26.6 -19.2 -50.8 l-16.8 -44 -31.2 -0.3 -31.2 -0.2 0 30.5 c0 17.6 0.4 30.5 0.9 30.5 0.5 0 22.9 9.2 49.8 20.5 26.8 11.2 49.1 20.4 49.5 20.5 0.4 0 -0.4 -3 -1.8 -6.7z m-387.8 -65.1 l19.4 -47.3 -0.2 -84.7 -0.3 -84.7 -20.3 -51 c-11.2 -28 -20.6 -51.2 -20.8 -51.4 -0.2 -0.2 -0.4 83.7 -0.4 186.5 0.1 168.1 0.2 186.5 1.6 183.4 0.8 -1.9 10.3 -24.8 21 -50.8z m399.4 -124.9 l-0.1 -177.8 -17.9 44.5 -17.9 44.5 -0.1 86.9 0 86.8 17.7 46.4 c9.7 25.5 17.8 46.4 18 46.4 0.1 0 0.3 -80 0.3 -177.7z m-155.1 153.3 c-0.3 -0.3 -12.5 -5.2 -27.3 -11 l-26.8 -10.5 -25.7 10.1 c-14.1 5.5 -26.5 10.4 -27.6 10.8 -1.1 0.5 22.7 0.9 52.9 0.9 30.2 0.1 54.7 -0.1 54.5 -0.3z m-107.3 -16.3 c17.8 -7 32.1 -13 31.6 -13.4 -0.4 -0.3 -14.9 -6.1 -32.2 -12.9 -17.3 -6.7 -31.8 -12.4 -32.2 -12.7 -0.5 -0.2 -0.8 11.3 -0.8 25.6 0 14.4 0.3 26.1 0.6 26.1 0.4 0 15.2 -5.7 33 -12.7z m139.4 -13.2 l0 -25.9 -8.2 3.2 c-4.6 1.9 -19.5 7.7 -33.1 13.1 l-24.9 9.7 27.9 11 c15.3 6 29.8 11.8 32.3 12.8 2.5 1 4.8 1.8 5.3 1.9 0.4 0.1 0.7 -11.6 0.7 -25.8z m-58.8 -18.5 l26.3 -10.5 -54 0 -54 0 19 7.5 c10.5 4.1 22.2 8.8 26 10.3 3.9 1.6 7.8 3 8.7 3 0.9 0.1 13.5 -4.6 28 -10.3z m-131.5 -26.8 c-0.8 -1.8 -6.7 -16.7 -13.2 -33.1 -6.5 -16.3 -11.9 -29.6 -12.1 -29.5 -0.1 0.2 -6.3 15 -13.7 33.1 l-13.4 32.7 26.8 0 26.9 0 -1.3 -3.2z m190.3 -81.8 l0 -85 -86.5 0 -86.5 0 0 85 0 85 86.5 0 86.5 0 0 -85z m70 84.3 c0 -2.1 -24.5 -63.2 -25.1 -62.5 -0.4 0.4 -6.4 14.8 -13.2 32 l-12.5 31.2 25.4 0 c14 0 25.4 -0.3 25.4 -0.7z m-42.5 -109.5 c-5.4 -13.9 -10.9 -27.8 -12.1 -30.8 l-2.3 -5.5 0 61 0 61 12.1 -30.2 12.2 -30.2 -9.9 -25.3z m46.5 26 l-0.1 -52.3 -10.4 25.9 -10.4 25.8 10.2 26.4 c5.6 14.5 10.3 26.4 10.5 26.4 0.1 0 0.2 -23.5 0.2 -52.2z m-260 -1 l-0.1 -52.3 -10.4 25.4 c-5.8 13.9 -10.5 25.8 -10.5 26.4 0 1.1 20.3 52.7 20.8 52.7 0.1 0 0.2 -23.5 0.2 -52.2z m-47.2 23.5 l10 -24.3 -9.9 -25.2 c-5.5 -13.9 -10.2 -25.4 -10.5 -25.7 -0.2 -0.2 -0.4 22.2 -0.4 49.9 0 27.7 0.2 50.1 0.4 49.9 0.2 -0.2 4.9 -11.3 10.4 -24.6z m303.8 -106.5 c0.5 -1.7 -1.1 -1.8 -25 -1.8 -14.1 0 -25.6 0.2 -25.6 0.4 0 0.2 3.8 10 8.4 21.8 4.6 11.7 10.3 26.2 12.6 32.2 l4.3 10.9 12.3 -30.9 c6.9 -17 12.7 -31.7 13 -32.6z m-272.2 30 c6.9 -16.9 12.6 -31 12.6 -31.3 0 -0.3 -11.6 -0.5 -25.9 -0.5 l-25.8 0 12.6 31.9 c6.9 17.6 12.9 31.7 13.2 31.3 0.4 -0.4 6.4 -14.5 13.3 -31.4z m15.6 -75.6 l0 -30.9 -49.3 -19.1 c-27 -10.4 -49.4 -18.9 -49.6 -18.7 -0.1 0.2 8 21.4 18.3 47.2 10.2 25.7 19 48 19.5 49.6 l1.1 2.7 30 0 30 0 0 -30.8z m156.5 29.8 c-1.1 -0.4 -13.7 -5.3 -27.9 -10.9 l-26 -10.1 -27.5 10.6 c-15.2 5.8 -27.7 10.7 -28 11 -0.2 0.2 24.7 0.4 55.5 0.3 31.2 0 55 -0.4 53.9 -0.9z m125.8 -48.6 c10.9 -27.3 19.6 -49.8 19.4 -50 -0.8 -0.8 -100.3 36.8 -101.4 38.4 -1 1.2 -1.3 9.1 -1.3 31.4 l0 29.8 31.8 0 31.8 0 19.7 -49.6z m-232.3 32.2 c23.9 -9.2 32 -12.7 30.5 -13.2 -1.1 -0.4 -16.3 -6.3 -33.9 -13.1 -17.5 -6.7 -32.2 -12.3 -32.7 -12.3 -0.5 0 -0.9 11.9 -0.9 26.5 l0 26.5 2.3 -1 c1.2 -0.6 16.8 -6.6 34.7 -13.4z m136.3 4.7 c0.4 -3.8 0.7 -14.6 0.7 -24.2 0 -13.4 -0.3 -17.2 -1.2 -16.8 -19.6 7.2 -60.5 23.1 -61.1 23.6 -0.7 0.7 57.3 23.9 59.9 24 0.6 0.1 1.4 -2.7 1.7 -6.6z m-54.5 -36 l28.3 -10.8 -28.6 -0.3 c-15.7 -0.1 -41.4 -0.1 -57.1 0 l-28.6 0.3 27.4 10.6 c15 5.9 28 10.7 28.8 10.8 0.8 0.1 14.2 -4.7 29.8 -10.6z m106.2 -43.3 l50.5 -18.9 -187.5 0 -187.5 0 6 2.4 c3.3 1.3 14.3 5.6 24.5 9.6 10.2 3.9 26.6 10.2 36.5 14 9.9 3.9 20.7 8.1 24 9.4 l6 2.4 88.5 0 88.5 0.1 50.5 -19z"/>
 </g>
 <g fill="#fbfbfb">
  <path d="M0 256 l0 -256 256 0 256 0 0 256 0 256 -256 0 -256 0 0 -256z m476 1 l0 -221 -221 0 -221 0 0 221 0 221 221 0 221 0 0 -221z"/>
  <path d="M51.5 470.1 c1.1 -0.5 27.1 -11.5 57.7 -24.5 l55.7 -23.6 92.1 0 92 0 57.8 24.1 c31.7 13.3 57.9 24.3 58.1 24.5 0.2 0.2 -93.1 0.4 -207.5 0.3 -114.3 0 -207 -0.4 -205.9 -0.8z"/>
  <path d="M45 464.4 c0 -0.5 10.5 -26.3 23.3 -57.4 l23.4 -56.5 34.1 -0.3 34.2 -0.2 0 33.3 0 33.4 -55.7 23.6 c-64.4 27.2 -59.3 25.2 -59.3 24.1z"/>
  <path d="M421.5 445 c-22 -9.3 -46.4 -19.5 -54.2 -22.7 l-14.3 -5.8 0 -33.3 0 -33.2 34.2 0.2 34.2 0.3 20.6 54 c11.3 29.7 20.9 54.8 21.2 55.8 0.5 1 0.3 1.7 -0.5 1.6 -0.7 0 -19.2 -7.7 -41.2 -16.9z"/>
  <path d="M447.7 400.6 l-20.7 -54.4 0 -89.8 0.1 -89.9 20.9 -52 20.9 -52 0.1 196.3 c0 107.9 -0.1 196.2 -0.3 196.2 -0.2 0 -9.6 -24.5 -21 -54.4z"/>
  <path d="M41 250 c0 -112.4 0.2 -204.1 0.4 -203.9 0.3 0.3 11 26.8 23.8 58.9 l23.3 58.5 0.3 87.7 0.2 87.8 -23.6 57.2 c-12.9 31.5 -23.7 57.5 -24 57.7 -0.2 0.2 -0.4 -91.5 -0.4 -203.9z"/>
  <path d="M184.1 414.6 c0.2 -0.2 16.6 -6.7 36.5 -14.5 l36.1 -14.2 34.9 13.7 c19.2 7.5 35.6 14 36.4 14.5 0.9 0.5 -29.3 0.9 -71.4 0.9 -40.1 0 -72.7 -0.2 -72.5 -0.4z"/>
  <path d="M167 382 c0 -24.6 0.3 -31.1 1.3 -30.7 0.6 0.2 18 7 38.5 15.1 20.6 8 38 14.9 38.7 15.3 0.8 0.5 -13.1 6.5 -36.3 15.6 -20.7 8.1 -38.7 15 -39.9 15.3 l-2.3 0.6 0 -31.2z"/>
  <path d="M334.5 409.1 c-4.9 -2 -22.2 -8.8 -38.3 -15.1 -16 -6.2 -28.9 -11.7 -28.5 -12.1 0.5 -0.3 17.7 -7.3 38.3 -15.4 20.6 -8.1 38.1 -14.9 38.8 -15.2 0.9 -0.4 1.2 6.1 1.2 30.6 0 24.3 -0.3 31.1 -1.2 31 -0.7 0 -5.3 -1.7 -10.3 -3.8z"/>
  <path d="M219.6 364.2 l-34.8 -13.7 36.2 -0.3 c19.9 -0.1 52.2 -0.1 71.7 0 l35.6 0.3 -35 13.8 c-19.2 7.5 -35.9 13.7 -36.9 13.6 -1 0 -17.6 -6.2 -36.8 -13.7z"/>
  <path d="M96 341.6 c0 -2.6 31.3 -77.7 32 -76.9 0.5 0.6 25 62 30.5 76.6 0.7 1.6 -1.2 1.7 -30.9 1.7 -26.9 0 -31.6 -0.2 -31.6 -1.4z"/>
  <path d="M167 255 l0 -88 89.3 0 c49.2 0 89.6 0.2 89.8 0.4 0.2 0.2 0.3 39.8 0.1 88 l-0.2 87.6 -89.5 0 -89.5 0 0 -88z"/>
  <path d="M358.4 339.3 c2.3 -6.5 27.7 -69.7 28.9 -72 1.1 -1.9 2.8 2 15.1 33.5 7.7 19.6 14.5 37.2 15.3 39 l1.3 3.2 -30.9 0 -31 0 1.3 -3.7z"/>
  <path d="M353 254.4 c0.1 -71.8 0.2 -78.6 1.6 -75.4 4.1 9.2 29.4 74.8 29.4 76 0 1.3 -29.7 76.8 -30.6 77.9 -0.2 0.2 -0.4 -35.1 -0.4 -78.5z"/>
  <path d="M405.7 290.6 l-13.8 -35.4 14 -34.9 14 -34.8 0.1 70.3 c0 38.6 -0.1 70.2 -0.3 70.2 -0.1 0 -6.4 -15.9 -14 -35.4z"/>
  <path d="M145.7 290.3 c-7.6 -19.2 -13.7 -35.5 -13.7 -36.2 0 -1.3 21.3 -53.8 26.2 -64.6 1.7 -3.9 1.8 -2.3 1.8 65.8 0 38.3 -0.1 69.7 -0.3 69.7 -0.2 0 -6.5 -15.6 -14 -34.7z"/>
  <path d="M96 253.1 c0 -37.6 0.2 -68.2 0.4 -68 0.3 0.3 6.6 15.9 14.1 34.7 l13.5 34.2 -12.4 30.3 c-6.9 16.6 -13.2 31.8 -14 33.7 -1.4 3.2 -1.5 -2.8 -1.6 -64.9z"/>
  <path d="M387.1 242.9 c-0.5 -1.3 -7.3 -18.6 -15 -38.3 -7.8 -19.8 -14.1 -36.3 -14.1 -36.8 0 -0.4 13.7 -0.8 30.5 -0.8 19.5 0 30.5 0.4 30.5 1 0 1 -29.9 76.2 -30.6 76.9 -0.2 0.2 -0.8 -0.7 -1.3 -2z"/>
  <path d="M112.2 205.8 c-8.3 -21 -15 -38.4 -14.8 -38.5 0.2 -0.2 14.2 -0.2 31.3 -0.1 l31 0.3 -15.4 37.5 c-8.5 20.6 -15.8 37.8 -16.2 38.3 -0.4 0.4 -7.5 -16.5 -15.9 -37.5z"/>
  <path d="M387.3 160.2 l-34.3 -0.2 0 -32.8 c0 -24.7 0.3 -33.2 1.3 -34.5 1 -1.4 110.7 -43 111.5 -42.2 0.4 0.3 -42.8 108.9 -43.6 109.5 -0.4 0.3 -16.1 0.4 -34.9 0.2z"/>
  <path d="M92.9 157.3 c-0.5 -1.6 -10.2 -26.1 -21.5 -54.6 -11.3 -28.5 -20.4 -52 -20.2 -52.1 0.1 -0.2 24.7 9.1 54.6 20.7 l54.2 21 0 33.9 0 33.8 -33 0 -33 0 -1.1 -2.7z"/>
  <path d="M185.1 159.6 c0.2 -0.2 17.1 -6.7 37.5 -14.5 l37 -14.2 37.5 14.5 37.4 14.5 -74.9 0.1 c-41.2 0 -74.7 -0.2 -74.5 -0.4z"/>
  <path d="M167 127 l0 -32 2.3 0.9 c1.2 0.5 19.1 7.4 39.7 15.3 20.6 8 38.4 14.8 39.5 15.2 1.7 0.6 -27.3 12.3 -75.9 30.5 l-5.6 2.1 0 -32z"/>
  <path d="M329.5 150.6 c-8.8 -3.4 -25.8 -10 -37.8 -14.6 -11.9 -4.6 -21.4 -8.7 -21 -9.1 0.9 -0.7 74.5 -28.9 75.6 -28.9 0.9 0 0.7 48.4 -0.2 54.7 l-0.6 4.1 -16 -6.2z"/>
  <path d="M221.6 109 c-19.8 -7.7 -36.2 -14.2 -36.4 -14.5 -0.3 -0.3 33.6 -0.5 75.4 -0.5 l75.9 0.1 -36.5 14 c-20.1 7.7 -37.8 14.2 -39.5 14.5 -2.1 0.2 -13.4 -3.7 -38.9 -13.6z"/>
  <path d="M158.5 84.5 c-3.3 -1.3 -14.3 -5.6 -24.5 -9.6 -60.3 -23.2 -80.5 -31.1 -80.9 -31.5 -0.2 -0.2 92.2 -0.4 205.5 -0.3 l205.9 0 -58.5 21.9 -58.5 22 -91.5 -0.1 -91.5 0 -6 -2.4z"/>
 </g>
</svg>