<?xml version="1.0" encoding="utf-8"?>
<!DOCTYPE svg PUBLIC "-//W3C//DTD SVG 1.0//EN" "http://www.w3.org/TR/2001/REC-SVG-20010904/DTD/svg10.dtd">
<svg version="1.0" xmlns="http://www.w3.org/2000/svg" width="512px" height="512px" viewBox="0 0 512 512" preserveAspectRatio="xMidYMid meet">
 <g fill="#4f4941">
  <path d="M99.5 454 c-15.5 -16.8 -23.2 -25.8 -23.5 -27.7 -0.4 -2.2 -0.5 -302.9 -0.1 -339.3 l0.1 -9.5 23.5 -22.3 23.5 -22.2 134.3 0 134.2 0 22.6 22.8 22.5 22.7 -0.2 167 c-0.1 91.9 -0.2 170.6 -0.3 175.1 l-0.1 8 -20.3 25 -20.2 24.9 -136.5 0.2 -136.5 0.2 -23 -24.9z m262.5 -2 l-13.2 -14 -88.7 0 -88.6 0 -14 14 -14 14 115.9 0 115.8 0 -13.2 -14z m-220.3 -6.2 l14.2 -14.1 -19.7 -14.9 -19.7 -14.8 -11.4 11.5 -11.5 11.5 3.5 3.8 c1.9 2 9.3 9.9 16.3 17.5 7.1 7.5 13.1 13.7 13.5 13.7 0.3 0 7 -6.4 14.8 -14.2z m265.7 -6.1 l13.6 -16.9 -4 -4.6 c-2.2 -2.6 -5.9 -6.9 -8.3 -9.6 l-4.4 -4.9 -19.4 13.7 c-10.7 7.6 -19.5 14.1 -19.7 14.6 -0.2 0.5 5.4 7 12.5 14.4 11.9 12.6 12.9 13.4 14.4 11.8 0.9 -0.9 7.8 -9.3 15.3 -18.5z m-93.5 -15.1 c-0.6 -0.6 -20.2 -6.2 -33.4 -9.5 l-12 -3 -15.5 3.4 c-18.1 3.9 -37.3 8.6 -37.9 9.1 -0.2 0.2 22 0.4 49.4 0.4 27.4 0 49.6 -0.2 49.4 -0.4z m-117.4 -10 c11 -2.9 23.7 -6.1 28.3 -7.1 4.5 -1 8.1 -2 7.9 -2.2 -1.2 -1.1 -48 -7.3 -55.4 -7.3 -2.2 0 -2.3 0.3 -2.3 11 0 6.1 0.3 11 0.8 11 0.4 0 9.7 -2.4 20.7 -5.4z m147 -4.3 c-0.4 -4.9 -0.9 -9 -1.1 -9.2 -0.4 -0.4 -33.8 3.6 -37.2 4.6 -1.8 0.4 1.8 1.9 13.5 5.4 8.7 2.6 17.4 5.5 19.3 6.3 6.2 2.7 6.3 2.6 5.5 -7.1z m27.8 -1.8 l12.8 -9 -10.8 -0.3 c-5.9 -0.2 -12.3 0 -14.2 0.3 -3.3 0.6 -3.4 0.6 -2.7 5.2 0.3 2.5 0.6 6.6 0.6 9 0 2.5 0.4 4.3 0.8 4.1 0.4 -0.1 6.5 -4.3 13.5 -9.3z m-209.3 -1.4 l0 -9.8 -11.7 -0.6 c-6.5 -0.2 -12.4 -0.2 -13.1 0.2 -0.9 0.5 2.9 3.9 11.5 10.4 7 5.3 12.9 9.7 13.1 9.7 0.1 0 0.2 -4.4 0.2 -9.9z m-54 -155.4 l0 -137.5 -10 -9.2 -10 -9.2 0 156.8 0 156.9 10 -10.2 10 -10.2 0 -137.4z m315.8 -75 l-0.3 -75.4 -6.7 7.2 -6.8 7.3 0.7 136.5 0.6 136.4 6.1 6.9 6.1 6.8 0.3 -75.1 c0.1 -41.3 0.1 -109.1 0 -150.6z m-138.1 218.3 c20.3 -3.5 46.5 -7 52.3 -7 2.1 0 4.1 -0.3 4.3 -0.7 0.3 -0.5 2.9 -30.6 5.8 -67.1 l5.3 -66.3 -4.8 -61.2 c-2.7 -33.7 -5.1 -63.5 -5.3 -66.4 l-0.6 -5.1 -9.1 -0.7 c-23.2 -1.6 -48.4 -4.9 -66.4 -8.6 -9.2 -1.9 -9.4 -1.9 -18 0 -18 4 -50.7 8.3 -71.2 9.4 l-4.5 0.2 -0.3 4.5 c-0.2 2.5 -1.8 32.2 -3.7 66.2 l-3.3 61.6 3.9 62.4 c2.1 34.2 4 63.7 4.1 65.3 l0.3 3 9 0.7 c16.6 1.3 36.9 3.9 54.5 6.9 14.2 2.4 28.5 5.2 29.7 5.8 0.1 0.1 8.2 -1.3 18 -2.9z m103.7 -25.7 c-2.9 -9.3 -9.7 -30.7 -15.1 -47.6 -9 -28.3 -9.9 -30.5 -10.5 -27 -0.4 2.1 -2.1 21.6 -3.8 43.3 -1.6 21.7 -3.2 41.4 -3.6 43.8 l-0.5 4.2 19.4 0 19.5 0 -5.4 -16.7z m-228.7 7.5 c-0.3 -4 -1.6 -23.9 -2.8 -44.3 -1.2 -20.3 -2.5 -37.3 -2.8 -37.7 -0.5 -0.5 -24.9 76 -27.7 87 l-0.6 2.2 17.2 0 17.3 0 -0.6 -7.2z m-23.7 -74.1 l15.1 -48.9 -15.1 -50.6 c-8.4 -27.9 -15.4 -50.9 -15.6 -51.1 -0.2 -0.2 -0.4 44.7 -0.4 99.9 0 55.2 0.2 100.1 0.4 99.9 0.2 -0.2 7.2 -22.4 15.6 -49.2z m260.4 -125.7 l-0.6 -18.5 -10.9 35.5 c-6 19.5 -12.5 41 -14.6 47.7 l-3.7 12.3 15 46.8 14.9 46.7 0.3 -76 c0.2 -41.8 0 -84.3 -0.4 -94.5z m-20.1 -3.5 c7 -22.5 13.5 -43.8 14.5 -47.2 l1.9 -6.2 -18.6 0.6 c-10.2 0.3 -18.7 0.6 -18.7 0.7 -0.1 0.1 7.3 92.6 7.5 93.5 0.3 1.3 2 -3.9 13.4 -41.4z m-219.2 -9.8 c1.1 -22.5 1.9 -41 1.7 -41.2 -0.3 -0.3 -32.1 -2.3 -32.6 -2 -0.1 0.1 6 20.8 13.5 46 12.4 41.2 13.9 45.4 14.5 41.9 0.4 -2.1 1.7 -22.3 2.9 -44.7z m3.1 -63.4 c0.2 -4.9 0.3 -9 0.2 -9.2 -0.2 -0.2 -6.2 3.4 -13.3 8 l-13 8.4 7.2 0.6 c4 0.3 9.7 0.6 12.8 0.7 l5.7 0.2 0.4 -8.7z m30.3 6.7 c17 -1.9 33.5 -4.3 32.9 -4.9 -0.3 -0.3 -7.2 -2.7 -15.2 -5.2 -8.1 -2.5 -19 -6.2 -24.3 -8.1 l-9.6 -3.5 -0.7 8.1 c-1.1 15 -1.2 14.6 3.7 14.6 2.3 0 8.3 -0.5 13.2 -1z m150.7 -10.4 l-0.3 -11.4 -7.9 2.9 c-4.3 1.5 -15.6 5.3 -25 8.2 -9.5 3 -16.8 5.7 -16.3 6 1.4 0.9 31.8 4.4 47.8 5.6 1.9 0.1 2 -0.4 1.7 -11.3z m38.3 10.5 c-0.6 -0.4 -6.5 -4.5 -13.2 -9 l-12.3 -8.1 0 9 0 9 13.2 0 c7.6 0 12.8 -0.4 12.3 -0.9z m35 -19.9 l3.9 -4.3 -16.1 -16.1 -16 -16 -13.7 12.2 -13.7 12.3 20.8 13.6 20.8 13.7 5.1 -5.6 c2.8 -3 6.8 -7.4 8.9 -9.8z m-278.4 1.1 l19.9 -12.8 -2.3 -2.2 c-3.2 -3.1 -27.1 -22.3 -27.8 -22.3 -1 0 -31.4 29.1 -31.4 30.1 0 0.9 20.4 19.9 21.4 19.9 0.2 0 9.3 -5.7 20.2 -12.7z m136.9 3.3 c9.1 -2.5 19.2 -5.3 22.5 -6.4 l6 -2 -44.5 0 -44.5 0 7.5 2.4 c4.1 1.4 14 4.2 22 6.4 8 2.1 14.5 3.9 14.5 3.9 0.1 0.1 7.5 -1.9 16.5 -4.3z m69.6 -22.9 c1.2 -0.7 7.4 -5.9 13.8 -11.7 l11.7 -10.5 -55.5 -0.3 c-30.5 -0.1 -80.7 -0.1 -111.5 0 l-56 0.3 14.6 11.8 14.5 11.7 83.2 0 c63.3 -0.1 83.6 -0.4 85.2 -1.3z"/>
 </g>
 <g fill="#fbfbfb">
  <path d="M0 256 l0 -256 256 0 256 0 0 256 0 256 -256 0 -256 0 0 -256z m412.7 194.6 l20.3 -25 0 -8 c0.1 -4.5 0.1 -82.1 0.1 -172.5 l0.1 -164.4 -22.4 -22.4 -22.3 -22.3 -131.2 0 -131.3 0 -23.5 22.2 -23.5 22.3 0 9.5 c-0.1 5.2 -0.1 82.7 -0.1 172.3 l0 162.7 3.8 4.4 c2.1 2.4 12.6 13.9 23.3 25.5 l19.5 21 133.5 -0.2 133.5 -0.2 20.2 -24.9z"/>
  <path d="M151.5 452 l17 -17 91.6 0 91.6 0 16.2 17 16.3 17 -124.9 0 -124.8 0 17 -17z"/>
  <path d="M117.6 457.2 c-4.9 -5.3 -13.6 -14.7 -19.3 -20.9 l-10.5 -11.2 13.8 -14.1 c7.7 -7.8 14.4 -13.8 15.1 -13.6 0.7 0.3 11.2 8 23.4 17.2 l22.2 16.6 -17.9 17.9 c-9.8 9.9 -17.9 17.9 -17.9 17.9 0 -0.1 -4 -4.5 -8.9 -9.8z"/>
  <path d="M377.4 452.2 c-7.2 -7.5 -14.5 -15.3 -16.2 -17.3 l-3.1 -3.6 23.4 -16.6 23.4 -16.5 10.6 11.8 c5.9 6.5 10.6 12.2 10.6 12.5 0.1 0.8 -34 42.9 -34.9 43.2 -0.4 0.2 -6.6 -5.9 -13.8 -13.5z"/>
  <path d="M261 428 l-72.5 -0.5 16.7 -4.3 c21.3 -5.5 48.9 -11.9 57.6 -13.4 6.4 -1.1 7.6 -1 20.2 2.2 12.1 2.9 21.5 5.7 45.2 13.1 4.3 1.3 7.8 2.7 7.8 3.2 0 0.4 -0.6 0.6 -1.2 0.5 -0.7 -0.2 -33.9 -0.5 -73.8 -0.8z"/>
  <path d="M172 409.8 l0 -15.4 9.8 0.8 c21.9 1.7 68.2 8.3 68.2 9.7 0 0.3 -7.8 2.3 -17.3 4.5 -13.7 3 -49.8 12.4 -58.9 15.2 -1.7 0.5 -1.8 -0.7 -1.8 -14.8z"/>
  <path d="M354 420.2 c0 -2.7 -0.3 -9 -0.6 -14 l-0.7 -9.1 3.4 -0.6 c1.9 -0.3 11.5 -0.5 21.4 -0.3 l18 0.3 -20.2 14.3 c-11.1 7.8 -20.4 14.2 -20.7 14.2 -0.3 0 -0.6 -2.2 -0.6 -4.8z"/>
  <path d="M144.1 409.2 l-19.5 -14.7 6 -0.7 c3.2 -0.3 12.3 -0.4 20.2 -0.1 l14.2 0.6 0 14.9 c0 8.1 -0.3 14.8 -0.7 14.7 -0.5 0 -9.5 -6.6 -20.2 -14.7z"/>
  <path d="M336.5 420.9 c-7 -2.6 -31.8 -10.2 -46 -14.1 l-5 -1.4 17 -2.7 c9.4 -1.4 21.3 -3.1 26.5 -3.7 5.2 -0.6 11.1 -1.2 13.2 -1.5 l3.6 -0.5 0.6 10.8 c0.4 5.9 0.9 11.9 1.1 13.5 0.6 3.5 -0.7 3.5 -11 -0.4z"/>
  <path d="M85 253.1 l0 -165.4 2.3 1.9 c1.2 1.1 7 6.4 12.9 11.8 l10.8 9.8 0 140.5 0 140.5 -13 13.2 -13 13.1 0 -165.4z"/>
  <path d="M417.2 401.8 l-9.1 -10.3 -0.1 -68 c0 -37.4 -0.3 -100.2 -0.6 -139.5 l-0.5 -71.5 10 -10.5 10 -10.5 0.1 160.3 c0 88.1 -0.1 160.2 -0.3 160.2 -0.2 0 -4.4 -4.6 -9.5 -10.2z"/>
  <path d="M258.5 399.5 c-19.3 -4.4 -56.5 -9.7 -76.8 -11.1 -5.7 -0.4 -10 -1.2 -10.2 -1.8 -0.2 -0.6 -2.2 -30.7 -4.5 -66.8 l-4 -65.7 3.6 -66.8 c1.9 -36.7 3.7 -67.4 3.9 -68 0.3 -0.9 2.6 -1.3 6.7 -1.3 13.4 0 48.1 -4.6 69.2 -9.1 10.8 -2.3 11.7 -2.3 31.6 1.4 16.5 3.1 33.9 5.3 53 6.8 8 0.6 14.6 1.2 14.7 1.3 0.6 0.5 10.4 128.2 10.4 135.1 0 8 -9.8 133.9 -10.6 136.3 -0.3 0.7 -2.1 1.2 -4.4 1.2 -5.9 0 -32 3.5 -52.4 7 -19.6 3.3 -21.5 3.4 -30.2 1.5z"/>
  <path d="M353 387.7 c0 -4.2 8.9 -114 9.3 -114.3 0.4 -0.4 36.7 112.8 36.7 114.5 0 0.8 -5.8 1.1 -19.2 1.1 -10.6 0 -21 0.3 -23 0.6 -3.6 0.6 -3.8 0.5 -3.8 -1.9z"/>
  <path d="M122.2 385.3 c3.7 -13.5 34.4 -110 34.9 -109.5 0.5 0.6 7 101.8 6.9 108.5 l0 2.7 -21.1 0 c-19.6 0 -21.1 -0.1 -20.7 -1.7z"/>
  <path d="M118 251.5 c0 -67.6 0.2 -122.6 0.4 -122.4 0.2 0.2 8.8 28.4 19 62.6 l18.7 62.2 -18.7 59.8 c-10.2 32.9 -18.8 60 -19 60.2 -0.2 0.2 -0.4 -54.8 -0.4 -122.4z"/>
  <path d="M382.1 311.6 l-18.4 -57.7 17.9 -58.6 17.9 -58.6 0.7 26.4 c0.4 14.5 0.7 66.9 0.5 116.4 l-0.2 89.9 -18.4 -57.8z"/>
  <path d="M362.1 234.9 c-0.6 -5.7 -9.1 -113.9 -9.1 -115 0 -1.4 2.6 -1.7 19.3 -2.2 10.5 -0.4 20.9 -0.9 22.9 -1.3 l3.7 -0.6 -3.5 11.3 c-8.3 27.8 -33.3 108.3 -33.3 107.8z"/>
  <path d="M139.2 174.3 c-9.5 -31.7 -17.1 -57.7 -17 -57.8 0.2 -0.1 3.2 0.1 6.8 0.5 3.6 0.5 12.8 1.1 20.5 1.5 l14 0.7 -3 55.8 c-1.7 30.7 -3.3 56.1 -3.5 56.4 -0.3 0.2 -8.3 -25.4 -17.8 -57.1z"/>
  <path d="M142 111.3 c-14.4 -1 -17.3 -1.5 -15.9 -2.7 2.8 -2.5 38.1 -24.7 38.6 -24.3 0.3 0.3 0.1 6.6 -0.3 14.1 l-0.7 13.6 -8.6 -0.2 c-4.7 -0.1 -10.6 -0.3 -13.1 -0.5z"/>
  <path d="M171.4 96 c0.4 -8.5 0.8 -15.5 0.9 -15.7 0.1 -0.1 7.7 2.5 16.7 5.8 9.1 3.3 24.8 8.4 34.9 11.4 l18.4 5.3 -5.4 1.1 c-14.8 3 -44.6 6.6 -60.3 7.3 l-5.9 0.3 0.7 -15.5z"/>
  <path d="M332 110.3 c-1.9 -0.1 -8.7 -0.8 -15 -1.4 -12.7 -1.1 -37.4 -4.7 -40.3 -5.8 -1.3 -0.5 1.8 -1.8 10.4 -4.1 6.7 -1.8 22.5 -6.8 35.1 -11 l22.8 -7.7 0 10.1 c0 5.6 0.3 12.5 0.6 15.4 l0.7 5.2 -5.4 -0.2 c-3 0 -7 -0.3 -8.9 -0.5z"/>
  <path d="M352 97 l0 -14 19.9 13.2 19.9 13.3 -4.6 0.7 c-2.6 0.3 -11.6 0.7 -19.9 0.7 l-15.3 0.1 0 -14z"/>
  <path d="M377.5 91.9 c-13.2 -8.7 -23.9 -16.1 -23.8 -16.4 0.1 -0.4 7.7 -7.3 17 -15.6 l16.8 -14.9 18.9 18.9 18.9 18.9 -11.2 12.4 c-6.2 6.7 -11.6 12.4 -11.9 12.5 -0.4 0 -11.5 -7 -24.7 -15.8z"/>
  <path d="M102.3 93.9 c-7.3 -6.6 -13.3 -12.4 -13.3 -12.8 0 -0.6 16.9 -16.9 32.7 -31.4 l5.1 -4.8 18.7 15.2 c14.8 12.1 18.3 15.5 17.3 16.4 -2.3 2.1 -45.5 29.5 -46.4 29.5 -0.5 0 -6.9 -5.5 -14.1 -12.1z"/>
  <path d="M241.5 95.4 c-7.1 -1.9 -20.9 -6 -30.5 -9.1 l-17.5 -5.8 32.7 -0.3 c18.1 -0.1 47.4 -0.1 65.3 0 l32.4 0.3 -17.2 5.4 c-22 7 -45.4 13.1 -49.2 13 -1.6 0 -8.8 -1.6 -16 -3.5z"/>
  <path d="M154 58.3 l-18.2 -14.8 60.5 -0.3 c33.3 -0.1 88 -0.1 121.6 0 l61.1 0.3 -14.6 13 c-8 7.2 -15.8 13.8 -17.2 14.7 -2.5 1.7 -8.6 1.8 -88.9 1.8 l-86.1 0 -18.2 -14.7z"/>
 </g>
</svg>