<?xml version="1.0" encoding="utf-8"?>
<!DOCTYPE svg PUBLIC "-//W3C//DTD SVG 1.0//EN" "http://www.w3.org/TR/2001/REC-SVG-20010904/DTD/svg10.dtd">
<svg version="1.0" xmlns="http://www.w3.org/2000/svg" width="512px" height="512px" viewBox="0 0 512 512" preserveAspectRatio="xMidYMid meet">
 <g fill="#4f4941">
  <path d="M244 476.8 c-108.8 -5.8 -197 -90.5 -208 -199.7 -5.5 -55.1 10.5 -110.3 45.3 -156.6 8.2 -10.9 30.1 -32.5 41.7 -41.1 31.8 -23.7 67.4 -38.2 106 -43 14.6 -1.8 39.4 -1.8 54 0 73 9.1 136.5 53.8 169.8 119.4 34.9 68.7 31.9 148.6 -8 215.1 -13 21.5 -36.1 47.1 -55.8 61.7 -43.1 32 -92.5 47 -145 44.2z m6 -6.1 c0 -0.1 -12.3 -12.5 -27.4 -27.6 l-27.4 -27.4 -10.1 20.1 -10 20 8.7 3.2 c13.4 4.8 31.7 9.1 48.7 11.3 3.5 0.5 17.5 0.8 17.5 0.4z m34.5 -1.2 c5.6 -0.8 14.2 -2.3 19.2 -3.4 10.5 -2.3 31.3 -9 31.3 -10.1 0 -0.7 -16 -39.1 -16.7 -39.9 -0.5 -0.7 -3 1.8 -29.5 29.2 l-25 25.7 5.3 0 c3 0 9.9 -0.7 15.4 -1.5z m1.5 -29.6 c20.7 -21.3 28 -29.3 27 -29.9 -0.8 -0.5 -13.7 -5.9 -28.7 -12.1 l-27.4 -11.2 -27.7 11.8 c-15.2 6.5 -28.1 12.2 -28.7 12.7 -0.6 0.5 10.2 12 27.5 29.3 15.7 15.7 28.7 28.5 29.1 28.5 0.3 0 13.3 -13.1 28.9 -29.1z m77.2 2.9 c9.8 -5.6 23.5 -15.2 33.4 -23.5 l3.9 -3.3 -37.8 0 c-20.7 0 -37.7 0.2 -37.7 0.4 0 0.5 14 33.7 15.1 35.8 0.9 1.6 1.4 1.6 6.7 -0.8 3.1 -1.3 10.5 -5.2 16.4 -8.6z m-183.3 -9.7 l10 -19.8 -17.2 -0.7 c-9.5 -0.3 -28.2 -0.9 -41.7 -1.2 l-24.5 -0.7 2 2.3 c3.5 3.9 21.7 18.1 30.5 23.9 8.7 5.6 28.2 16.1 30 16.1 0.5 0 5.5 -8.9 10.9 -19.9z m223.1 -66.1 l0 -42.9 -7.7 3.3 c-4.3 1.8 -16.6 7 -27.3 11.6 -10.7 4.6 -19.9 8.6 -20.3 9 -0.7 0.6 -25.7 60.6 -25.7 61.6 0 0.2 18.2 0.4 40.5 0.4 l40.5 0 0 -43z m-214 39.3 c0 -0.5 -5.3 -13.5 -11.7 -29 l-11.7 -28.1 -30.6 -12.6 c-16.9 -6.9 -31.3 -12.6 -32 -12.6 -1 0 -1.2 2.5 -0.7 12.3 0.4 6.7 1 24.4 1.3 39.4 0.4 14.9 1 27.6 1.3 28.2 0.9 1.5 84.1 3.8 84.1 2.4z m238.9 -20.8 c3.7 -4.9 8.6 -12 10.8 -15.6 4.4 -7 14.3 -26.3 14.3 -27.7 0 -0.7 -34.1 -16.6 -42.4 -19.8 -1.5 -0.6 -1.6 2.9 -1.6 42.2 l0.1 42.9 6 -6.5 c3.3 -3.6 9.1 -10.5 12.8 -15.5z m-204.8 9.4 c14.3 -6.1 25.8 -11.3 25.7 -11.4 -1 -1 -74.2 -30.5 -74.5 -30.1 -0.7 0.7 21 52.6 22 52.6 0.5 0 12.5 -5 26.8 -11.1z m105.2 -16.1 c5.9 -14.4 10.5 -26.3 10.3 -26.6 -0.2 -0.2 -16.9 6.7 -37 15.4 -20.2 8.6 -36.5 15.8 -36.3 16.1 0.7 0.6 50 21.1 51.2 21.2 0.6 0.1 5.9 -11.7 11.8 -26.1z m-230.8 -13.6 c-0.7 -20.5 -1.4 -37.4 -1.7 -37.7 -0.3 -0.4 -34.6 15.1 -35.8 16.2 -0.8 0.8 10.7 22.5 16.9 31.7 5.4 8.2 21.1 28.1 21.6 27.4 0.1 -0.2 -0.4 -17.1 -1 -37.6z m202.6 -3.3 l42.6 -18.2 17.7 -43.3 c9.8 -23.9 18 -44.2 18.2 -45.1 0.5 -1.6 -34.4 -85.1 -36.7 -87.9 -0.5 -0.6 -20 -9.1 -43.3 -18.8 l-42.4 -17.8 -43.7 18.9 -43.8 18.8 -17.8 43.8 -17.9 43.8 18.3 44.2 18.4 44.2 42.9 17.7 c23.6 9.8 43.4 17.8 43.9 17.8 0.6 0 20.2 -8.1 43.6 -18.1z m-138.3 -21.7 c-9.4 -23.3 -31.5 -75.2 -31.9 -75.2 -1 0 -22.1 52.2 -21.6 53.4 0.4 1.1 50.8 22.5 53 22.6 0.5 0 0.7 -0.4 0.5 -0.8z m219.7 -13.2 c13.2 -5.6 24.1 -10.3 24.3 -10.5 0.1 -0.1 -5 -12.4 -11.4 -27.4 -6.4 -14.9 -11.8 -27 -11.9 -26.9 -0.5 0.5 -30.7 74.1 -31.3 76.1 -0.4 1.7 -0.2 1.7 2.9 0.4 1.9 -0.8 14.2 -6 27.4 -11.7z m-302.2 1.2 l18.7 -8.6 -28.2 -28.3 c-15.6 -15.6 -28.5 -27.8 -28.6 -27.3 -0.8 2.2 2 25.3 4.3 36.2 2.2 10.9 6.9 26.7 10.1 34.3 1.1 2.8 1.9 3.5 3.2 3 0.9 -0.3 10.1 -4.5 20.5 -9.3z m378.5 2.6 c3.4 -9.2 7 -22 9.1 -32.3 2.2 -10.8 4.5 -31.7 3.9 -35.5 -0.2 -2 -4.4 1.9 -27.6 25.6 -15 15.3 -27.4 28.3 -27.5 28.7 -0.2 0.7 37.3 18.4 39.5 18.6 0.4 0.1 1.5 -2.3 2.6 -5.1z m-343.5 -44.5 c6.5 -15.9 11.7 -29.5 11.7 -30.3 0 -2 -23.3 -58 -24.1 -58 -0.4 0 -13.6 13.3 -29.5 29.6 l-28.8 29.5 29 29 c15.9 15.9 29.1 28.9 29.5 28.9 0.3 0 5.8 -12.9 12.2 -28.7z m324.4 -60 c-16 -16.1 -29.4 -28.9 -29.8 -28.5 -0.3 0.4 -5.7 13.2 -11.9 28.5 l-11.3 27.8 10.3 24.2 c5.7 13.3 11.4 26.6 12.7 29.5 l2.3 5.4 28.4 -28.9 28.5 -28.8 -29.2 -29.2z m-341.8 -32.4 c0.1 -0.6 -38.9 -18.9 -40.1 -18.9 -1.2 0 -9 25.6 -11.3 36.8 -2.4 11.5 -4.5 28.8 -4.5 36.1 0 3.6 0.3 3.3 28 -24.9 15.3 -15.7 27.9 -28.8 27.9 -29.1z m373.2 41.7 c-0.6 -6.8 -2.2 -17.5 -3.6 -23.9 -2.3 -11.4 -10 -36.3 -11.5 -37.2 -0.6 -0.4 -39.5 16.9 -41 18.2 -0.2 0.2 12.4 13.2 28 28.8 15.7 15.7 28.7 28 28.9 27.4 0.2 -0.6 -0.2 -6.6 -0.8 -13.3z m-324.4 -25.9 c8.4 -20.4 15.1 -37.3 14.9 -37.4 -0.2 -0.2 -12.1 4.7 -26.5 10.9 -23 9.9 -26.1 11.5 -25.7 13.2 1.1 4.1 21.1 51.4 21.6 51 0.2 -0.3 7.3 -17.2 15.7 -37.7z m248.3 8.9 c5.5 -13.7 9.7 -25.3 9.3 -25.7 -1 -1 -52.7 -22.8 -53.1 -22.4 -0.1 0.1 7 17.2 15.9 38 10 23.3 16.5 37.2 16.9 36.4 0.4 -0.8 5.4 -12.6 11 -26.3z m-258.5 -42.2 l29 -12.5 11.6 -28.2 c6.4 -15.5 11.5 -28.3 11.5 -28.4 -0.1 -0.1 -19.1 0.1 -42.2 0.4 l-42.1 0.6 -0.7 39.9 c-0.4 21.9 -0.4 40.3 -0.1 40.9 0.8 1.3 -2 2.3 33 -12.7z m295.6 2 c11.5 -5.3 20.9 -10.1 20.9 -10.6 0 -2 -11.2 -22.6 -16.9 -31.2 -3.2 -4.9 -9.4 -13.2 -13.7 -18.4 -7.2 -8.7 -7.9 -9.3 -8.5 -7.1 -0.4 1.3 -1.2 15.2 -1.8 30.9 -0.7 15.7 -1.4 32.4 -1.8 37.3 -0.3 4.8 -0.3 8.7 0.1 8.7 0.4 0 10.1 -4.3 21.7 -9.6z m-334.6 -14.6 c0.3 -12.3 0.5 -29.2 0.3 -37.6 l-0.3 -15.2 -6.9 8.4 c-9.6 11.7 -17.6 24 -24.7 37.9 -3.3 6.5 -5.9 12 -5.7 12.2 0.6 0.5 35.3 16.4 35.9 16.5 0.4 0 1 -10 1.4 -22.2z m308 -7.5 c0.8 -15.8 1.6 -33.4 2 -39 l0.6 -10.3 -42.1 0 c-23.1 0 -42 0.3 -41.9 0.8 0 0.4 5.3 12.8 11.7 27.6 l11.7 27 28 11.7 c15.4 6.5 28.2 11.6 28.3 11.4 0.2 -0.2 1 -13.3 1.7 -29.2z m-193.5 -12.3 c19.5 -8.4 35.8 -15.5 36.2 -15.9 0.4 -0.4 -11.2 -5.7 -25.8 -11.8 l-26.6 -11.1 -1.5 3.6 c-8.2 19.7 -20.3 49.7 -20.3 50.5 0 0.5 0.6 0.7 1.3 0.4 0.6 -0.3 17.2 -7.3 36.7 -15.7z m116.6 -10.7 c-5.8 -13.6 -11.1 -25.4 -11.5 -26.2 -0.8 -1.2 -5.5 0.5 -26.5 9.4 -14 6 -25.3 11.1 -25.1 11.3 0.8 0.8 73 30.9 73.4 30.6 0.2 -0.2 -4.4 -11.5 -10.3 -25.1z m-42.8 -21 l27.3 -11.7 -28.8 -28.9 -28.8 -28.9 -27.7 28.3 c-15.3 15.6 -27.8 28.6 -27.8 28.9 0 0.9 55 23.9 57 24 0.8 0 13.8 -5.3 28.8 -11.7z m-96.3 -11.5 c0.5 -0.5 -18.7 -40.2 -20.1 -41.7 -0.5 -0.6 -21.4 10.8 -29.9 16.3 -8.7 5.7 -26.5 19.8 -30.5 24.1 l-2.5 2.7 41.2 -0.4 c22.7 -0.2 41.5 -0.7 41.8 -1z m211.5 -5 c-14.3 -13.2 -42.2 -31.4 -56.6 -36.8 -2.7 -1.1 -2.4 -1.6 -16 26.8 l-7.3 15.2 42.7 0 42.7 -0.1 -5.5 -5.1z m-178.5 -27.5 l26.7 -27.3 -5.3 0 c-15.8 0.1 -54.4 8.6 -66.1 14.6 l-2.8 1.4 9.8 19.5 c5.3 10.7 10 19.4 10.3 19.3 0.3 -0.2 12.6 -12.6 27.4 -27.5z m104.1 8.1 c5.2 -10.8 9.4 -20 9.4 -20.4 0 -1.2 -20.3 -7.7 -31.5 -10.1 -12.6 -2.8 -27.8 -4.9 -36 -4.9 l-7 0 27.5 27.5 c15.1 15.1 27.6 27.5 27.8 27.5 0.2 0 4.6 -8.8 9.8 -19.6z"/>
 </g>
</svg>