<?xml version="1.0" encoding="utf-8"?>
<!DOCTYPE svg PUBLIC "-//W3C//DTD SVG 1.0//EN" "http://www.w3.org/TR/2001/REC-SVG-20010904/DTD/svg10.dtd">
<svg version="1.0" xmlns="http://www.w3.org/2000/svg" width="512px" height="512px" viewBox="0 0 512 512" preserveAspectRatio="xMidYMid meet">
 <g fill="#4f4941">
  <path d="M87.6 448.3 l-45.5 -49.8 0 -144.5 -0.1 -144.5 45.6 -50.8 45.6 -50.7 124.1 0.1 124.2 0 45.3 50.7 45.2 50.6 0 144.4 0 144.3 -45.2 49.9 -45.3 49.8 -124.2 0.1 -124.1 0.1 -45.6 -49.7z m284.4 41.2 c0 -0.3 -10.4 -16.5 -23.1 -36 l-23.1 -35.5 -68.7 0 -68.8 0 -22.5 34.8 c-12.4 19.1 -22.8 35.3 -23.2 36 -0.6 0.9 22.6 1.2 114.3 1.2 63.3 0 115.1 -0.2 115.1 -0.5z m-213.9 -37.5 c12.7 -19.5 23.4 -36 23.6 -36.7 0.4 -1 -52.5 -65.2 -54.2 -65.6 -0.8 -0.3 -75.4 47.6 -75.5 48.4 0 1.2 81.3 90 82.1 89.7 0.5 -0.2 11.3 -16.3 24 -35.8z m263.4 -8.6 c22.3 -24.5 40.5 -44.9 40.5 -45.3 0 -1.4 -75.2 -49.3 -76 -48.4 -8.4 9.3 -54 64.6 -53.8 65.2 1 2.4 47.4 73.1 48 73.1 0.4 0 19 -20 41.3 -44.6z m-99.5 -33.7 c0 -0.2 -3.1 -7.7 -6.8 -16.8 l-6.8 -16.4 -51.3 0 -51.2 0 -6.9 16.8 -6.8 16.7 64.9 0 c35.7 0 64.9 -0.1 64.9 -0.3z m-128.8 -20.4 l6.8 -16.6 -15.2 -23.4 c-8.3 -12.8 -15.4 -23.5 -15.7 -23.7 -1.1 -0.7 -34.6 19.2 -34.4 20.3 0.4 1.7 50.6 61.1 51.2 60.6 0.2 -0.3 3.5 -8 7.3 -17.2z m161.3 -12.9 c21.2 -25.2 25.5 -30.8 24.4 -31.8 -1.2 -1.1 -25.4 -15.2 -31.6 -18.5 -2 -1 -3 0.2 -17.5 22.6 -8.4 13 -15.2 24.1 -15 24.7 0.5 2 13.5 33.6 13.8 33.6 0.1 0 11.8 -13.8 25.9 -30.6z m-267 -9.8 l36 -23.2 0.3 -89.5 0.2 -89.4 -32.6 -21 c-18 -11.5 -34.6 -22.2 -37 -23.8 l-4.4 -2.7 0 136.5 c0 75.1 0.3 136.5 0.8 136.4 0.4 0 16.9 -10.5 36.7 -23.3z m376.5 -113 l0 -136.4 -37 23.6 -36.9 23.7 -0.1 89.2 0 89.1 36.7 23.6 c20.1 13 36.8 23.6 37 23.6 0.1 0 0.3 -61.4 0.3 -136.4z m-139.3 90.4 l15.2 -23.5 0.1 -66.7 0 -66.7 -15.3 -24.3 -15.3 -24.3 -52.1 -0.3 -52.1 -0.2 -15.6 24.5 -15.6 24.6 0 66.6 0 66.5 15.6 23.9 15.6 23.9 52.1 -0.2 52.1 -0.3 15.3 -23.5z m-174.9 -16 l16.2 -9.4 -0.2 -65 -0.3 -64.9 -16 -9.3 c-8.8 -5.1 -16.3 -9.3 -16.7 -9.4 -0.5 0 -0.8 37.8 -0.8 84.1 0 46.2 0.3 83.8 0.8 83.6 0.4 -0.2 8 -4.6 17 -9.7z m231.8 -157.7 c-0.3 -0.3 -7.8 3.8 -16.8 9 l-16.3 9.5 -0.2 64.8 -0.3 64.9 16.8 9.6 16.7 9.6 0.3 -83.5 c0.1 -45.9 0 -83.7 -0.2 -83.9z m-197.4 -11.9 c8 -12.6 14.7 -23.6 14.7 -24.4 0.2 -2.3 -13.1 -34.1 -14 -33.8 -1 0.3 -50.9 60.9 -50.9 61.8 0 0.9 33.4 19.9 34.5 19.6 0.6 -0.1 7.6 -10.6 15.7 -23.2z m179 14 c9.3 -5.3 16.8 -9.9 16.8 -10.3 0 -0.8 -49.9 -61.5 -50.8 -61.8 -0.9 -0.3 -14.4 32.6 -14 34.1 0.6 2.4 29.3 47.5 30.3 47.6 0.5 0 8.5 -4.3 17.7 -9.6z m-208.6 -47.1 c14.8 -17.9 26.8 -33 26.6 -33.6 -0.3 -0.9 -45.8 -71.4 -47.2 -73 -0.7 -0.8 -81.5 88.8 -81.5 90.5 0 1 73.1 48.8 74.6 48.8 0.4 0 12.8 -14.7 27.5 -32.7z m270.1 8.9 c20.2 -13.1 36.8 -24.4 36.8 -25 0 -1.2 -80.5 -91.6 -81 -91 -2.8 3.4 -46.9 72.8 -46.9 73.9 -0.1 1.8 51.9 65.9 53.4 65.9 0.5 0 17.4 -10.7 37.7 -23.8z m-109 -20.9 l6.9 -16.8 -64.9 -0.3 c-35.8 -0.1 -65.2 0 -65.5 0.2 -0.2 0.3 2.7 7.9 6.4 17 l6.8 16.6 51.7 0 51.7 0 6.9 -16.7z m34.3 -60.9 c12.7 -19.6 23 -35.8 22.7 -36 -0.2 -0.2 -52.4 -0.3 -116.1 -0.2 l-115.7 0.3 23.2 35.8 23.2 35.7 69.8 0 69.7 0 23.2 -35.6z"/>
 </g>
</svg>