<?xml version="1.0" encoding="utf-8"?>
<svg id="Layer_01" width="300" height="300" data-name="Layer 1" xmlns="http://www.w3.org/2000/svg" viewBox="0 0 30 30">
  <title>Asscher</title>
  <g id="sq-emerald">
    <path class="cls-1" d="M29.25,14.48v9.75a.68.68,0,0,1-.26.57l-5,4.27a.79.79,0,0,1-.47.17H5.27A.72.72,0,0,1,4.81,29Q2.62,26.88.45,24.68a.72.72,0,0,1-.19-.46V4.55a.68.68,0,0,1,.18-.43Q2.23,2.28,4.05.46a.77.77,0,0,1,.49-.2h19a1,1,0,0,1,.55.19C25.75,1.66,27.35,2.88,29,4.1a.66.66,0,0,1,.29.6C29.24,7.95,29.25,11.22,29.25,14.48Zm-7.5.17V10a.55.55,0,0,0-.24-.51c-.69-.51-1.36-1-2-1.54A.88.88,0,0,0,19,7.75H9.87a.74.74,0,0,0-.46.2c-.51.48-1,1-1.48,1.5a.64.64,0,0,0-.17.4v9.43a.69.69,0,0,0,.18.43q.9.94,1.84,1.84a.74.74,0,0,0,.46.19h8.71a.76.76,0,0,0,.44-.17c.71-.59,1.41-1.21,2.12-1.8a.63.63,0,0,0,.24-.55ZM.64,4.88V24c.61-.39,1.18-.77,1.75-1.12a.47.47,0,0,0,.25-.46V18.64q0-6,0-12a.56.56,0,0,0-.14-.4C1.9,5.75,1.3,5.35.64,4.88Zm28.22-.27c-.61.45-1.16.87-1.73,1.27a.57.57,0,0,0-.26.53V21.55a1.63,1.63,0,0,0,1,1.74,9.6,9.6,0,0,1,1,.69Zm-24-4,.67.92c.26.35.46.83.81,1a3.09,3.09,0,0,0,1.3.06H21.91c.12,0,.3,0,.35-.09.4-.61.79-1.24,1.2-1.9Zm18.7,28.22a3.22,3.22,0,0,0-.17-.29c-.32-.49-.65-1-1-1.46a.5.5,0,0,0-.49-.25H7.65a1.22,1.22,0,0,0-1.29.7,14.4,14.4,0,0,1-.84,1.31Zm3-22.51c-.71.53-1.37,1-2,1.49a.48.48,0,0,0-.12.34v12.5a.48.48,0,0,0,.26.46c.47.3.93.62,1.4.93l.49.31ZM3,22.49c.66-.42,1.25-.82,1.86-1.19a.52.52,0,0,0,.28-.55V8.86a1.24,1.24,0,0,0-.64-1.24C4,7.31,3.52,6.93,3,6.55ZM22,3H6.6a10,10,0,0,1,.8,1.1,1.92,1.92,0,0,0,2,1c3.64-.07,7.28,0,10.92,0,.13,0,.33,0,.38-.1C21.13,4.39,21.54,3.75,22,3ZM22,26.5c-.43-.65-.84-1.25-1.23-1.86a.56.56,0,0,0-.55-.29H8.91a.71.71,0,0,0-.71.39c-.3.5-.63,1-.95,1.47-.05.08-.1.17-.16.29Zm2-5.81V8.22l-.74.53c-.36.27-.86.47-1,.84a3.29,3.29,0,0,0-.07,1.36q0,4.07,0,8.13c0,.14,0,.35.11.42A19,19,0,0,0,24,20.69Zm-18.44.19c.61-.4,1.18-.76,1.74-1.14a.37.37,0,0,0,.11-.27V9.94c0-.09,0-.22-.07-.26-.56-.42-1.16-.83-1.78-1.29ZM20.41,5.54h-12c.43.59.82,1.14,1.24,1.67a.51.51,0,0,0,.36.16h9a.4.4,0,0,0,.3-.12C19.69,6.75,20,6.14,20.41,5.54ZM8.75,24H20.33c-.4-.61-.77-1.17-1.16-1.72a.46.46,0,0,0-.34-.12h-8.6c-.1,0-.25,0-.29.08C9.55,22.75,9.17,23.35,8.75,24Zm15.13,4.71,5-4.26L26.75,23l-4.23,3.64ZM6.46,26.81,2.75,23.1l-2,1.28,4.41,4.37ZM22.56,2.75l3.87,3a.29.29,0,0,0,.32,0c.64-.45,1.26-.92,1.93-1.42L23.86.75Zm-.21,23.61,4.11-3.54L25.22,22c-.32-.21-.65-.6-1-.58s-.62.43-.92.68L20.9,24.2ZM2.63,5.86,5.89,2.68,4.45.75.62,4.41Zm.56,17,3.56,3.52,1.39-2.12L5.33,21.45ZM22.37,3.09,21,5.31,24.1,7.67l2.18-1.62Zm-16.18,0L3,6.09,5.15,7.67l2.6-2.48ZM22,19.81,19.46,22l1.29,1.89L24,21.12ZM19.59,7.55l2.3,1.75,1.86-1.41-3-2.27ZM8.41,23.86l1.24-1.92-1.9-1.85a.26.26,0,0,0-.24,0L5.7,21.19ZM8,5.62,5.58,8,7.43,9.3,9.37,7.43Z" fill="#555" stroke="#555" stroke-width="0.4" stroke-linecap="round" stroke-linejoin="round" transform="translate(0)"></path>
  </g>
</svg>
