<?xml version="1.0" encoding="utf-8"?>
<svg id="Layer_1" width="30" height="30" data-name="Layer 1" xmlns="http://www.w3.org/2000/svg" viewBox="0 0 24.35 28">
  <title>cushion-1</title>
  <g id="cushion-1">
    <path d="M27.16,15c0,1.48,0,3,0,4.44a9.43,9.43,0,0,1-7.53,9.36A7.86,7.86,0,0,1,18,29c-2,0-4,0-6,0a9.37,9.37,0,0,1-9.12-8.64c-.11-1.51-.05-3-.06-4.54,0-1.78,0-3.55,0-5.33a9.43,9.43,0,0,1,7.5-9.25A8.34,8.34,0,0,1,12,1c2.09,0,4.17-.06,6.26,0a9.34,9.34,0,0,1,8.6,7.23,12.61,12.61,0,0,1,.27,2.35C27.19,12.08,27.16,13.54,27.16,15Zm-5.55,6.62V8.34H8.34V21.61ZM8.78,4.65,9,4.76c1.92.94,3.84,1.89,5.77,2.82a.61.61,0,0,0,.46,0c1.39-.67,2.78-1.35,4.17-2l1.79-.87-.3-.17c-1.72-.86-3.46-1.68-5.16-2.58a1.42,1.42,0,0,0-1.5,0C12.42,2.86,10.62,3.73,8.78,4.65ZM8.94,25.3l.17.1c1.88,1,3.76,2,5.64,2.92a.54.54,0,0,0,.43,0c1.84-.95,3.68-1.91,5.51-2.86l.24-.15-.3-.16c-1.71-.87-3.43-1.73-5.13-2.63a1,1,0,0,0-1.12,0C12.6,23.45,10.79,24.36,8.94,25.3ZM24.41,9.07c0,.09-.07.13-.08.17-.68,1.87-1.37,3.74-2,5.61a.66.66,0,0,0,0,.42q1,2.74,2.09,5.48c0,.08.07.15.13.26.67-2,1.32-3.84,2-5.74a.66.66,0,0,0,0-.39c-.2-.59-.41-1.17-.62-1.75Zm-18.79,0a1.51,1.51,0,0,0-.09.17c-.67,1.87-1.35,3.75-2,5.62a.71.71,0,0,0,0,.42c.32,1,.65,1.93,1,2.89l1,2.8a.75.75,0,0,0,.08-.12Q6.61,18,7.66,15.18a.47.47,0,0,0,0-.29C7,13,6.31,11,5.62,9.08ZM15.44,22l0,.07,6.19,3.15V22Zm-.94.06,0-.05H8.34V25.2Zm.89-14.19,0,.05h6.19V4.83Zm-7.06.05h6.18V7.86l-6.19-3Zm7.15,20.65,0,.06c.94,0,1.89,0,2.83,0a8.23,8.23,0,0,0,3-.75c.1,0,.24-.15.24-.24,0-.73,0-1.46,0-2.25ZM8.32,25.4c0,.77,0,1.49,0,2.21,0,.08.12.19.21.22.59.21,1.18.44,1.78.59a15.72,15.72,0,0,0,3.79.22l.28,0v-.06ZM21.63,4.51c0-.61,0-1.15,0-1.69s0-.58-.52-.79L21,2a13,13,0,0,0-5.48-.63s0,0-.06.07ZM14.4,1.45l0-.08H12.29a9.2,9.2,0,0,0-3.73.8.35.35,0,0,0-.25.39c0,.4,0,.8,0,1.2,0,.23,0,.46,0,.74ZM22,22v3.07h2.33V22ZM8,25.12c0-.83,0-1.61,0-2.4S8,22,7.22,22H5.66v3.13Zm0-3.51v-6H7.88l-2.23,6ZM24.52,8.31l2.22,6.26c.07-.05.08-.09.08-.13,0-1.35,0-2.7,0-4a16.06,16.06,0,0,0-.2-1.8c0-.1-.12-.26-.19-.26C25.8,8.31,25.19,8.31,24.52,8.31ZM7.88,14.43l.06,0V8.33H5.73ZM5.48,8.31c-.66,0-1.27,0-1.87,0-.07,0-.18.13-.2.21a6.1,6.1,0,0,0-.17,1.08c0,1.53,0,3.07-.06,4.6,0,.09,0,.19,0,.28h.08Zm18.86,13.3-2.27-5.93-.06,0v5.91ZM22,8.33v6h.06l2.2-6.05Zm0-3.54V7.92H24.2V4.79ZM5.8,4.79V7.92H7.93V4.79Zm21,10.81-2.07,6h.84c1.16,0,1.2,0,1.22-1.18C26.79,18.86,26.76,17.27,26.76,15.6Zm-21.47,6-2-6a.19.19,0,0,0-.07.16c0,1.25,0,2.5,0,3.74a17.93,17.93,0,0,0,.19,1.87c0,.09.13.23.21.24C4.14,21.63,4.69,21.63,5.29,21.63ZM26.4,7.93A7.06,7.06,0,0,0,24.6,4.64V7.93Zm-22.84,0H5.4V4.54A9,9,0,0,0,3.56,7.92ZM5.25,25.3V22H3.53A9.11,9.11,0,0,0,5.25,25.3ZM24.76,22v3.28A8.88,8.88,0,0,0,26.46,22ZM7.94,25.5H5.43a8.61,8.61,0,0,0,2.51,2Zm16.65,0H22v2.08A9.15,9.15,0,0,0,24.59,25.48ZM7.94,2.48A8.88,8.88,0,0,0,5.53,4.39H7.94ZM24.49,4.4A9.07,9.07,0,0,0,22,2.47V4.4Z" transform="translate(-2.83 -1)"></path>
  </g>
</svg>