<?xml version="1.0" encoding="utf-8"?>
<svg width="19" height="30" viewBox="0 0 19 30" fill="none" xmlns="http://www.w3.org/2000/svg">
                      <path d="M18.1111 3.45511C18.1111 3.45511 18.1111 3.39666 18.0541 3.39666L15.7726 1.05846C15.7726 1.05846 15.7156 1.05846 15.7156 1H3.39556C3.39556 1 3.33852 1 3.33852 1.05846L1.05704 3.39666C1.05704 3.39666 1.05704 3.45511 1 3.45511V26.5449C1 26.5449 1 26.6033 1.05704 26.6033L3.33852 28.9415L3.39556 29H15.7156C15.7156 29 15.7726 29 15.7726 28.9415L18.0541 26.6033C18.0541 26.6033 18.0541 26.5449 18.1111 26.5449V3.45511ZM1.17111 3.68894L2.02667 4.33194V25.785L1.17111 26.428V3.68894ZM17.883 3.45511L17.4267 3.80585L16.9704 4.09812L15.0311 2.1691L15.7156 1.29228L17.883 3.45511ZM5.84815 25.8434L4.47926 24.1482V5.91023L5.84815 4.21503H13.32L14.6889 5.91023V24.1482L13.32 25.8434H5.84815ZM3.45259 5.32568L4.30815 5.91023V24.1482L3.50963 24.7328V14.9123L3.45259 5.32568ZM4.36519 24.3236L5.67704 25.9603L5.1637 26.6033L3.56667 24.9666L4.36519 24.3236ZM5.67704 4.09812L4.36519 5.73486L3.50963 5.09186L5.10667 3.45511L5.67704 4.09812ZM15.6585 24.9666L14.0044 26.6033L13.4911 25.9019L14.803 24.2651L15.0311 24.4405L15.6585 24.9666ZM14.0044 3.45511L15.6015 5.09186L14.7459 5.73486L13.4341 4.09812L13.7763 3.63048L14.0044 3.45511ZM15.7156 24.7912L14.86 24.1482V5.91023L15.7156 5.26722V15.0292V24.7912ZM14.917 2.28601L16.8563 4.21503L15.8296 4.97495L14.1185 3.27975L14.4037 2.92902L14.917 2.28601ZM13.7763 3.39666L13.32 3.98121H5.84815L5.33481 3.39666H9.55555H13.7763ZM5.33481 26.6618L5.84815 26.0772H13.32L13.8333 26.7203H8.18667L5.33481 26.6618ZM14.1185 26.7787L14.4037 26.4864L15.8296 25.0835L16.7993 25.785L14.917 27.714L14.1185 26.7787ZM15.8867 24.9081V14.9708V5.15031L16.8563 4.44885V25.6096L15.8867 24.9081ZM14.6889 2.22756L14.4607 2.51983L13.9474 3.16284H9.55555H5.1637L4.42222 2.22756H9.55555H14.6889ZM3.22444 5.15031L3.28148 15.0292V24.8497L2.25481 25.6096V4.44885L2.36889 4.50731L3.22444 5.15031ZM2.31185 25.8434L2.88222 25.4342L3.39556 25.0835L4.99259 26.7203L4.70741 27.071L4.13704 27.7724L2.9963 26.6033L2.31185 25.8434ZM4.36519 27.8309L5.1637 26.8372H9.61259H13.9474L14.0044 26.8956L14.6889 27.7724H9.55555L4.36519 27.8309ZM14.86 2.05219H9.55555H4.25111L4.13704 1.87683L3.6237 1.17537H15.4874L14.86 2.05219ZM4.19407 2.28601L4.87852 3.10438L4.99259 3.27975L3.33852 4.97495L2.65407 4.44885L2.31185 4.21503L3.50963 2.98747L4.19407 2.28601ZM4.25111 28.0647H9.55555H14.917L15.0311 28.2401L15.5444 28.8831H3.6237L4.25111 28.0647ZM15.7156 28.7662L15.0311 27.8894L16.9704 25.9019L17.883 26.5449L15.7156 28.7662ZM17.0844 25.7265V4.27349L17.5407 3.92276L17.883 3.63048V26.3695L17.5407 26.1357L17.0844 25.7265ZM3.39556 1.23382L4.08 2.11065L3.39556 2.87056L2.14074 4.09812L1.22815 3.45511L3.39556 1.23382ZM1.34222 26.5449L2.14074 25.9603L4.02296 28.0063L3.39556 28.8246L1.22815 26.6033L1.34222 26.5449Z" fill="#555" stroke="#555" stroke-width="0.6" stroke-linecap="round"></path>
                    </svg>