<?xml version="1.0" encoding="utf-8"?>
<svg width="33" height="30" viewBox="0 0 33 30" fill="none" xmlns="http://www.w3.org/2000/svg">
                        <path d="M1.2057 12.1743C1.27025 12.2385 1.27025 12.2385 1.2057 12.1743C1.2057 12.2385 1.2057 12.3028 1.27025 12.3028V12.367C1.27025 12.367 1.27025 12.367 1.27025 12.4312V12.4954C1.33481 12.6881 1.39937 12.8165 1.46392 13.0092L1.52848 13.1376V13.2018L1.65759 13.5229C1.65759 13.5872 1.72215 13.6514 1.72215 13.7156L1.98037 14.3578L2.04493 14.5505L2.10949 14.6147L2.62594 15.578C2.62594 15.578 2.62594 15.578 2.62594 15.6422L2.81961 16.0275C2.88416 16.156 3.01328 16.2844 3.07783 16.4771C3.14239 16.5413 3.14239 16.6055 3.20695 16.6055L3.40062 16.8624L3.78795 17.3119C3.85251 17.3761 3.85251 17.3761 3.91707 17.4404C6.04743 20.0734 8.24235 22.6422 10.8892 24.7615C11.6638 25.4037 12.4385 26.0459 13.2132 26.6239L13.6005 26.8807C13.7296 26.945 13.7942 27.0092 13.9233 27.1376L16.5056 29C16.5701 29 16.5701 29 16.6347 29L19.2169 27.1376C19.2815 27.0734 19.3461 27.0092 19.4106 27.0092L20.0562 26.5596C20.8309 25.9816 21.541 25.4037 22.2511 24.7615C22.2511 24.7615 22.2511 24.7615 22.3157 24.7615C23.5422 23.6697 24.8979 22.6422 25.9954 21.422C27.1574 20.1376 28.1903 18.8532 29.2878 17.5046C29.3523 17.4404 29.3523 17.4404 29.4169 17.3761L29.8042 16.9266C29.8042 16.9266 29.8042 16.9266 29.8042 16.8624L29.8688 16.7982L29.9333 16.7339C29.9979 16.6697 29.9979 16.6055 30.0624 16.6055L29.9979 16.5413H30.127C30.1915 16.4128 30.3207 16.2844 30.3852 16.156L30.6434 15.6422C30.6434 15.578 30.708 15.578 30.708 15.5138L30.9017 15.1927L31.1599 14.6789L31.289 14.422L31.4827 13.9083C31.4827 13.844 31.4827 13.844 31.5472 13.7798L31.6118 13.5229V13.4587L31.6763 13.3945L31.7409 13.2661C31.7409 13.2018 31.7409 13.2018 31.8055 13.1376L31.9346 12.8165H31.8055H31.9346V12.7523L31.8055 12.6881H31.9346H31.87H31.9991V12.5596C32.3865 11.1468 32.1282 9.41284 31.9346 7.93578C31.8055 6.84404 31.4181 6.00917 30.8371 5.04587C30.3852 4.33945 29.9333 3.44037 29.2878 2.86239C28.1257 1.89908 26.3182 1 24.7688 1.12844C23.9296 1.12844 23.1549 1.19266 22.3157 1.3211C21.541 1.44954 20.7017 1.51376 20.0562 1.9633C18.8296 2.92661 17.4739 3.95413 16.6347 5.30275C16.0537 4.46789 15.279 3.76147 14.5043 3.11927C14.0524 2.66972 13.4714 2.02752 12.8904 1.77064C11.6638 1.19266 9.85626 1.12844 8.50058 1.12844C6.95122 0.678899 4.94997 1.57798 3.85251 2.66972C3.40062 3.05505 3.07783 3.69725 2.75505 4.14679C2.30316 4.85321 1.59303 5.75229 1.46392 6.58716C1.14114 8.3211 0.753801 10.5046 1.2057 12.1743ZM1.72215 6.52293C2.04493 5.62385 3.40062 3.63303 3.85251 2.99083L5.07908 7.74312L1.72215 6.52293ZM28.1903 7.74312L29.4169 2.99083C29.8688 3.63303 31.2244 5.62385 31.5472 6.52293L28.1903 7.74312ZM25.7372 21.3578L22.3157 23.0917L18.184 25.1468L23.6713 19.0459L27.0283 16.4771L26.1245 20.0734L25.7372 21.3578ZM26.3182 12.4312L27.1574 16.156L23.865 18.5963L24.446 17.055L26.3182 12.4312ZM14.9562 24.6972L10.179 19.4312L16.441 23.2844L15.4727 25.3394L14.9562 24.6972ZM6.11199 16.156L6.95122 12.4312L8.7588 17.1193L9.33981 18.6605L7.08033 16.8624L6.11199 16.156ZM25.608 13.5872L23.5422 18.8532L16.6347 23.0917L9.72715 18.8532L7.66134 13.5872L7.08033 12.0459L8.11324 6.97248L16.6347 6.58716L25.1561 6.97248L26.189 12.0459L25.608 13.5872ZM17.7321 25.2752L16.7638 23.2844L21.3473 20.4587L23.0258 19.4312L22.1865 20.3303L17.7321 25.2752ZM23.1549 6.65138L17.5385 6.39449L22.9612 5.23853L24.8979 6.7156L23.1549 6.65138ZM13.7296 6.45871L8.37146 6.7156L10.3082 5.23853L15.7955 6.39449L13.7296 6.45871ZM25.2853 6.77982L23.2194 5.17431L29.1586 2.92661L27.9321 7.80734L25.2853 6.77982ZM5.33731 8L7.85501 7.0367L6.88666 11.6606L6.69299 11.1468L5.33731 8ZM1.52848 12.1743L5.2082 8.12844L6.82211 12.0459L5.91832 15.9633L1.52848 12.1743ZM7.53223 21.3578L6.17654 16.4771L9.53348 19.0459L15.0208 25.1468L8.82336 22.0642L7.53223 21.3578ZM16.6347 23.4771L17.603 25.4679L16.6347 28.5505L15.6663 25.4679L16.6347 23.4771ZM26.3827 11.6606L25.4144 7.0367L27.9321 8L26.6409 11.1468L26.3827 11.6606ZM21.8638 5.23853L20.8309 5.43119L16.6347 6.26605L11.5347 5.30275H11.4056H16.6347L21.8638 5.23853ZM9.98537 5.17431L7.91957 6.77982L5.27275 7.80734L4.04618 2.92661L9.98537 5.17431ZM17.7967 25.7248L18.3777 26.367L19.0233 27.0734L16.8284 28.6789L17.7967 25.7248ZM27.3511 15.9633L26.4473 12.0459L26.7055 11.4037L28.0612 8.12844L30.5789 10.8899L31.7409 12.1743L31.5472 12.367L27.3511 15.9633ZM3.59428 16.7339C3.59428 16.7339 3.52973 16.7339 3.59428 16.7339L3.46517 16.5413C3.40062 16.4771 3.40062 16.4128 3.33606 16.4128V16.3486C3.2715 16.2202 3.14239 16.0917 3.07783 15.9633L2.88416 15.6422V15.578L2.43227 14.6789C2.43227 14.6789 2.43227 14.6147 2.36771 14.6147L1.98037 13.6514C1.98037 13.5872 1.98037 13.5872 1.91582 13.5229L1.72215 13.0092C1.65759 12.8807 1.59303 12.6881 1.59303 12.5596L5.7892 16.2202L4.17529 17.2477L4.04618 17.3119L3.98162 17.2477L3.59428 16.7339ZM4.17529 17.4404L5.85376 16.3486L7.14489 21.0367C6.17654 19.8807 5.14364 18.6605 4.17529 17.4404ZM13.536 26.6239C13.4714 26.5596 13.4714 26.5596 13.536 26.6239L13.4069 26.4954C12.6322 25.9174 11.8575 25.2752 11.0828 24.633C10.0499 23.7339 9.08158 22.8349 8.11324 21.9358L15.4081 25.5963L14.117 27.0092C14.0524 27.0092 14.0524 26.945 13.9879 26.945L13.536 26.6239ZM15.4727 25.7248L16.441 28.6789L14.2461 27.0734L15.4727 25.7248ZM22.8967 23.9908C22.6384 24.1835 22.4448 24.3761 22.1865 24.633C21.4764 25.2752 20.7663 25.8532 19.9916 26.4312L19.798 26.5596C19.798 26.5596 19.7334 26.5596 19.7334 26.6239L19.3461 26.8807C19.2815 26.8807 19.2815 26.945 19.2169 26.945L17.9258 25.5321L25.2207 21.8716C24.6397 22.4495 23.8005 23.2202 22.8967 23.9908C22.703 24.1835 23.8005 23.2202 22.8967 23.9908ZM28.2549 18.4037C27.2865 19.5596 26.5764 20.4587 26.0599 20.9725L27.3511 16.2844L29.0295 17.3761C28.9004 17.633 28.6422 17.9541 28.2549 18.4037C27.2865 19.5596 28.6422 17.9541 28.2549 18.4037ZM31.6763 12.5596C31.6763 12.6239 31.6763 12.6239 31.6763 12.5596L31.6118 12.8165C31.6118 12.8807 31.6118 12.8807 31.5472 12.945L31.4827 13.0734L31.6118 13.1376H31.4827V13.2018L31.6118 13.2661H31.4827L31.3536 13.5229C31.3536 13.5872 31.3536 13.5872 31.289 13.6514L31.2244 13.844V13.9083L30.9662 14.4862L31.0953 14.5505H30.9662C30.9662 14.6147 30.9017 14.6789 30.9017 14.7431L30.708 15.0642L30.5789 15.3853C30.5789 15.4495 30.5143 15.5138 30.5143 15.5138L30.2561 16.0275C30.1915 16.156 30.0624 16.2844 29.9979 16.4128V16.4771C29.9333 16.5413 29.9333 16.6055 29.8688 16.6055L29.8042 16.6697C29.8042 16.6697 29.8042 16.7339 29.7397 16.7339L29.3523 17.1835L29.2878 17.2477L29.1586 17.1835L27.4802 16.156L31.6763 12.4954V12.5596ZM31.87 11.9174L28.2549 7.93578L30.0624 7.29358L31.6118 6.7156C31.6763 7.42202 32.1282 10.4404 31.87 11.9174ZM29.1586 2.66972L23.2194 4.91743L24.8334 1.06422H24.8979C27.0283 1.06422 28.6422 2.2844 29.1586 2.66972ZM24.5751 1.06422L23.4131 3.95413L22.9612 4.91743L20.5726 1.6422C21.8638 1.25688 23.2194 1 24.5751 1.06422ZM20.379 1.70642L22.7676 5.04587L16.8284 5.11009C17.5385 4.01835 19.8625 2.09174 20.379 1.70642ZM16.441 5.04587L10.5018 4.98165L12.8904 1.6422C13.3423 2.09174 15.7309 4.01835 16.441 5.04587ZM12.6322 1.57798L10.2436 4.85321L9.85626 3.88991L8.69424 1C9.98537 1 11.4056 1.25688 12.6322 1.57798ZM8.37146 1.06422L10.0499 4.91743L4.11074 2.66972C4.62719 2.2844 6.2411 1.06422 8.37146 1.06422ZM1.65759 6.77982L3.20695 7.3578L5.01453 8L1.39937 11.9817C1.07658 10.4404 1.52848 7.42202 1.65759 6.77982Z" fill="#555"></path>
                        <path d="M22.8967 23.9908C22.6384 24.1835 22.4448 24.3761 22.1865 24.633C21.4764 25.2752 20.7663 25.8532 19.9916 26.4312L19.798 26.5596C19.798 26.5596 19.7334 26.5596 19.7334 26.6239L19.3461 26.8807C19.2815 26.8807 19.2815 26.945 19.2169 26.945L17.9258 25.5321L25.2207 21.8716C24.6397 22.4495 23.8005 23.2202 22.8967 23.9908ZM22.8967 23.9908C22.703 24.1835 23.8005 23.2202 22.8967 23.9908ZM28.2549 18.4037C27.2865 19.5596 26.5764 20.4587 26.0599 20.9725L27.3511 16.2844L29.0295 17.3761C28.9004 17.633 28.6422 17.9541 28.2549 18.4037ZM28.2549 18.4037C27.2865 19.5596 28.6422 17.9541 28.2549 18.4037ZM1.2057 12.1743C1.27025 12.2385 1.27025 12.2385 1.2057 12.1743C1.2057 12.2385 1.2057 12.3028 1.27025 12.3028V12.367C1.27025 12.367 1.27025 12.367 1.27025 12.4312V12.4954C1.33481 12.6881 1.39937 12.8165 1.46392 13.0092L1.52848 13.1376V13.2018L1.65759 13.5229C1.65759 13.5872 1.72215 13.6514 1.72215 13.7156L1.98037 14.3578L2.04493 14.5505L2.10949 14.6147L2.62594 15.578C2.62594 15.578 2.62594 15.578 2.62594 15.6422L2.81961 16.0275C2.88416 16.156 3.01328 16.2844 3.07783 16.4771C3.14239 16.5413 3.14239 16.6055 3.20695 16.6055L3.40062 16.8624L3.78795 17.3119C3.85251 17.3761 3.85251 17.3761 3.91707 17.4404C6.04743 20.0734 8.24235 22.6422 10.8892 24.7615C11.6638 25.4037 12.4385 26.0459 13.2132 26.6239L13.6005 26.8807C13.7296 26.945 13.7942 27.0092 13.9233 27.1376L16.5056 29C16.5701 29 16.5701 29 16.6347 29L19.2169 27.1376C19.2815 27.0734 19.3461 27.0092 19.4106 27.0092L20.0562 26.5596C20.8309 25.9816 21.541 25.4037 22.2511 24.7615C22.2511 24.7615 22.2511 24.7615 22.3157 24.7615C23.5422 23.6697 24.8979 22.6422 25.9954 21.422C27.1574 20.1376 28.1903 18.8532 29.2878 17.5046C29.3523 17.4404 29.3523 17.4404 29.4169 17.3761L29.8042 16.9266C29.8042 16.9266 29.8042 16.9266 29.8042 16.8624L29.8688 16.7982L29.9333 16.7339C29.9979 16.6697 29.9979 16.6055 30.0624 16.6055L29.9979 16.5413H30.127C30.1915 16.4128 30.3207 16.2844 30.3852 16.156L30.6434 15.6422C30.6434 15.578 30.708 15.578 30.708 15.5138L30.9017 15.1927L31.1599 14.6789L31.289 14.422L31.4827 13.9083C31.4827 13.844 31.4827 13.844 31.5472 13.7798L31.6118 13.5229V13.4587L31.6763 13.3945L31.7409 13.2661C31.7409 13.2018 31.7409 13.2018 31.8055 13.1376L31.9346 12.8165H31.8055H31.9346V12.7523L31.8055 12.6881H31.9346H31.87H31.9991V12.5596C32.3865 11.1468 32.1282 9.41284 31.9346 7.93578C31.8055 6.84404 31.4181 6.00917 30.8371 5.04587C30.3852 4.33945 29.9333 3.44037 29.2878 2.86239C28.1257 1.89908 26.3182 1 24.7688 1.12844C23.9296 1.12844 23.1549 1.19266 22.3157 1.3211C21.541 1.44954 20.7017 1.51376 20.0562 1.9633C18.8296 2.92661 17.4739 3.95413 16.6347 5.30275C16.0537 4.46789 15.279 3.76147 14.5043 3.11927C14.0524 2.66972 13.4714 2.02752 12.8904 1.77064C11.6638 1.19266 9.85626 1.12844 8.50058 1.12844C6.95122 0.678899 4.94997 1.57798 3.85251 2.66972C3.40062 3.05505 3.07783 3.69725 2.75505 4.14679C2.30316 4.85321 1.59303 5.75229 1.46392 6.58716C1.14114 8.3211 0.753801 10.5046 1.2057 12.1743ZM1.72215 6.52293C2.04493 5.62385 3.40062 3.63303 3.85251 2.99083L5.07908 7.74312L1.72215 6.52293ZM28.1903 7.74312L29.4169 2.99083C29.8688 3.63303 31.2244 5.62385 31.5472 6.52293L28.1903 7.74312ZM25.7371 21.3578L22.3157 23.0917L18.184 25.1468L23.6713 19.0459L27.0283 16.4771L26.1245 20.0734L25.7371 21.3578ZM26.3182 12.4312L27.1574 16.156L23.865 18.5963L24.446 17.055L26.3182 12.4312ZM14.9562 24.6972L10.179 19.4312L16.441 23.2844L15.4727 25.3394L14.9562 24.6972ZM6.11199 16.156L6.95122 12.4312L8.7588 17.1193L9.33981 18.6605L7.08033 16.8624L6.11199 16.156ZM25.608 13.5872L23.5422 18.8532L16.6347 23.0917L9.72715 18.8532L7.66134 13.5872L7.08033 12.0459L8.11324 6.97248L16.6347 6.58716L25.1561 6.97248L26.189 12.0459L25.608 13.5872ZM17.7321 25.2752L16.7638 23.2844L21.3473 20.4587L23.0258 19.4312L22.1865 20.3303L17.7321 25.2752ZM23.1549 6.65138L17.5385 6.39449L22.9612 5.23853L24.8979 6.7156L23.1549 6.65138ZM13.7296 6.45872L8.37146 6.7156L10.3082 5.23853L15.7955 6.39449L13.7296 6.45872ZM25.2853 6.77982L23.2194 5.17431L29.1586 2.92661L27.9321 7.80734L25.2853 6.77982ZM5.33731 8L7.85501 7.0367L6.88666 11.6605L6.69299 11.1468L5.33731 8ZM1.52848 12.1743L5.2082 8.12844L6.82211 12.0459L5.91832 15.9633L1.52848 12.1743ZM7.53223 21.3578L6.17654 16.4771L9.53348 19.0459L15.0208 25.1468L8.82336 22.0642L7.53223 21.3578ZM16.6347 23.4771L17.603 25.4679L16.6347 28.5505L15.6663 25.4679L16.6347 23.4771ZM26.3827 11.6605L25.4144 7.0367L27.9321 8L26.6409 11.1468L26.3827 11.6605ZM21.8638 5.23853L20.8309 5.43119L16.6347 6.26605L11.5347 5.30275H11.4056H16.6347L21.8638 5.23853ZM9.98537 5.17431L7.91957 6.77982L5.27275 7.80734L4.04618 2.92661L9.98537 5.17431ZM17.7967 25.7248L18.3777 26.367L19.0233 27.0734L16.8284 28.6789L17.7967 25.7248ZM27.3511 15.9633L26.4473 12.0459L26.7055 11.4037L28.0612 8.12844L30.5789 10.8899L31.7409 12.1743L31.5472 12.367L27.3511 15.9633ZM3.59428 16.7339C3.59428 16.7339 3.52973 16.7339 3.59428 16.7339L3.46517 16.5413C3.40062 16.4771 3.40062 16.4128 3.33606 16.4128V16.3486C3.2715 16.2202 3.14239 16.0917 3.07783 15.9633L2.88416 15.6422V15.578L2.43227 14.6789C2.43227 14.6789 2.43227 14.6147 2.36771 14.6147L1.98037 13.6514C1.98037 13.5872 1.98037 13.5872 1.91582 13.5229L1.72215 13.0092C1.65759 12.8807 1.59303 12.6881 1.59303 12.5596L5.7892 16.2202L4.17529 17.2477L4.04618 17.3119L3.98162 17.2477L3.59428 16.7339ZM4.17529 17.4404L5.85376 16.3486L7.14489 21.0367C6.17654 19.8807 5.14364 18.6605 4.17529 17.4404ZM13.536 26.6239C13.4714 26.5596 13.4714 26.5596 13.536 26.6239L13.4069 26.4954C12.6322 25.9174 11.8575 25.2752 11.0828 24.633C10.0499 23.7339 9.08158 22.8349 8.11324 21.9358L15.4081 25.5963L14.117 27.0092C14.0524 27.0092 14.0524 26.945 13.9879 26.945L13.536 26.6239ZM15.4727 25.7248L16.441 28.6789L14.2461 27.0734L15.4727 25.7248ZM31.6763 12.5596C31.6763 12.6239 31.6763 12.6239 31.6763 12.5596L31.6118 12.8165C31.6118 12.8807 31.6118 12.8807 31.5472 12.945L31.4827 13.0734L31.6118 13.1376H31.4827V13.2018L31.6118 13.2661H31.4827L31.3536 13.5229C31.3536 13.5872 31.3536 13.5872 31.289 13.6514L31.2244 13.844V13.9083L30.9662 14.4862L31.0953 14.5505H30.9662C30.9662 14.6147 30.9017 14.6789 30.9017 14.7431L30.708 15.0642L30.5789 15.3853C30.5789 15.4495 30.5143 15.5138 30.5143 15.5138L30.2561 16.0275C30.1915 16.156 30.0624 16.2844 29.9979 16.4128V16.4771C29.9333 16.5413 29.9333 16.6055 29.8688 16.6055L29.8042 16.6697C29.8042 16.6697 29.8042 16.7339 29.7397 16.7339L29.3523 17.1835L29.2878 17.2477L29.1586 17.1835L27.4802 16.156L31.6763 12.4954V12.5596ZM31.87 11.9174L28.2549 7.93578L30.0624 7.29358L31.6118 6.7156C31.6763 7.42202 32.1282 10.4404 31.87 11.9174ZM29.1586 2.66972L23.2194 4.91743L24.8334 1.06422H24.8979C27.0283 1.06422 28.6422 2.2844 29.1586 2.66972ZM24.5751 1.06422L23.4131 3.95413L22.9612 4.91743L20.5726 1.6422C21.8638 1.25688 23.2194 1 24.5751 1.06422ZM20.379 1.70642L22.7676 5.04587L16.8284 5.11009C17.5385 4.01835 19.8625 2.09174 20.379 1.70642ZM16.441 5.04587L10.5018 4.98165L12.8904 1.6422C13.3423 2.09174 15.7309 4.01835 16.441 5.04587ZM12.6322 1.57798L10.2436 4.85321L9.85626 3.88991L8.69424 1C9.98537 1 11.4056 1.25688 12.6322 1.57798ZM8.37146 1.06422L10.0499 4.91743L4.11074 2.66972C4.62719 2.2844 6.2411 1.06422 8.37146 1.06422ZM1.65759 6.77982L3.20695 7.3578L5.01453 8L1.39937 11.9817C1.07658 10.4404 1.52848 7.42202 1.65759 6.77982Z" stroke="#555" stroke-width="0.6" stroke-linecap="round" stroke-linejoin="round"></path>
                      </svg>