<?xml version="1.0" encoding="utf-8"?>
<svg width="17" height="30" viewBox="0 0 17 30" fill="none" xmlns="http://www.w3.org/2000/svg">
                        <path d="M16.5374 15.0292C16.6592 12.2234 15.5631 9.35908 14.1625 6.90397C13.4317 5.61795 12.5792 4.33194 11.544 3.22129C10.8742 2.46138 9.83896 1.35073 8.80376 1C6.30708 2.11065 4.60203 4.74113 3.38414 6.90397C1.98356 9.35908 0.887463 12.1649 1.00925 15.0292C0.887463 17.952 2.04446 20.8747 3.56682 23.3883C4.29756 24.6743 5.15008 25.9019 6.18529 27.0125C6.79424 27.6555 7.82944 28.8831 8.74286 29C8.74286 29 8.74286 29 8.80376 29C9.71717 28.8831 10.8133 27.5971 11.3613 27.0125C12.3965 25.9019 13.2491 24.6743 13.9798 23.3883C15.5022 20.8747 16.72 17.952 16.5374 15.0292ZM5.69813 26.1357C5.08919 25.3758 4.41935 24.499 3.8713 23.5637L4.72382 23.9144L7.1596 24.9666L6.67245 25.3758L5.69813 26.1357ZM11.8485 3.8643C12.4574 4.62422 13.1273 5.50104 13.6753 6.43633L12.5183 5.91023L10.4479 5.0334L10.8742 4.68267L11.8485 3.8643ZM13.7971 23.2714L13.4926 23.3883L10.3261 24.7328L11.3004 20.5825L13.858 18.0689L13.7971 22.6284V23.2714ZM3.74951 23.2714V22.6284L3.68861 18.1273L6.24618 20.6409L7.2205 24.7912L4.05398 23.3883L3.74951 23.2714ZM3.74951 6.7286L4.11487 6.55324L7.2205 5.20877L6.24618 9.30063L3.68861 11.8142L3.74951 7.31315V6.7286ZM8.68197 28.2985L7.46408 24.9666L8.68197 23.5052V28.2985ZM12.8228 17.0167C12.8837 16.666 12.9446 16.3737 12.9446 16.023L13.858 17.8351L13.7362 17.952L11.7876 19.881C12.2747 19.0042 12.5792 18.0104 12.8228 17.0167ZM9.35181 22.5699C9.16912 22.7453 8.98644 22.9207 8.80376 23.096C8.74286 23.0376 8.68197 22.9791 8.56018 22.8622L8.49928 22.8038C6.36797 20.8163 4.9674 18.5365 4.78471 15.6722C4.78471 15.4969 4.84561 15.263 4.84561 15.0877C4.9065 14.9123 4.78471 14.62 4.78471 14.4447C4.9065 12.8664 5.33277 11.3466 6.12439 10.0021C6.79424 8.83299 7.76855 7.95616 8.74286 7.02088C8.80376 7.07933 8.86465 7.13779 8.98644 7.2547L9.04733 7.31315C11.1786 9.30063 12.5792 11.5804 12.7619 14.5031C12.7619 14.6785 12.701 14.9123 12.701 15.1461C12.701 15.1461 12.701 15.1461 12.701 15.2046C12.7619 15.4384 12.7619 15.6138 12.7619 15.8476C12.5792 18.3612 11.3613 20.6409 9.35181 22.5699C9.23002 22.6284 9.83896 22.1023 9.35181 22.5699ZM3.68861 17.8351L4.60203 16.023C4.72382 17.3674 5.15008 18.7119 5.81992 19.881L3.8713 17.952L3.68861 17.8351ZM4.78471 12.9833C4.72382 13.334 4.66293 13.6263 4.66293 13.977L3.74951 12.1649L3.8713 12.048L5.81992 10.119C5.33277 10.9958 4.9674 11.9896 4.78471 12.9833ZM6.73334 21.2255C7.2205 21.8685 7.76855 22.3946 8.37749 22.9207H8.43839C8.56018 23.0376 8.62107 23.096 8.68197 23.1545L7.46408 24.6159L6.61155 20.9916C6.61155 21.1086 6.67245 21.167 6.73334 21.2255ZM13.858 12.1649L12.9446 13.977C12.8228 12.6326 12.3965 11.2881 11.7267 10.119L13.6753 12.048L13.858 12.1649ZM10.8133 8.77453C10.3261 8.18998 9.77807 7.60543 9.16912 7.07933L9.10823 7.02088C8.98644 6.90397 8.92555 6.84551 8.86465 6.78706L10.0825 5.32568L10.9351 8.9499C10.9351 8.89144 10.8742 8.83299 10.8133 8.77453ZM8.37749 7.07933C7.70765 7.66388 7.09871 8.30689 6.55066 9.00835L6.73334 8.24843L7.40318 5.38413L8.62107 6.84551C8.56018 6.84551 8.49928 6.96242 8.37749 7.07933C8.25571 7.13779 8.49928 6.96242 8.37749 7.07933ZM8.86465 23.5052L10.0825 24.9666L8.86465 28.2985V23.5052ZM8.92555 23.2129C9.65628 22.5115 10.387 21.8685 10.996 21.0501L10.6306 22.7453L10.1434 24.6743L9.71717 24.1482L8.92555 23.2129ZM13.7971 6.7286V7.37161L13.858 11.8727L11.3004 9.35908L10.3261 5.26722L13.4317 6.61169L13.7971 6.7286ZM8.86465 6.49478V1.70146L10.0825 5.0334L8.86465 6.49478ZM8.68197 6.49478L7.46408 5.0334L8.68197 1.70146V6.49478ZM4.60203 14.3862C4.60203 14.5616 4.66293 14.7954 4.66293 14.9708C4.60203 15.1461 4.60203 15.38 4.60203 15.6138L3.56682 17.6597L1.25283 15.0292L3.56682 12.3403L4.60203 14.3862ZM13.0055 15.6138C13.0055 15.4384 12.9446 15.2046 12.9446 15.0292C13.0055 14.7954 13.0055 14.62 13.0055 14.3862L14.0407 12.3403L16.3547 15.0292L14.0407 17.7182L13.0055 15.6138ZM5.69813 3.8643L6.73334 4.68267L7.1596 5.0334L5.08919 5.96868L3.8713 6.43633C4.41935 5.5595 5.08919 4.62422 5.69813 3.8643ZM11.8485 26.1357L10.8133 25.3173L10.387 24.9666L12.8228 23.9144L13.6753 23.5637C13.1273 24.499 12.5183 25.3758 11.8485 26.1357ZM16.3547 14.737L15.5022 13.7432L14.1016 12.1065L15.6848 10.9374C16.172 12.3403 16.3547 13.6263 16.3547 14.737ZM15.6848 10.762L14.1016 11.9311L14.0407 8.4238V7.07933C14.7105 8.30689 15.2586 9.5929 15.6848 10.762ZM11.7267 3.68894L10.2652 4.85804L9.23002 1.93528L8.98644 1.29228C9.83896 1.75992 10.8742 2.63674 11.7267 3.68894ZM8.62107 1.29228L8.37749 1.93528L7.34229 4.85804L5.88082 3.68894C6.73334 2.63674 7.76855 1.75992 8.62107 1.29228ZM3.50593 7.07933V8.83299L3.44503 11.9311L1.86178 10.762C2.28804 9.5929 2.83609 8.30689 3.50593 7.07933ZM1.80088 10.9958L3.38414 12.1649L2.7143 12.9833L1.19194 14.737C1.19194 13.6263 1.37462 12.3403 1.80088 10.9958ZM1.25283 15.263L2.77519 17.0167L3.44503 17.8351L1.86178 19.0042C1.37462 17.6597 1.19194 16.4321 1.25283 15.263ZM1.86178 19.238L3.44503 18.0689L3.50593 21.167V22.9207C2.83609 21.6931 2.28804 20.4071 1.86178 19.238ZM5.81992 26.3111L7.28139 25.142L8.56018 28.7077C7.76855 28.2401 6.73334 27.3633 5.81992 26.3111ZM8.98644 28.7077L10.2652 25.142L11.7267 26.3111C10.8742 27.3633 9.83896 28.2401 8.98644 28.7077ZM14.0407 22.9207V21.5762L14.1016 18.0689L15.6848 19.238C15.2586 20.4071 14.7105 21.6931 14.0407 22.9207ZM15.7457 19.0042L14.1625 17.8351L15.5631 16.1983L16.4156 15.2046C16.3547 16.4321 16.172 17.6597 15.7457 19.0042Z" fill="#555"></path>
                        <path d="M9.35181 22.5699C9.16912 22.7453 8.98644 22.9207 8.80376 23.096C8.74286 23.0376 8.68197 22.9791 8.56018 22.8622L8.49928 22.8038C6.36797 20.8163 4.9674 18.5365 4.78471 15.6722C4.78471 15.4969 4.84561 15.263 4.84561 15.0877C4.9065 14.9123 4.78471 14.62 4.78471 14.4447C4.9065 12.8664 5.33277 11.3466 6.1244 10.0021C6.79424 8.83299 7.76855 7.95616 8.74286 7.02088C8.80376 7.07933 8.86465 7.13779 8.98644 7.2547L9.04733 7.31315C11.1786 9.30063 12.5792 11.5804 12.7619 14.5031C12.7619 14.6785 12.701 14.9123 12.701 15.1461C12.701 15.1461 12.701 15.1461 12.701 15.2046C12.7619 15.4384 12.7619 15.6138 12.7619 15.8476C12.5792 18.3612 11.3613 20.6409 9.35181 22.5699ZM9.35181 22.5699C9.23002 22.6284 9.83896 22.1023 9.35181 22.5699ZM8.37749 7.07933C7.70765 7.66388 7.09871 8.30689 6.55066 9.00835L6.73334 8.24843L7.40318 5.38413L8.62107 6.84551C8.56018 6.84551 8.49928 6.96242 8.37749 7.07933ZM8.37749 7.07933C8.25571 7.13779 8.49928 6.96242 8.37749 7.07933ZM16.5374 15.0292C16.6592 12.2234 15.5631 9.35908 14.1625 6.90397C13.4317 5.61795 12.5792 4.33194 11.544 3.22129C10.8742 2.46138 9.83896 1.35073 8.80376 1C6.30708 2.11065 4.60203 4.74113 3.38414 6.90397C1.98356 9.35908 0.887463 12.1649 1.00925 15.0292C0.887463 17.952 2.04446 20.8747 3.56682 23.3883C4.29756 24.6743 5.15008 25.9019 6.18529 27.0125C6.79424 27.6555 7.82944 28.8831 8.74286 29C8.74286 29 8.74286 29 8.80376 29C9.71717 28.8831 10.8133 27.5971 11.3613 27.0125C12.3965 25.9019 13.2491 24.6743 13.9798 23.3883C15.5022 20.8747 16.72 17.952 16.5374 15.0292ZM5.69813 26.1357C5.08919 25.3758 4.41935 24.499 3.8713 23.5637L4.72382 23.9144L7.1596 24.9666L6.67245 25.3758L5.69813 26.1357ZM11.8485 3.8643C12.4574 4.62422 13.1273 5.50104 13.6753 6.43633L12.5183 5.91023L10.4479 5.0334L10.8742 4.68267L11.8485 3.8643ZM13.7971 23.2714L13.4926 23.3883L10.3261 24.7328L11.3004 20.5825L13.858 18.0689L13.7971 22.6284V23.2714ZM3.74951 23.2714V22.6284L3.68861 18.1273L6.24618 20.6409L7.2205 24.7912L4.05398 23.3883L3.74951 23.2714ZM3.74951 6.7286L4.11487 6.55324L7.2205 5.20877L6.24618 9.30063L3.68861 11.8142L3.74951 7.31315V6.7286ZM8.68197 28.2985L7.46408 24.9666L8.68197 23.5052V28.2985ZM12.8228 17.0167C12.8837 16.666 12.9446 16.3737 12.9446 16.023L13.858 17.8351L13.7362 17.952L11.7876 19.881C12.2747 19.0042 12.5792 18.0104 12.8228 17.0167ZM3.68861 17.8351L4.60203 16.023C4.72382 17.3674 5.15008 18.7119 5.81992 19.881L3.8713 17.952L3.68861 17.8351ZM4.78471 12.9833C4.72382 13.334 4.66293 13.6263 4.66293 13.977L3.74951 12.1649L3.8713 12.048L5.81992 10.119C5.33277 10.9958 4.9674 11.9896 4.78471 12.9833ZM6.73334 21.2255C7.2205 21.8685 7.76855 22.3946 8.37749 22.9207H8.43839C8.56018 23.0376 8.62107 23.096 8.68197 23.1545L7.46408 24.6159L6.61155 20.9916C6.61155 21.1086 6.67245 21.167 6.73334 21.2255ZM13.858 12.1649L12.9446 13.977C12.8228 12.6326 12.3965 11.2881 11.7267 10.119L13.6753 12.048L13.858 12.1649ZM10.8133 8.77453C10.3261 8.18998 9.77807 7.60543 9.16912 7.07933L9.10823 7.02088C8.98644 6.90397 8.92555 6.84551 8.86465 6.78706L10.0825 5.32568L10.9351 8.9499C10.9351 8.89144 10.8742 8.83299 10.8133 8.77453ZM8.86465 23.5052L10.0825 24.9666L8.86465 28.2985V23.5052ZM8.92555 23.2129C9.65628 22.5115 10.387 21.8685 10.996 21.0501L10.6306 22.7453L10.1434 24.6743L9.71717 24.1482L8.92555 23.2129ZM13.7971 6.7286V7.37161L13.858 11.8727L11.3004 9.35908L10.3261 5.26722L13.4317 6.61169L13.7971 6.7286ZM8.86465 6.49478V1.70146L10.0825 5.0334L8.86465 6.49478ZM8.68197 6.49478L7.46408 5.0334L8.68197 1.70146V6.49478ZM4.60203 14.3862C4.60203 14.5616 4.66293 14.7954 4.66293 14.9708C4.60203 15.1461 4.60203 15.38 4.60203 15.6138L3.56682 17.6597L1.25283 15.0292L3.56682 12.3403L4.60203 14.3862ZM13.0055 15.6138C13.0055 15.4384 12.9446 15.2046 12.9446 15.0292C13.0055 14.7954 13.0055 14.62 13.0055 14.3862L14.0407 12.3403L16.3547 15.0292L14.0407 17.7182L13.0055 15.6138ZM5.69813 3.8643L6.73334 4.68267L7.1596 5.0334L5.08919 5.96868L3.8713 6.43633C4.41935 5.5595 5.08919 4.62422 5.69813 3.8643ZM11.8485 26.1357L10.8133 25.3173L10.387 24.9666L12.8228 23.9144L13.6753 23.5637C13.1273 24.499 12.5183 25.3758 11.8485 26.1357ZM16.3547 14.737L15.5022 13.7432L14.1016 12.1065L15.6848 10.9374C16.172 12.3403 16.3547 13.6263 16.3547 14.737ZM15.6848 10.762L14.1016 11.9311L14.0407 8.4238V7.07933C14.7105 8.30689 15.2586 9.5929 15.6848 10.762ZM11.7267 3.68894L10.2652 4.85804L9.23002 1.93528L8.98644 1.29228C9.83896 1.75992 10.8742 2.63674 11.7267 3.68894ZM8.62107 1.29228L8.37749 1.93528L7.34229 4.85804L5.88082 3.68894C6.73334 2.63674 7.76855 1.75992 8.62107 1.29228ZM3.50593 7.07933V8.83299L3.44503 11.9311L1.86178 10.762C2.28804 9.5929 2.83609 8.30689 3.50593 7.07933ZM1.80088 10.9958L3.38414 12.1649L2.7143 12.9833L1.19194 14.737C1.19194 13.6263 1.37462 12.3403 1.80088 10.9958ZM1.25283 15.263L2.77519 17.0167L3.44503 17.8351L1.86178 19.0042C1.37462 17.6597 1.19194 16.4322 1.25283 15.263ZM1.86178 19.238L3.44503 18.0689L3.50593 21.167V22.9207C2.83609 21.6931 2.28804 20.4071 1.86178 19.238ZM5.81992 26.3111L7.28139 25.142L8.56018 28.7077C7.76855 28.2401 6.73334 27.3633 5.81992 26.3111ZM8.98644 28.7077L10.2652 25.142L11.7267 26.3111C10.8742 27.3633 9.83896 28.2401 8.98644 28.7077ZM14.0407 22.9207V21.5762L14.1016 18.0689L15.6848 19.238C15.2586 20.4071 14.7105 21.6931 14.0407 22.9207ZM15.7457 19.0042L14.1625 17.8351L15.5631 16.1983L16.4156 15.2046C16.3547 16.4322 16.172 17.6597 15.7457 19.0042Z" stroke="#555" stroke-width="0.6" stroke-linecap="round" stroke-linejoin="round"></path>
                      </svg>