<svg xmlns="http://www.w3.org/2000/svg" xmlns:xlink="http://www.w3.org/1999/xlink" width="512" zoomAndPan="magnify" viewBox="0 0 384 383.999986" height="512" preserveAspectRatio="xMidYMid meet" version="1.0">
<defs>
    <clipPath id="ab63e38f6d">
        <path d="M 28.027344 178.613281 L 187.027344 178.613281 L 187.027344 282.863281 L 28.027344 282.863281 Z M 28.027344 178.613281 " clip-rule="nonzero"/>
    </clipPath>
    <clipPath id="a4411e8282">
        <path d="M 196.777344 178.613281 L 355.777344 178.613281 L 355.777344 282.863281 L 196.777344 282.863281 Z M 196.777344 178.613281 " clip-rule="nonzero"/>
    </clipPath>
    <clipPath id="1d381c18c9">
        <path d="M 120 54.773438 L 273.726562 54.773438 L 273.726562 178.523438 L 120 178.523438 Z M 120 54.773438 " clip-rule="nonzero"/>
    </clipPath>
</defs>
<g clip-path="url(#ab63e38f6d)">
    <path fill="#100f0d" d="M 148.355469 234.273438 L 108.617188 263.15625 L 108.617188 251.144531 L 174.855469 205.957031 L 176.855469 205.957031 Z M 108.617188 273.753906 L 108.617188 265.804688 L 138.433594 244.132812 Z M 76.335938 243.8125 L 106.472656 265.804688 L 106.472656 273.757812 Z M 42.65625 205.957031 L 106.472656 251.132812 L 106.472656 263.152344 L 66.289062 233.828125 L 38.234375 205.957031 Z M 57.65625 185.148438 L 69.695312 185.140625 L 42.664062 203.816406 L 38.382812 203.816406 Z M 46.433594 203.816406 L 73.464844 185.140625 L 143.621094 185.113281 L 171.054688 203.816406 Z M 107.558594 249.277344 L 46.363281 205.957031 L 171.058594 205.957031 Z M 161.289062 185.105469 L 177.59375 203.816406 L 174.855469 203.816406 L 147.417969 185.109375 Z M 187.03125 204.867188 L 164.222656 178.683594 L 55.042969 178.726562 L 29.144531 203.816406 L 28.039062 204.886719 L 29.113281 205.957031 L 106.472656 282.816406 L 108.617188 282.816406 L 185.976562 205.957031 L 187.03125 204.867188 " fill-opacity="1" fill-rule="nonzero"/>
</g>
<g clip-path="url(#a4411e8282)">
    <path fill="#100f0d" d="M 317.105469 234.273438 L 277.367188 263.15625 L 277.367188 251.144531 L 343.605469 205.957031 L 345.605469 205.957031 Z M 277.367188 273.753906 L 277.367188 265.804688 L 307.183594 244.132812 Z M 245.085938 243.8125 L 275.222656 265.804688 L 275.222656 273.757812 Z M 211.40625 205.957031 L 275.222656 251.132812 L 275.222656 263.152344 L 235.039062 233.828125 L 206.984375 205.957031 Z M 226.40625 185.148438 L 238.445312 185.140625 L 211.414062 203.816406 L 207.132812 203.816406 Z M 215.183594 203.816406 L 242.214844 185.140625 L 312.371094 185.113281 L 339.804688 203.816406 Z M 276.308594 249.277344 L 215.113281 205.957031 L 339.808594 205.957031 Z M 330.039062 185.105469 L 346.34375 203.816406 L 343.605469 203.816406 L 316.167969 185.109375 Z M 355.78125 204.867188 L 332.972656 178.683594 L 223.792969 178.726562 L 197.894531 203.816406 L 196.789062 204.886719 L 197.863281 205.957031 L 275.222656 282.816406 L 277.367188 282.816406 L 354.726562 205.957031 L 355.78125 204.867188 " fill-opacity="1" fill-rule="nonzero"/>
</g>
<g clip-path="url(#1d381c18c9)">
    <path fill="#100f0d" d="M 244.980469 147.417969 L 257.710938 119.847656 L 267.996094 119.847656 Z M 132.15625 119.847656 L 146.070312 145.351562 L 125.59375 119.847656 Z M 219.144531 154.621094 L 232.734375 119.847656 L 254.472656 119.847656 Z M 237.914062 155.882812 L 234.8125 157.296875 L 218.96875 157.296875 L 254.691406 122.128906 L 240.585938 152.683594 Z M 217.140625 159.078125 L 230.898438 159.078125 L 203.464844 171.578125 Z M 175.648438 159.078125 L 189.785156 171.789062 L 160.59375 159.078125 Z M 173.730469 157.296875 L 156.503906 157.296875 L 155.203125 156.730469 L 152.410156 153.25 L 136.109375 123.367188 Z M 160.878906 119.847656 L 173.410156 154.605469 L 134.863281 119.847656 Z M 175.804688 155.984375 L 162.777344 119.847656 L 194.890625 119.847656 Z M 215.355469 157.296875 L 177.128906 157.296875 L 196.816406 120.019531 Z M 198.722656 119.847656 L 230.816406 119.847656 L 216.695312 155.988281 Z M 196.539062 174.734375 L 194.964844 174.046875 L 178.367188 159.078125 L 214.496094 159.078125 L 198.191406 173.980469 Z M 148.699219 85.925781 L 135.972656 113.496094 L 125.6875 113.496094 Z M 261.527344 113.496094 L 247.613281 87.988281 L 268.089844 113.496094 Z M 174.539062 78.71875 L 160.953125 113.496094 L 139.210938 113.496094 Z M 155.765625 77.460938 L 158.875 76.042969 L 174.714844 76.042969 L 138.992188 111.210938 L 153.097656 80.660156 Z M 176.542969 74.261719 L 162.785156 74.261719 L 190.21875 61.761719 Z M 218.035156 74.261719 L 203.898438 61.550781 L 233.089844 74.261719 Z M 219.953125 76.042969 L 237.179688 76.042969 L 238.480469 76.609375 L 241.273438 80.089844 L 257.574219 109.972656 Z M 232.804688 113.496094 L 220.273438 78.734375 L 258.820312 113.496094 Z M 217.882812 77.355469 L 230.90625 113.496094 L 198.792969 113.496094 Z M 178.328125 76.042969 L 216.554688 76.042969 L 196.863281 113.320312 Z M 194.960938 113.496094 L 162.867188 113.496094 L 176.988281 77.351562 Z M 197.144531 58.609375 L 198.71875 59.292969 L 215.316406 74.261719 L 179.183594 74.261719 L 195.492188 59.363281 Z M 272.890625 116.671875 C 273.105469 116.503906 273.292969 116.300781 273.414062 116.046875 C 273.710938 115.429688 273.625 114.699219 273.195312 114.164062 L 240.988281 74.039062 C 240.808594 73.8125 240.574219 73.636719 240.308594 73.519531 L 197.839844 55.023438 C 197.375 54.824219 196.847656 54.824219 196.386719 55.039062 L 153.914062 74.386719 C 153.671875 74.5 153.457031 74.664062 153.285156 74.867188 L 120.507812 114.136719 C 120.0625 114.667969 119.96875 115.40625 120.261719 116.03125 C 120.382812 116.292969 120.574219 116.5 120.792969 116.671875 C 120.578125 116.835938 120.390625 117.039062 120.269531 117.292969 C 119.972656 117.910156 120.058594 118.644531 120.484375 119.175781 L 152.695312 159.300781 C 152.875 159.527344 153.109375 159.707031 153.375 159.820312 L 195.84375 178.316406 C 196.070312 178.414062 196.3125 178.464844 196.558594 178.464844 C 196.808594 178.464844 197.0625 178.410156 197.296875 178.304688 L 239.769531 158.953125 C 240.011719 158.84375 240.226562 158.679688 240.398438 158.476562 L 273.175781 119.203125 C 273.621094 118.671875 273.714844 117.933594 273.421875 117.308594 C 273.300781 117.046875 273.109375 116.839844 272.890625 116.671875 " fill-opacity="1" fill-rule="nonzero"/>
</g>
</svg>