<?xml version="1.0" encoding="utf-8"?>
<svg width="20" height="30" viewBox="0 0 20 30" fill="none" xmlns="http://www.w3.org/2000/svg">
  <path d="M16.3133 5.09958C14.1804 1.77549 10.2911 -0.334035 6.65262 1.96726L6.52715 2.03119L6.40169 2.15904C1.00677 5.86668 0.128524 14.4965 1.69682 20.3776C2.38686 22.9986 3.6415 25.6195 5.71164 27.3455C7.90725 29.1993 10.7929 29.5828 13.3022 28.0486L13.4276 27.9208L13.5531 27.7929C17.5052 25.0442 18.8853 19.4827 18.8853 14.944V14.8801C18.948 11.556 18.1952 8.04013 16.3133 5.09958C15.4978 3.75716 17.1915 6.44201 16.3133 5.09958ZM12.7376 24.7885L13.7413 20.889L16.1251 19.3548V24.7885H12.7376ZM12.4239 24.9163L9.9774 28.7518L7.53086 24.9163L7.71905 24.7885L9.9774 23.3182L10.0401 23.3821L12.4239 24.9163ZM7.53086 5.16351L9.9774 1.32801L12.4239 5.16351L12.2357 5.29136L9.9774 6.76163L9.28735 6.31416L7.53086 5.16351ZM15.1841 19.6745L13.804 20.5694L15.1214 15.4554L16.0624 19.0352L15.1841 19.6745ZM16.1251 10.9807L15.1841 14.5605L13.8668 9.44648L16.1251 10.9807ZM15.0587 15.0079L13.5531 20.7612L9.9774 23.0625L6.40169 20.7612L4.89613 15.0719L6.40169 9.31863L9.9774 7.01733L13.5531 9.31863L15.0587 15.0079ZM10.1656 6.88948L12.4867 5.35528L13.4276 8.999L10.1656 6.88948ZM6.52715 8.999L7.46813 5.35528L9.7892 6.88948L6.52715 8.999ZM6.15076 9.5104L4.8334 14.6244L3.89242 11.0446L4.8334 10.4054L6.15076 9.5104ZM9.7892 23.1903L7.46813 24.7245L6.52715 21.0808L9.7892 23.1903ZM3.70423 11.2364L4.70794 15.0719L3.70423 18.9074L2.38686 16.7978L1.25769 15.0719L2.38686 13.3459L3.70423 11.2364ZM3.82969 19.0991L4.77067 15.4554L6.08803 20.5694L5.77437 20.3776L3.82969 19.0991ZM10.1656 23.1903L13.4276 21.0169L12.4867 24.6606L10.6047 23.446L10.1656 23.1903ZM16.376 10.725V5.54706C17.0661 6.76163 17.6307 8.10405 18.0698 9.63825L16.376 10.725ZM16.1251 10.725L13.7413 9.19078L12.7376 5.29136H16.1251V10.725ZM6.2135 9.19078L3.82969 10.725V5.29136H7.27993L6.2135 9.19078ZM3.57877 19.0991L1.88501 20.1859C1.50862 18.6517 1.25769 17.0535 1.25769 15.3915L3.57877 19.0991ZM3.6415 19.3548V24.5328C2.95145 23.3182 2.38686 21.9758 1.94774 20.4416L3.6415 19.3548ZM3.82969 19.3548L6.0253 20.7612L6.27623 20.889L7.27993 24.7885H3.82969V19.3548ZM16.3133 18.8434L15.3096 15.0079L16.3133 11.1724L17.5052 13.0902L18.6971 15.0079L17.5052 16.9257L16.3133 18.8434ZM17.2543 12.3231L16.4388 10.9807L18.1325 9.89395C18.5089 11.4281 18.7598 13.0263 18.7598 14.6883L17.2543 12.3231ZM16.0624 5.03566H12.7376L13.4276 2.28689C14.4313 2.99006 15.3096 3.88501 16.0624 5.03566ZM13.2394 2.22296L12.5494 4.90781L11.9221 3.88501L10.2283 1.20016C11.232 1.26409 12.2985 1.58371 13.2394 2.22296ZM9.7892 1.20016L9.601 1.45586L7.4054 4.90781L6.71535 2.22296L6.77808 2.15904C7.78179 1.51979 8.78549 1.26409 9.7892 1.20016ZM6.52715 2.35081L7.27993 5.03566H3.95516C4.70794 3.88501 5.52345 2.99006 6.52715 2.35081ZM3.6415 10.725L1.94774 9.63825C2.32413 8.10405 2.88872 6.76163 3.6415 5.54706V10.725ZM1.88501 9.89395L3.57877 10.9807L1.25769 14.6244C1.25769 13.0263 1.50862 11.3642 1.88501 9.89395ZM3.95516 24.9802H7.27993L6.58988 27.729C5.58618 27.0898 4.70794 26.1948 3.95516 24.9802ZM6.71535 27.8569L7.4054 25.172L8.03271 26.1309L9.7892 28.8797C8.72276 28.8157 7.71906 28.4961 6.71535 27.8569ZM10.1656 28.8797L11.9221 26.1309L12.5494 25.172L13.2394 27.8569L13.1767 27.9208C12.2357 28.4961 11.232 28.8157 10.1656 28.8797ZM13.4904 27.729L12.7376 24.9802H16.0624C15.3096 26.1309 14.4313 27.0898 13.4904 27.729ZM16.376 19.3548L18.0698 20.4416C17.6934 21.9758 17.1288 23.3182 16.376 24.5328V19.3548ZM18.0698 20.1859L16.5015 19.1631L16.376 19.0991L17.1915 17.7567L18.6971 15.3915C18.6971 17.0535 18.5089 18.6517 18.0698 20.1859Z" fill="#555"></path>
  <path d="M16.3133 5.09958C14.1804 1.77549 10.2911 -0.334035 6.65262 1.96726L6.52715 2.03119L6.40169 2.15904C1.00677 5.86668 0.128524 14.4965 1.69682 20.3776C2.38686 22.9986 3.6415 25.6195 5.71164 27.3455C7.90725 29.1993 10.7929 29.5828 13.3022 28.0486L13.4276 27.9208L13.5531 27.7929C17.5052 25.0442 18.8853 19.4827 18.8853 14.944V14.8801C18.948 11.556 18.1952 8.04013 16.3133 5.09958ZM16.3133 5.09958C15.4978 3.75716 17.1915 6.44201 16.3133 5.09958ZM12.7376 24.7885L13.7413 20.889L16.1251 19.3548V24.7885H12.7376ZM12.4239 24.9163L9.97739 28.7518L7.53086 24.9163L7.71905 24.7885L9.97739 23.3182L10.0401 23.3821L12.4239 24.9163ZM7.53086 5.16351L9.97739 1.32801L12.4239 5.16351L12.2357 5.29136L9.97739 6.76163L9.28735 6.31416L7.53086 5.16351ZM15.1841 19.6745L13.804 20.5694L15.1214 15.4554L16.0624 19.0352L15.1841 19.6745ZM16.1251 10.9807L15.1841 14.5605L13.8668 9.44648L16.1251 10.9807ZM15.0587 15.0079L13.5531 20.7612L9.97739 23.0625L6.40169 20.7612L4.89613 15.0719L6.40169 9.31863L9.97739 7.01733L13.5531 9.31863L15.0587 15.0079ZM10.1656 6.88948L12.4867 5.35528L13.4276 8.999L10.1656 6.88948ZM6.52715 8.999L7.46813 5.35528L9.7892 6.88948L6.52715 8.999ZM6.15076 9.5104L4.8334 14.6244L3.89242 11.0446L4.8334 10.4054L6.15076 9.5104ZM9.7892 23.1903L7.46813 24.7245L6.52715 21.0808L9.7892 23.1903ZM3.70423 11.2364L4.70794 15.0719L3.70423 18.9074L2.38686 16.7978L1.25769 15.0719L2.38686 13.3459L3.70423 11.2364ZM3.82969 19.0991L4.77067 15.4554L6.08803 20.5694L5.77437 20.3776L3.82969 19.0991ZM10.1656 23.1903L13.4276 21.0169L12.4867 24.6606L10.6047 23.446L10.1656 23.1903ZM16.376 10.725V5.54706C17.0661 6.76163 17.6307 8.10405 18.0698 9.63825L16.376 10.725ZM16.1251 10.725L13.7413 9.19078L12.7376 5.29136H16.1251V10.725ZM6.2135 9.19078L3.82969 10.725V5.29136H7.27993L6.2135 9.19078ZM3.57877 19.0991L1.88501 20.1859C1.50862 18.6517 1.25769 17.0535 1.25769 15.3915L3.57877 19.0991ZM3.6415 19.3548V24.5328C2.95145 23.3182 2.38686 21.9758 1.94774 20.4416L3.6415 19.3548ZM3.82969 19.3548L6.0253 20.7612L6.27623 20.889L7.27993 24.7885H3.82969V19.3548ZM16.3133 18.8434L15.3096 15.0079L16.3133 11.1724L17.5052 13.0902L18.6971 15.0079L17.5052 16.9257L16.3133 18.8434ZM17.2543 12.3231L16.4388 10.9807L18.1325 9.89395C18.5089 11.4281 18.7598 13.0263 18.7598 14.6883L17.2543 12.3231ZM16.0624 5.03566H12.7376L13.4276 2.28689C14.4313 2.99006 15.3096 3.88501 16.0624 5.03566ZM13.2394 2.22296L12.5494 4.90781L11.9221 3.88501L10.2283 1.20016C11.232 1.26409 12.2985 1.58371 13.2394 2.22296ZM9.7892 1.20016L9.601 1.45586L7.4054 4.90781L6.71535 2.22296L6.77808 2.15904C7.78179 1.51979 8.78549 1.26409 9.7892 1.20016ZM6.52715 2.35081L7.27993 5.03566H3.95516C4.70794 3.88501 5.52345 2.99006 6.52715 2.35081ZM3.6415 10.725L1.94774 9.63825C2.32413 8.10405 2.88872 6.76163 3.6415 5.54706V10.725ZM1.88501 9.89395L3.57877 10.9807L1.25769 14.6244C1.25769 13.0263 1.50862 11.3642 1.88501 9.89395ZM3.95516 24.9802H7.27993L6.58988 27.729C5.58618 27.0898 4.70794 26.1948 3.95516 24.9802ZM6.71535 27.8569L7.4054 25.172L8.03271 26.1309L9.7892 28.8797C8.72276 28.8157 7.71906 28.4961 6.71535 27.8569ZM10.1656 28.8797L11.9221 26.1309L12.5494 25.172L13.2394 27.8569L13.1767 27.9208C12.2357 28.4961 11.232 28.8157 10.1656 28.8797ZM13.4904 27.729L12.7376 24.9802H16.0624C15.3096 26.1309 14.4313 27.0898 13.4904 27.729ZM16.376 19.3548L18.0698 20.4416C17.6934 21.9758 17.1288 23.3182 16.376 24.5328V19.3548ZM18.0698 20.1859L16.5015 19.1631L16.376 19.0991L17.1915 17.7567L18.6971 15.3915C18.6971 17.0535 18.5089 18.6517 18.0698 20.1859Z" stroke="#555" stroke-width="0.4" stroke-linecap="round" stroke-linejoin="round"></path>
</svg>