<?xml version="1.0" encoding="utf-8"?>
<svg width="21" height="30" viewBox="0 0 21 30" fill="none" xmlns="http://www.w3.org/2000/svg">
                      <path d="M1.00796 20.4567C1.1341 22.8888 2.01712 25.3208 4.03543 26.8799C4.98152 27.6905 6.36911 28.1894 7.56749 28.5012C8.51358 28.7507 9.52273 28.9378 10.595 29.0001C11.6672 28.9378 12.6764 28.7507 13.6224 28.5012C14.7577 28.3765 16.3346 27.6282 17.1545 26.8799C19.1728 25.3208 20.0558 22.8888 20.182 20.4567C20.3712 16.6527 19.0467 12.7863 17.3437 9.41883C15.83 6.17607 13.7486 2.99567 10.7211 1.00012H10.595C6.05375 4.11816 3.27857 9.48119 1.8279 14.5948C1.26025 16.4656 0.944886 18.4611 1.00796 20.4567ZM1.95404 14.7819L3.59393 16.1538L3.97236 16.4656L2.01712 19.0224L1.19718 20.1449C1.19718 18.5235 1.44947 16.715 1.95404 14.7819ZM6.81062 4.92885L8.32436 6.30079L8.63972 6.61259L6.30604 7.73509L4.41387 8.60814C5.23381 7.29856 5.99068 5.98899 6.81062 4.92885ZM14.4424 4.92885C15.2623 6.05135 16.0192 7.29856 16.7761 8.60814L14.7577 7.61037L12.6133 6.61259L13.3702 5.92663L14.4424 4.92885ZM17.0284 26.6304L14.5685 26.2562L13.3071 26.0692L14.3793 23.3253L17.1545 22.5146L17.0914 24.9467L17.0284 26.6304ZM4.16158 25.009L4.09851 22.6393L6.87369 23.45L7.94592 26.1939L4.22465 26.6928L4.16158 25.009ZM5.04459 15.6549L7.06291 13.4723C6.1799 15.2184 5.67532 17.1516 5.4861 19.0848L4.28772 16.4656L5.04459 15.6549ZM9.39659 10.479C9.77502 10.0424 10.2165 9.60591 10.595 9.16939C11.6672 10.2919 12.6764 11.4144 13.4963 12.724C14.6947 14.5948 15.3885 17.0268 15.5146 19.5213C15.3885 22.2652 13.6855 24.5101 10.7842 24.8843C9.45966 25.0714 7.81978 24.136 6.93677 23.2006C5.92761 22.2028 5.61224 20.8309 5.54917 19.4589C5.86453 16.1538 7.12598 13.0358 9.39659 10.479C9.71195 10.1048 8.89201 11.1026 9.39659 10.479ZM7.94592 24.2607C8.63972 24.6972 9.39659 25.009 10.2165 25.1338L9.08123 25.695L8.19821 26.1315L7.25213 23.8242C7.44134 23.9489 7.69363 24.0736 7.94592 24.2607ZM11.6041 25.009C12.4871 24.7596 13.3071 24.3231 14.0009 23.7618L13.0548 26.0692L11.0365 25.1338C11.2257 25.0714 11.4149 25.009 11.6041 25.009ZM15.01 22.577C15.5146 21.7663 15.7038 20.8309 15.7669 19.9578L17.0914 22.4522L16.2084 22.7017L14.6316 23.1382C14.7577 22.9511 14.8839 22.764 15.01 22.577ZM5.61224 20.7685C5.80146 21.5792 6.11682 22.4522 6.6214 23.0758L4.16158 22.3899L5.4861 19.8954C5.4861 20.2072 5.54917 20.5191 5.61224 20.7685ZM15.7669 19.0848C15.5777 17.1516 15.0731 15.2184 14.1901 13.4723L16.9022 16.4656L15.7669 19.0848ZM5.42303 19.5213L3.97236 22.2652L1.32332 20.332L4.16158 16.5903L5.42303 19.5213ZM8.32436 26.2562L10.658 25.1961L12.9917 26.2562L12.6764 26.5681L10.658 28.6883L8.32436 26.2562ZM15.83 19.5213L17.0914 16.6527L19.9297 20.3943L17.2806 22.3275L15.83 19.5213ZM13.7486 12.5992L12.8025 7.92217L12.5502 6.79968L16.9022 8.91994V11.0402L16.9653 16.1538L13.7486 12.5992ZM12.361 6.86204L13.4332 12.1003C12.6764 10.9778 11.7303 9.98008 10.7842 8.9823L11.3518 8.23397L12.361 6.86204ZM10.4688 9.04467C9.52273 10.0424 8.57665 11.0402 7.81978 12.1627L8.89201 6.9244L9.64888 7.98453L10.4688 9.04467ZM4.3508 8.91994L8.70279 6.79968L7.50442 12.5992L4.28772 16.1538L4.3508 11.0402V8.91994ZM10.3427 28.7507C9.39659 28.6883 8.51358 28.5012 7.69363 28.3142L8.13514 26.4433L10.3427 28.7507ZM13.0548 26.4433L13.4963 28.3142C12.6764 28.5012 11.7933 28.6883 10.8473 28.7507L13.0548 26.4433ZM12.2979 6.61259L11.3518 7.92217L10.658 8.85758L8.95508 6.61259L10.595 1.43665L11.5411 4.42997L12.2979 6.61259ZM2.58477 21.5792L3.78314 22.4522L2.26941 23.6371L1.95404 23.8242C1.57561 22.8888 1.32332 21.8286 1.19718 20.6438L2.58477 21.5792ZM2.08019 24.0736L3.90929 22.7017L3.97236 26.5681C3.15242 25.8821 2.5217 25.009 2.08019 24.0736ZM7.94592 26.3186L7.50442 28.2518C6.30604 27.94 5.23381 27.4411 4.3508 26.8175L7.94592 26.3186ZM13.7486 28.2518L13.3071 26.3186L16.9022 26.8175C16.0192 27.4411 14.947 27.94 13.7486 28.2518ZM17.2806 26.5681L17.4068 22.7017L19.2359 24.0736C18.7313 25.009 18.1006 25.8821 17.2806 26.5681ZM19.299 23.8242L18.9836 23.6371L17.4699 22.4522L18.6682 21.5792L19.9928 20.6438C19.9297 21.8286 19.6774 22.8888 19.299 23.8242ZM20.0558 20.0825L17.2806 16.4032L17.596 16.1538L19.299 14.7195C19.8035 16.715 20.0558 18.5235 20.0558 20.0825ZM19.2359 14.5948L18.6682 15.0313L17.2176 16.2162L17.1545 12.1627V9.35647C17.9744 11.0402 18.7313 12.8487 19.2359 14.5948ZM14.3162 4.74177L12.4241 6.42551L10.7842 1.37429C11.6672 1.99789 12.9286 3.12039 14.3162 4.74177ZM10.4057 1.37429L9.71195 3.55691L8.76587 6.42551L6.93677 4.74177C8.19821 3.30747 9.33352 2.18498 10.4057 1.37429ZM4.09851 12.038L4.03543 16.2162L2.64784 15.0937L2.01712 14.5948C2.5217 12.8487 3.27857 11.0402 4.16158 9.29411L4.09851 12.038Z" fill="#555"></path>
                      <path d="M9.39659 10.479C9.77502 10.0424 10.2165 9.60591 10.595 9.16939C11.6672 10.2919 12.6764 11.4144 13.4963 12.724C14.6947 14.5948 15.3885 17.0268 15.5146 19.5213C15.3885 22.2652 13.6855 24.5101 10.7842 24.8843C9.45966 25.0714 7.81978 24.136 6.93677 23.2006C5.92761 22.2028 5.61224 20.8309 5.54917 19.4589C5.86453 16.1538 7.12598 13.0358 9.39659 10.479ZM9.39659 10.479C9.71195 10.1048 8.89201 11.1026 9.39659 10.479ZM1.00796 20.4567C1.1341 22.8888 2.01712 25.3208 4.03543 26.8799C4.98152 27.6905 6.36911 28.1894 7.56749 28.5012C8.51358 28.7507 9.52273 28.9378 10.595 29.0001C11.6672 28.9378 12.6764 28.7507 13.6224 28.5012C14.7577 28.3765 16.3346 27.6282 17.1545 26.8799C19.1728 25.3208 20.0558 22.8888 20.182 20.4567C20.3712 16.6527 19.0467 12.7863 17.3437 9.41883C15.83 6.17607 13.7486 2.99567 10.7211 1.00012H10.595C6.05375 4.11816 3.27857 9.48119 1.8279 14.5948C1.26025 16.4656 0.944886 18.4611 1.00796 20.4567ZM1.95404 14.7819L3.59393 16.1538L3.97236 16.4656L2.01712 19.0224L1.19718 20.1449C1.19718 18.5235 1.44947 16.715 1.95404 14.7819ZM6.81062 4.92885L8.32436 6.30079L8.63972 6.61259L6.30604 7.73509L4.41387 8.60814C5.23381 7.29856 5.99068 5.98899 6.81062 4.92885ZM14.4424 4.92885C15.2623 6.05135 16.0192 7.29856 16.7761 8.60814L14.7577 7.61037L12.6133 6.61259L13.3702 5.92663L14.4424 4.92885ZM17.0284 26.6304L14.5685 26.2562L13.3071 26.0692L14.3793 23.3253L17.1545 22.5146L17.0914 24.9467L17.0284 26.6304ZM4.16158 25.009L4.09851 22.6393L6.87369 23.45L7.94592 26.1939L4.22465 26.6928L4.16158 25.009ZM5.04459 15.6549L7.06291 13.4723C6.1799 15.2184 5.67532 17.1516 5.4861 19.0848L4.28772 16.4656L5.04459 15.6549ZM7.94592 24.2607C8.63972 24.6972 9.39659 25.009 10.2165 25.1338L9.08123 25.695L8.19821 26.1315L7.25213 23.8242C7.44134 23.9489 7.69363 24.0736 7.94592 24.2607ZM11.6041 25.009C12.4871 24.7596 13.3071 24.3231 14.0009 23.7618L13.0548 26.0692L11.0365 25.1338C11.2257 25.0714 11.4149 25.009 11.6041 25.009ZM15.01 22.577C15.5146 21.7663 15.7038 20.8309 15.7669 19.9578L17.0914 22.4522L16.2084 22.7017L14.6316 23.1382C14.7577 22.9511 14.8839 22.764 15.01 22.577ZM5.61224 20.7685C5.80146 21.5792 6.11682 22.4522 6.6214 23.0758L4.16158 22.3899L5.4861 19.8954C5.4861 20.2072 5.54917 20.5191 5.61224 20.7685ZM15.7669 19.0848C15.5777 17.1516 15.0731 15.2184 14.1901 13.4723L16.9022 16.4656L15.7669 19.0848ZM5.42303 19.5213L3.97236 22.2652L1.32332 20.332L4.16158 16.5903L5.42303 19.5213ZM8.32436 26.2562L10.658 25.1961L12.9917 26.2562L12.6764 26.568L10.658 28.6883L8.32436 26.2562ZM15.83 19.5213L17.0914 16.6527L19.9297 20.3943L17.2806 22.3275L15.83 19.5213ZM13.7486 12.5992L12.8025 7.92217L12.5502 6.79968L16.9022 8.91994V11.0402L16.9653 16.1538L13.7486 12.5992ZM12.361 6.86204L13.4332 12.1003C12.6764 10.9778 11.7303 9.98008 10.7842 8.9823L11.3518 8.23398L12.361 6.86204ZM10.4688 9.04466C9.52273 10.0424 8.57665 11.0402 7.81978 12.1627L8.89201 6.9244L9.64888 7.98453L10.4688 9.04466ZM4.3508 8.91994L8.70279 6.79968L7.50442 12.5992L4.28772 16.1538L4.3508 11.0402V8.91994ZM10.3427 28.7507C9.39659 28.6883 8.51358 28.5012 7.69363 28.3142L8.13514 26.4433L10.3427 28.7507ZM13.0548 26.4433L13.4963 28.3142C12.6764 28.5012 11.7933 28.6883 10.8473 28.7507L13.0548 26.4433ZM12.2979 6.61259L11.3518 7.92217L10.658 8.85758L8.95508 6.61259L10.595 1.43665L11.5411 4.42997L12.2979 6.61259ZM2.58477 21.5792L3.78314 22.4522L2.26941 23.6371L1.95404 23.8242C1.57561 22.8888 1.32332 21.8286 1.19718 20.6438L2.58477 21.5792ZM2.08019 24.0736L3.90929 22.7017L3.97236 26.568C3.15242 25.8821 2.5217 25.009 2.08019 24.0736ZM7.94592 26.3186L7.50442 28.2518C6.30604 27.94 5.23381 27.4411 4.3508 26.8175L7.94592 26.3186ZM13.7486 28.2518L13.3071 26.3186L16.9022 26.8175C16.0192 27.4411 14.947 27.94 13.7486 28.2518ZM17.2806 26.568L17.4068 22.7017L19.2359 24.0736C18.7313 25.009 18.1006 25.8821 17.2806 26.568ZM19.299 23.8242L18.9836 23.6371L17.4699 22.4522L18.6682 21.5792L19.9928 20.6438C19.9297 21.8286 19.6774 22.8888 19.299 23.8242ZM20.0558 20.0825L17.2806 16.4032L17.596 16.1538L19.299 14.7195C19.8035 16.715 20.0558 18.5235 20.0558 20.0825ZM19.2359 14.5948L18.6682 15.0313L17.2176 16.2162L17.1545 12.1627V9.35647C17.9744 11.0402 18.7313 12.8487 19.2359 14.5948ZM14.3162 4.74177L12.4241 6.42551L10.7842 1.37429C11.6672 1.99789 12.9286 3.12039 14.3162 4.74177ZM10.4057 1.37429L9.71195 3.55691L8.76587 6.42551L6.93677 4.74177C8.19821 3.30747 9.33352 2.18498 10.4057 1.37429ZM4.09851 12.038L4.03543 16.2162L2.64784 15.0937L2.01712 14.5948C2.5217 12.8487 3.27857 11.0402 4.16158 9.29411L4.09851 12.038Z" stroke="#555" stroke-width="0.4" stroke-linecap="round" stroke-linejoin="round"></path>
                    </svg>