<?xml version="1.0" encoding="utf-8"?>
 <svg width="30" height="30" viewBox="0 0 30 30" fill="none" xmlns="http://www.w3.org/2000/svg">
                      <path d="M1 28.8705C1 28.9353 1.06497 29.0001 1.06497 29.0001H28.935C29 29.0001 29 28.9353 29 28.8705V1.12975C29 1.06494 29 1.00012 28.935 1.00012H1.12993C1.06497 1.00012 1 1.06494 1 1.12975V28.8705ZM23.7378 25.8242H23.5429L15.5522 24.852L23.7378 23.8149V25.8242ZM26.0116 23.5557H23.9977L24.9722 15.2594L25.4269 19.0186L26.0116 23.5557ZM15.0325 5.34271L23.7378 6.37975L24.7773 15.0001L23.7378 23.5557L14.9675 24.6575L6.26218 23.5557L5.22274 15.0001L6.26218 6.37975L6.7819 6.31494L15.0325 5.34271ZM8.60093 24.0742L14.4478 24.7872L6.26218 25.8242V23.8149L8.60093 24.0742ZM24.9722 14.676L23.9977 6.37975H26.0116L24.9722 14.676ZM23.7378 4.17605V6.18531H23.5429L15.6172 5.14827L21.464 4.43531L23.7378 4.17605ZM14.3828 5.14827L6.26218 6.18531V4.17605L8.60093 4.43531L14.3828 5.14827ZM5.02784 14.676L4.57309 10.9168L4.05336 6.37975H6.06729L5.02784 14.676ZM5.02784 15.2594L5.54756 19.7316L6.00232 23.5557H4.05336L5.02784 15.2594ZM15.0325 24.9816L22.0487 25.8242H8.01624L15.0325 24.9816ZM23.9977 23.7501H26.0766L28.6102 28.4816L23.9977 25.8242V23.7501ZM26.0116 21.8057L25.1671 15.0001L26.0116 8.19457V21.8057ZM26.0766 6.18531H23.9977V4.11123L27.116 2.29642L28.6102 1.38901L26.0766 6.18531ZM15.0325 5.01864L8.01624 4.17605H21.9838L15.0325 5.01864ZM6.06729 4.11123V6.18531H3.9884L1.38979 1.38901L3.20882 2.42605L6.06729 4.11123ZM3.9884 8.19457L4.83295 15.0001L3.9884 21.8057V8.19457ZM1.38979 28.5464L3.92343 23.8149H6.00232V25.889L3.59861 27.2501L1.38979 28.5464ZM2.10441 28.4168L6.19722 26.0186H23.8678L26.5963 27.639L28.4803 28.7409H1.51972L2.10441 28.4168ZM28.8051 28.4168L27.2459 25.5649L26.2065 23.6853V6.31494L27.2459 4.43531L28.8051 1.58346V28.4168ZM27.7007 1.71308L23.8678 3.9816H6.19722L1.51972 1.19457H28.4803L27.7007 1.71308ZM1.1949 1.58346L2.75406 4.43531L3.7935 6.31494V23.6205L2.75406 25.5001L1.1949 28.352V1.58346Z" fill="#555" stroke="#555" stroke-width="0.4" stroke-linecap="round" stroke-linejoin="round"></path>
                    </svg>