<?xml version="1.0" encoding="utf-8"?>
<!-- Generator: Adobe Illustrator 16.0.4, SVG Export Plug-In . SVG Version: 6.00 Build 0)  -->
<!DOCTYPE svg PUBLIC "-//W3C//DTD SVG 1.1//EN" "http://www.w3.org/Graphics/SVG/1.1/DTD/svg11.dtd">
<svg version="1.1" id="Foreground" xmlns="http://www.w3.org/2000/svg" xmlns:xlink="http://www.w3.org/1999/xlink" x="0px" y="0px"
	 width="94px" height="124.667px" viewBox="0 0 94 124.667" enable-background="new 0 0 94 124.667" xml:space="preserve">
<g>
	<polygon fill="none" stroke="#000000" stroke-width="2" stroke-miterlimit="3.8637" points="5.09,15.797 17.84,3.045 77.465,3.045 
		90.215,15.797 90.215,109.167 77.465,121.919 17.84,121.919 5.09,109.167 	"/>
	<polygon fill="none" stroke="#000000" stroke-width="2" stroke-miterlimit="3.8637" points="14.385,23.197 25.115,12.466 
		70.188,12.466 80.917,23.197 80.917,101.77 70.188,112.5 25.115,112.5 14.385,101.77 	"/>
	<polyline fill="none" stroke="#000000" stroke-width="2" stroke-miterlimit="3.8637" points="17.84,3.045 25.115,12.466 
		26.287,24.997 47.652,21.42 24.965,12.514 	"/>
	<polyline fill="none" stroke="#000000" stroke-width="2" stroke-miterlimit="3.8637" points="14.465,22.92 22.34,62.482 
		26.277,24.982 14.409,23.197 5.09,15.795 	"/>
	<polyline fill="none" stroke="#000000" stroke-width="2" stroke-miterlimit="3.8637" points="77.84,3.045 70.565,12.466 
		69.393,24.997 48.027,21.42 70.715,12.514 	"/>
	<polyline fill="none" stroke="#000000" stroke-width="2" stroke-miterlimit="3.8637" points="81.215,22.92 73.34,62.482 
		69.402,24.982 81.271,23.197 90.59,15.795 	"/>
	<polyline fill="none" stroke="#000000" stroke-width="2" stroke-miterlimit="3.8637" points="17.84,121.919 25.115,112.5 
		26.287,99.968 47.652,103.544 24.965,112.451 	"/>
	<polyline fill="none" stroke="#000000" stroke-width="2" stroke-miterlimit="3.8637" points="14.465,102.044 22.34,62.482 
		26.277,99.982 14.409,101.769 5.09,109.169 	"/>
	<polyline fill="none" stroke="#000000" stroke-width="2" stroke-miterlimit="3.8637" points="77.84,121.919 70.565,112.5 
		69.393,99.968 48.027,103.544 70.715,112.451 	"/>
	<polyline fill="none" stroke="#000000" stroke-width="2" stroke-miterlimit="3.8637" points="81.215,102.044 73.34,62.482 
		69.402,99.982 81.271,101.769 90.59,109.169 	"/>
</g>
</svg>
