<?xml version="1.0" encoding="utf-8"?>
<svg width="30" height="30" viewBox="0 0 30 30" fill="none" xmlns="http://www.w3.org/2000/svg">
                      <path d="M2.02284 20.367C4.94961 27.3039 13.0937 30.8041 20.0924 28.0676L20.3469 27.9403L20.6014 27.813C25.6279 25.6492 29 20.558 29 15.0212V14.9576C29 10.5664 26.9004 6.36609 23.3373 3.75682C19.5198 0.892989 14.3025 0.192941 9.84876 1.97488L9.59426 2.10216L9.33976 2.22944C2.53184 5.15692 -0.840304 13.4302 2.02284 20.367ZM2.21371 9.86633L2.78634 10.1209L4.94961 11.0119L3.54985 12.412L1.19571 14.7667C1.25933 13.0484 1.57746 11.3937 2.21371 9.86633ZM19.2017 24.6946L20.0924 22.5945L20.7923 20.8762L24.6735 19.2852V24.7583H19.2017V24.6946ZM15.0024 28.7676L13.4754 27.2402L11.1849 24.9492L15.0024 23.2945L17.2929 24.2491L18.8836 24.8855L16.5931 27.1766L15.0024 28.7676ZM1.25933 15.0212L2.78634 13.4939L5.07686 11.2028L6.73112 15.0212L6.34936 16.0395L5.14048 18.9033L2.84997 16.6122L1.25933 15.0212ZM5.33136 19.0306L6.34936 16.6122L6.85837 15.3394L7.94 17.9487L9.02163 20.558L8.06725 20.1761L5.33136 19.0306ZM7.94 12.0938L6.85837 14.703L5.33136 11.0119L9.02163 9.48449L7.94 12.0938ZM6.98562 15.0212L8.13088 12.1574L9.27613 9.29356L15.0024 7.0025L17.8656 8.14803L20.7287 9.29356L23.0828 14.9576L20.7287 20.6216L15.0024 23.04L12.1393 21.8944L9.27613 20.7489L8.63988 18.967L6.98562 15.0212ZM17.9292 7.95711L15.3205 6.87522L19.0108 5.34784L20.5378 9.039L17.9292 7.95711ZM23.1465 15.2758L24.6735 18.967L20.9832 20.4943L23.1465 15.2758ZM12.0756 22.0853L14.6843 23.1672L10.994 24.6946L9.46701 21.0035L12.0756 22.0853ZM22.0012 12.0938L20.9196 9.48449L24.6098 11.0119L23.0828 14.703L22.0012 12.0938ZM9.46701 9.039L10.994 5.34784L14.6843 6.87522L9.46701 9.039ZM15.2569 23.1672L20.5378 21.0035L19.0108 24.6946L18.8199 24.631L15.2569 23.1672ZM5.07686 19.2215V24.5673C3.9316 23.3582 2.97722 21.9581 2.34097 20.367L5.07686 19.2215ZM5.26773 19.2215L8.13088 20.4307L9.14888 20.8762L10.7395 24.7583H5.26773V19.2215ZM23.2101 15.0212L24.8007 11.1391L28.6819 15.0212L24.8007 18.9033L23.2101 15.0212ZM24.928 10.7573V5.47512C26.0732 6.68429 27.0276 8.08439 27.6639 9.67541L24.928 10.7573ZM24.6735 10.7573L20.7923 9.16628L19.2017 5.2842H24.6735V10.7573ZM18.8836 5.15692L15.0024 6.74793L13.6663 6.17517L11.1213 5.09328L15.0024 1.27483L16.5294 2.80221L18.8836 5.15692ZM9.46701 8.40259L9.14888 9.22992L5.26773 10.8209V5.2842H10.7395L9.46701 8.40259ZM3.54985 17.6305L4.94961 19.0306L2.21371 20.1761C1.57746 18.5851 1.25933 16.9941 1.19571 15.2758L3.54985 17.6305ZM10.7395 24.9492L9.59426 27.6857C8.06725 27.0493 6.66749 26.0947 5.39498 24.9492H10.7395ZM9.78514 27.813L10.9304 25.0765L12.3302 26.4766L14.6843 28.8313C13.03 28.7676 11.3758 28.3858 9.78514 27.813ZM20.0288 27.813C18.5018 28.3858 16.9112 28.704 15.2569 28.7676L17.6111 26.4129L19.0108 25.0128L20.1561 27.7494L20.0288 27.813ZM20.4742 27.6221L20.3469 27.6857L19.2017 24.9492H24.5462C23.3373 26.0947 22.0012 26.9857 20.4742 27.6221ZM24.928 19.2215L27.6639 20.367C27.0276 21.8944 26.0732 23.2945 24.928 24.5673V19.2215ZM27.7275 20.1761L24.9916 19.0306L28.7455 15.2758C28.7455 16.9941 28.3637 18.6487 27.7275 20.1761ZM24.9916 11.0119L27.7275 9.86633C28.3637 11.4573 28.6819 13.0484 28.7455 14.7667L24.9916 11.0119ZM19.2017 5.09328L20.3469 2.29308C21.874 2.92949 23.2737 3.8841 24.5462 5.02964H19.2017V5.09328ZM20.1561 2.22944L19.0108 4.96599L17.6111 3.5659L15.2569 1.21119C16.9748 1.27483 18.5654 1.59304 20.1561 2.22944ZM9.97601 2.1658C11.503 1.59304 13.0937 1.27483 14.7479 1.21119L10.994 4.96599L9.84876 2.22944L9.97601 2.1658ZM9.46701 2.35672L9.59426 2.29308L10.7395 5.02964H5.45861C6.60387 3.94774 8.00362 3.05677 9.46701 2.35672ZM5.07686 10.7573L2.27734 9.61177C2.91359 8.08439 3.86797 6.68429 5.01323 5.41148V10.7573H5.07686Z" fill="#555" stroke="#555" stroke-width="0.6" stroke-linecap="round" stroke-linejoin="round"></path>
                    </svg>